<svg class="marks" width="643" height="438" xmlns="http://www.w3.org/2000/svg"><g transform="translate(46,6)"><g id="g64" class="type-group"><g transform="translate(0,0)"><rect class="background" width="432" height="384" style="pointer-events: none; fill: none;"></rect><g id="g65" class="type-group"><g transform="translate(0,384)"><rect class="background" width="0" height="0" style="pointer-events: none; fill: none;"></rect><g id="g66" class="type-rule" style="pointer-events: none;"><line x1="0.5" y1="-384" x2="0.5" y2="0" style="fill: none; stroke: rgb(216, 216, 216); stroke-width: 1px; opacity: 1;"></line><line x1="70.15456852550082" y1="-384" x2="70.15456852550082" y2="0" style="fill: none; stroke: rgb(216, 216, 216); stroke-width: 1px; opacity: 1;"></line><line x1="133.1271119945885" y1="-384" x2="133.1271119945885" y2="0" style="fill: none; stroke: rgb(216, 216, 216); stroke-width: 1px; opacity: 1;"></line><line x1="191.036342215329" y1="-384" x2="191.036342215329" y2="0" style="fill: none; stroke: rgb(216, 216, 216); stroke-width: 1px; opacity: 1;"></line><line x1="244.93693947887755" y1="-384" x2="244.93693947887755" y2="0" style="fill: none; stroke: rgb(216, 216, 216); stroke-width: 1px; opacity: 1;"></line><line x1="295.5614872174387" y1="-384" x2="295.5614872174387" y2="0" style="fill: none; stroke: rgb(216, 216, 216); stroke-width: 1px; opacity: 1;"></line><line x1="343.443374968887" y1="-384" x2="343.443374968887" y2="0" style="fill: none; stroke: rgb(216, 216, 216); stroke-width: 1px; opacity: 1;"></line><line x1="388.9852687496129" y1="-384" x2="388.9852687496129" y2="0" style="fill: none; stroke: rgb(216, 216, 216); stroke-width: 1px; opacity: 1;"></line><line x1="432.5" y1="-384" x2="432.5" y2="0" style="fill: none; stroke: rgb(216, 216, 216); stroke-width: 1px; opacity: 1;"></line></g><g id="g67" class="type-rule" style="pointer-events: none;"><line x1="0.5" y1="0" x2="0.5" y2="6" style="fill: none; stroke: rgb(0, 0, 0); stroke-width: 1px; opacity: 1;"></line><line x1="70.15456852550082" y1="0" x2="70.15456852550082" y2="6" style="fill: none; stroke: rgb(0, 0, 0); stroke-width: 1px; opacity: 1;"></line><line x1="133.1271119945885" y1="0" x2="133.1271119945885" y2="6" style="fill: none; stroke: rgb(0, 0, 0); stroke-width: 1px; opacity: 1;"></line><line x1="191.036342215329" y1="0" x2="191.036342215329" y2="6" style="fill: none; stroke: rgb(0, 0, 0); stroke-width: 1px; opacity: 1;"></line><line x1="244.93693947887755" y1="0" x2="244.93693947887755" y2="6" style="fill: none; stroke: rgb(0, 0, 0); stroke-width: 1px; opacity: 1;"></line><line x1="295.5614872174387" y1="0" x2="295.5614872174387" y2="6" style="fill: none; stroke: rgb(0, 0, 0); stroke-width: 1px; opacity: 1;"></line><line x1="343.443374968887" y1="0" x2="343.443374968887" y2="6" style="fill: none; stroke: rgb(0, 0, 0); stroke-width: 1px; opacity: 1;"></line><line x1="388.9852687496129" y1="0" x2="388.9852687496129" y2="6" style="fill: none; stroke: rgb(0, 0, 0); stroke-width: 1px; opacity: 1;"></line><line x1="432.5" y1="0" x2="432.5" y2="6" style="fill: none; stroke: rgb(0, 0, 0); stroke-width: 1px; opacity: 1;"></line></g><g id="g68" class="type-rule" style="pointer-events: none;"></g><g id="g69" class="type-text"><text x="0.5" y="9" text-anchor="middle" dy=".9em" style="font-style: normal; font-variant: normal; font-weight: normal; font-size: 11px; line-height: normal; font-family: sans-serif; fill: rgb(0, 0, 0); opacity: 1;">2.0</text><text x="70.15456852550082" y="9" text-anchor="middle" dy=".9em" style="font-style: normal; font-variant: normal; font-weight: normal; font-size: 11px; line-height: normal; font-family: sans-serif; fill: rgb(0, 0, 0); opacity: 1;">2.5</text><text x="133.1271119945885" y="9" text-anchor="middle" dy=".9em" style="font-style: normal; font-variant: normal; font-weight: normal; font-size: 11px; line-height: normal; font-family: sans-serif; fill: rgb(0, 0, 0); opacity: 1;">3.0</text><text x="191.036342215329" y="9" text-anchor="middle" dy=".9em" style="font-style: normal; font-variant: normal; font-weight: normal; font-size: 11px; line-height: normal; font-family: sans-serif; fill: rgb(0, 0, 0); opacity: 1;">3.5</text><text x="244.93693947887755" y="9" text-anchor="middle" dy=".9em" style="font-style: normal; font-variant: normal; font-weight: normal; font-size: 11px; line-height: normal; font-family: sans-serif; fill: rgb(0, 0, 0); opacity: 1;">4.0</text><text x="295.5614872174387" y="9" text-anchor="middle" dy=".9em" style="font-style: normal; font-variant: normal; font-weight: normal; font-size: 11px; line-height: normal; font-family: sans-serif; fill: rgb(0, 0, 0); opacity: 1;">4.5</text><text x="343.443374968887" y="9" text-anchor="middle" dy=".9em" style="font-style: normal; font-variant: normal; font-weight: normal; font-size: 11px; line-height: normal; font-family: sans-serif; fill: rgb(0, 0, 0); opacity: 1;">5.0</text><text x="388.9852687496129" y="9" text-anchor="middle" dy=".9em" style="font-style: normal; font-variant: normal; font-weight: normal; font-size: 11px; line-height: normal; font-family: sans-serif; fill: rgb(0, 0, 0); opacity: 1;">5.5</text><text x="432.5" y="9" text-anchor="middle" dy=".9em" style="font-style: normal; font-variant: normal; font-weight: normal; font-size: 11px; line-height: normal; font-family: sans-serif; fill: rgb(0, 0, 0); opacity: 1;">6.0</text></g><g id="g70" class="type-path" style="pointer-events: none;"><path transform="translate(0.5,0.5)" d="M0,6V0H432V6" style="fill: none; stroke: rgb(0, 0, 0); stroke-width: 1px;"></path></g><g id="g71" class="type-text"><text x="216" y="35" text-anchor="middle" dy=".35em" style="font-weight: bold; font-style: normal; font-variant: normal; font-size: 11px; line-height: normal; font-family: sans-serif; fill: rgb(0, 0, 0);">sqrt(Tree Size)</text></g></g></g><g id="g72" class="type-group"><g transform="translate(0,0)"><rect class="background" width="0" height="0" style="pointer-events: none; fill: none;"></rect><g id="g73" class="type-rule" style="pointer-events: none;"><line x1="0" y1="369.43560580600456" x2="432" y2="369.43560580600456" style="fill: none; stroke: rgb(216, 216, 216); stroke-width: 1px; opacity: 1;"></line><line x1="0" y1="340.7537906793976" x2="432" y2="340.7537906793976" style="fill: none; stroke: rgb(216, 216, 216); stroke-width: 1px; opacity: 1;"></line><line x1="0" y1="312.0719755527906" x2="432" y2="312.0719755527906" style="fill: none; stroke: rgb(216, 216, 216); stroke-width: 1px; opacity: 1;"></line><line x1="0" y1="283.39016042618374" x2="432" y2="283.39016042618374" style="fill: none; stroke: rgb(216, 216, 216); stroke-width: 1px; opacity: 1;"></line><line x1="0" y1="254.70834529957676" x2="432" y2="254.70834529957676" style="fill: none; stroke: rgb(216, 216, 216); stroke-width: 1px; opacity: 1;"></line><line x1="0" y1="226.02653017296979" x2="432" y2="226.02653017296979" style="fill: none; stroke: rgb(216, 216, 216); stroke-width: 1px; opacity: 1;"></line><line x1="0" y1="197.34471504636292" x2="432" y2="197.34471504636292" style="fill: none; stroke: rgb(216, 216, 216); stroke-width: 1px; opacity: 1;"></line><line x1="0" y1="168.66289991975592" x2="432" y2="168.66289991975592" style="fill: none; stroke: rgb(216, 216, 216); stroke-width: 1px; opacity: 1;"></line><line x1="0" y1="139.98108479314897" x2="432" y2="139.98108479314897" style="fill: none; stroke: rgb(216, 216, 216); stroke-width: 1px; opacity: 1;"></line><line x1="0" y1="111.2992696665421" x2="432" y2="111.2992696665421" style="fill: none; stroke: rgb(216, 216, 216); stroke-width: 1px; opacity: 1;"></line><line x1="0" y1="82.61745453993512" x2="432" y2="82.61745453993512" style="fill: none; stroke: rgb(216, 216, 216); stroke-width: 1px; opacity: 1;"></line><line x1="0" y1="53.93563941332815" x2="432" y2="53.93563941332815" style="fill: none; stroke: rgb(216, 216, 216); stroke-width: 1px; opacity: 1;"></line><line x1="0" y1="25.253824286721283" x2="432" y2="25.253824286721283" style="fill: none; stroke: rgb(216, 216, 216); stroke-width: 1px; opacity: 1;"></line></g><g id="g74" class="type-rule" style="pointer-events: none;"><line x1="-6" y1="369.43560580600456" x2="0" y2="369.43560580600456" style="fill: none; stroke: rgb(0, 0, 0); stroke-width: 1px; opacity: 1;"></line><line x1="-6" y1="340.7537906793976" x2="0" y2="340.7537906793976" style="fill: none; stroke: rgb(0, 0, 0); stroke-width: 1px; opacity: 1;"></line><line x1="-6" y1="312.0719755527906" x2="0" y2="312.0719755527906" style="fill: none; stroke: rgb(0, 0, 0); stroke-width: 1px; opacity: 1;"></line><line x1="-6" y1="283.39016042618374" x2="0" y2="283.39016042618374" style="fill: none; stroke: rgb(0, 0, 0); stroke-width: 1px; opacity: 1;"></line><line x1="-6" y1="254.70834529957676" x2="0" y2="254.70834529957676" style="fill: none; stroke: rgb(0, 0, 0); stroke-width: 1px; opacity: 1;"></line><line x1="-6" y1="226.02653017296979" x2="0" y2="226.02653017296979" style="fill: none; stroke: rgb(0, 0, 0); stroke-width: 1px; opacity: 1;"></line><line x1="-6" y1="197.34471504636292" x2="0" y2="197.34471504636292" style="fill: none; stroke: rgb(0, 0, 0); stroke-width: 1px; opacity: 1;"></line><line x1="-6" y1="168.66289991975592" x2="0" y2="168.66289991975592" style="fill: none; stroke: rgb(0, 0, 0); stroke-width: 1px; opacity: 1;"></line><line x1="-6" y1="139.98108479314897" x2="0" y2="139.98108479314897" style="fill: none; stroke: rgb(0, 0, 0); stroke-width: 1px; opacity: 1;"></line><line x1="-6" y1="111.2992696665421" x2="0" y2="111.2992696665421" style="fill: none; stroke: rgb(0, 0, 0); stroke-width: 1px; opacity: 1;"></line><line x1="-6" y1="82.61745453993512" x2="0" y2="82.61745453993512" style="fill: none; stroke: rgb(0, 0, 0); stroke-width: 1px; opacity: 1;"></line><line x1="-6" y1="53.93563941332815" x2="0" y2="53.93563941332815" style="fill: none; stroke: rgb(0, 0, 0); stroke-width: 1px; opacity: 1;"></line><line x1="-6" y1="25.253824286721283" x2="0" y2="25.253824286721283" style="fill: none; stroke: rgb(0, 0, 0); stroke-width: 1px; opacity: 1;"></line></g><g id="g75" class="type-rule" style="pointer-events: none;"></g><g id="g76" class="type-text"><text x="-9" y="369.43560580600456" text-anchor="end" dy=".35em" style="font-style: normal; font-variant: normal; font-weight: normal; font-size: 11px; line-height: normal; font-family: sans-serif; fill: rgb(0, 0, 0); opacity: 1;">0.24</text><text x="-9" y="340.7537906793976" text-anchor="end" dy=".35em" style="font-style: normal; font-variant: normal; font-weight: normal; font-size: 11px; line-height: normal; font-family: sans-serif; fill: rgb(0, 0, 0); opacity: 1;">0.26</text><text x="-9" y="312.0719755527906" text-anchor="end" dy=".35em" style="font-style: normal; font-variant: normal; font-weight: normal; font-size: 11px; line-height: normal; font-family: sans-serif; fill: rgb(0, 0, 0); opacity: 1;">0.28</text><text x="-9" y="283.39016042618374" text-anchor="end" dy=".35em" style="font-style: normal; font-variant: normal; font-weight: normal; font-size: 11px; line-height: normal; font-family: sans-serif; fill: rgb(0, 0, 0); opacity: 1;">0.30</text><text x="-9" y="254.70834529957676" text-anchor="end" dy=".35em" style="font-style: normal; font-variant: normal; font-weight: normal; font-size: 11px; line-height: normal; font-family: sans-serif; fill: rgb(0, 0, 0); opacity: 1;">0.32</text><text x="-9" y="226.02653017296979" text-anchor="end" dy=".35em" style="font-style: normal; font-variant: normal; font-weight: normal; font-size: 11px; line-height: normal; font-family: sans-serif; fill: rgb(0, 0, 0); opacity: 1;">0.34</text><text x="-9" y="197.34471504636292" text-anchor="end" dy=".35em" style="font-style: normal; font-variant: normal; font-weight: normal; font-size: 11px; line-height: normal; font-family: sans-serif; fill: rgb(0, 0, 0); opacity: 1;">0.36</text><text x="-9" y="168.66289991975592" text-anchor="end" dy=".35em" style="font-style: normal; font-variant: normal; font-weight: normal; font-size: 11px; line-height: normal; font-family: sans-serif; fill: rgb(0, 0, 0); opacity: 1;">0.38</text><text x="-9" y="139.98108479314897" text-anchor="end" dy=".35em" style="font-style: normal; font-variant: normal; font-weight: normal; font-size: 11px; line-height: normal; font-family: sans-serif; fill: rgb(0, 0, 0); opacity: 1;">0.40</text><text x="-9" y="111.2992696665421" text-anchor="end" dy=".35em" style="font-style: normal; font-variant: normal; font-weight: normal; font-size: 11px; line-height: normal; font-family: sans-serif; fill: rgb(0, 0, 0); opacity: 1;">0.42</text><text x="-9" y="82.61745453993512" text-anchor="end" dy=".35em" style="font-style: normal; font-variant: normal; font-weight: normal; font-size: 11px; line-height: normal; font-family: sans-serif; fill: rgb(0, 0, 0); opacity: 1;">0.44</text><text x="-9" y="53.93563941332815" text-anchor="end" dy=".35em" style="font-style: normal; font-variant: normal; font-weight: normal; font-size: 11px; line-height: normal; font-family: sans-serif; fill: rgb(0, 0, 0); opacity: 1;">0.46</text><text x="-9" y="25.253824286721283" text-anchor="end" dy=".35em" style="font-style: normal; font-variant: normal; font-weight: normal; font-size: 11px; line-height: normal; font-family: sans-serif; fill: rgb(0, 0, 0); opacity: 1;">0.48</text></g><g id="g77" class="type-path" style="pointer-events: none;"><path transform="translate(0.5,0.5)" d="M-6,0H0V384H-6" style="fill: none; stroke: rgb(0, 0, 0); stroke-width: 1px;"></path></g><g id="g78" class="type-text"><text x="-35" y="192" text-anchor="middle" transform="rotate(-90 -35,192)" dy=".35em" style="font-weight: bold; font-style: normal; font-variant: normal; font-size: 11px; line-height: normal; font-family: sans-serif; fill: rgb(0, 0, 0);">Error Rate</text></g></g></g><g id="g79" class="type-symbol"><path transform="translate(432,366.5454545454535)" d="M0,2.5231325220201604A2.5231325220201604,2.5231325220201604 0 1,1 0,-2.5231325220201604A2.5231325220201604,2.5231325220201604 0 1,1 0,2.5231325220201604Z" style="fill: rgb(31, 119, 180); stroke: rgb(255, 255, 255); stroke-width: 1px;"></path><path transform="translate(244.43693947887755,164.0404371951367)" d="M0,5.376974432931673A5.376974432931673,5.376974432931673 0 1,1 0,-5.376974432931673A5.376974432931673,5.376974432931673 0 1,1 0,5.376974432931673Z" style="fill: rgb(255, 127, 14); stroke: rgb(255, 255, 255); stroke-width: 1px;"></path><path transform="translate(132.6271119945885,115.14999791364016)" d="M0,3.7451753061926225A3.7451753061926225,3.7451753061926225 0 1,1 0,-3.7451753061926225A3.7451753061926225,3.7451753061926225 0 1,1 0,3.7451753061926225Z" style="fill: rgb(31, 119, 180); stroke: rgb(255, 255, 255); stroke-width: 1px;"></path><path transform="translate(0,83.35779942013801)" d="M0,5.365411033670357A5.365411033670357,5.365411033670357 0 1,1 0,-5.365411033670357A5.365411033670357,5.365411033670357 0 1,1 0,5.365411033670357Z" style="fill: rgb(255, 127, 14); stroke: rgb(255, 255, 255); stroke-width: 1px;"></path><path transform="translate(0,82.86556554456348)" d="M0,5.640060774171752A5.640060774171752,5.640060774171752 0 1,1 0,-5.640060774171752A5.640060774171752,5.640060774171752 0 1,1 0,5.640060774171752Z" style="fill: rgb(31, 119, 180); stroke: rgb(255, 255, 255); stroke-width: 1px;"></path><path transform="translate(0,70.07699522377135)" d="M0,4.014641871819281A4.014641871819281,4.014641871819281 0 1,1 0,-4.014641871819281A4.014641871819281,4.014641871819281 0 1,1 0,4.014641871819281Z" style="fill: rgb(31, 119, 180); stroke: rgb(255, 255, 255); stroke-width: 1px;"></path><path transform="translate(132.6271119945885,64.37412927553987)" d="M0,5.638225115612416A5.638225115612416,5.638225115612416 0 1,1 0,-5.638225115612416A5.638225115612416,5.638225115612416 0 1,1 0,5.638225115612416Z" style="fill: rgb(31, 119, 180); stroke: rgb(255, 255, 255); stroke-width: 1px;"></path><path transform="translate(0,50.55238611471748)" d="M0,5.641895835477563A5.641895835477563,5.641895835477563 0 1,1 0,-5.641895835477563A5.641895835477563,5.641895835477563 0 1,1 0,5.641895835477563Z" style="fill: rgb(31, 119, 180); stroke: rgb(255, 255, 255); stroke-width: 1px;"></path><path transform="translate(0,41.60867749842845)" d="M0,5.632714550573107A5.632714550573107,5.632714550573107 0 1,1 0,-5.632714550573107A5.632714550573107,5.632714550573107 0 1,1 0,5.632714550573107Z" style="fill: rgb(31, 119, 180); stroke: rgb(255, 255, 255); stroke-width: 1px;"></path><path transform="translate(0,35.608461703878675)" d="M0,5.627198589187461A5.627198589187461,5.627198589187461 0 1,1 0,-5.627198589187461A5.627198589187461,5.627198589187461 0 1,1 0,5.627198589187461Z" style="fill: rgb(31, 119, 180); stroke: rgb(255, 255, 255); stroke-width: 1px;"></path><path transform="translate(0,30.3024430979562)" d="M0,5.3788992493287235A5.3788992493287235,5.3788992493287235 0 1,1 0,-5.3788992493287235A5.3788992493287235,5.3788992493287235 0 1,1 0,5.3788992493287235Z" style="fill: rgb(255, 127, 14); stroke: rgb(255, 255, 255); stroke-width: 1px;"></path><path transform="translate(0,26.78625938005098)" d="M0,5.606926971153004A5.606926971153004,5.606926971153004 0 1,1 0,-5.606926971153004A5.606926971153004,5.606926971153004 0 1,1 0,5.606926971153004Z" style="fill: rgb(31, 119, 180); stroke: rgb(255, 255, 255); stroke-width: 1px;"></path><path transform="translate(0,24.506567259768303)" d="M0,5.376974432931673A5.376974432931673,5.376974432931673 0 1,1 0,-5.376974432931673A5.376974432931673,5.376974432931673 0 1,1 0,5.376974432931673Z" style="fill: rgb(255, 127, 14); stroke: rgb(255, 255, 255); stroke-width: 1px;"></path><path transform="translate(0,18.43608388904039)" d="M0,5.367339996894161A5.367339996894161,5.367339996894161 0 1,1 0,-5.367339996894161A5.367339996894161,5.367339996894161 0 1,1 0,5.367339996894161Z" style="fill: rgb(255, 127, 14); stroke: rgb(255, 255, 255); stroke-width: 1px;"></path><path transform="translate(0,17.45454545454504)" d="M0,5.451538704943884A5.451538704943884,5.451538704943884 0 1,1 0,-5.451538704943884A5.451538704943884,5.451538704943884 0 1,1 0,5.451538704943884Z" style="fill: rgb(31, 119, 180); stroke: rgb(255, 255, 255); stroke-width: 1px;"></path></g><g id="g80" class="type-text"><text x="439" y="369.5454545454535" text-anchor="start" style="font-style: normal; font-variant: normal; font-weight: normal; font-size: 12px; line-height: normal; font-family: sans-serif; fill: rgb(51, 51, 51);">Hyperthyroidism</text><text x="251.43693947887755" y="167.0404371951367" text-anchor="start" style="font-style: normal; font-variant: normal; font-weight: normal; font-size: 12px; line-height: normal; font-family: sans-serif; fill: rgb(51, 51, 51);">size_(139,164]</text><text x="139.6271119945885" y="118.14999791364016" text-anchor="start" style="font-style: normal; font-variant: normal; font-weight: normal; font-size: 12px; line-height: normal; font-family: sans-serif; fill: rgb(51, 51, 51);">pain-legs_2</text><text x="7" y="86.35779942013801" text-anchor="start" style="font-style: normal; font-variant: normal; font-weight: normal; font-size: 12px; line-height: normal; font-family: sans-serif; fill: rgb(51, 51, 51);">heaviness_1 - not at all</text><text x="7" y="85.86556554456348" text-anchor="start" style="font-style: normal; font-variant: normal; font-weight: normal; font-size: 12px; line-height: normal; font-family: sans-serif; fill: rgb(51, 51, 51);"></text><text x="7" y="73.07699522377135" text-anchor="start" style="font-style: normal; font-variant: normal; font-weight: normal; font-size: 12px; line-height: normal; font-family: sans-serif; fill: rgb(51, 51, 51);"></text><text x="139.6271119945885" y="67.37412927553987" text-anchor="start" style="font-style: normal; font-variant: normal; font-weight: normal; font-size: 12px; line-height: normal; font-family: sans-serif; fill: rgb(51, 51, 51);">Age_(64,90]</text><text x="7" y="53.55238611471748" text-anchor="start" style="font-style: normal; font-variant: normal; font-weight: normal; font-size: 12px; line-height: normal; font-family: sans-serif; fill: rgb(51, 51, 51);">size_(177,202]</text><text x="7" y="44.60867749842845" text-anchor="start" style="font-style: normal; font-variant: normal; font-weight: normal; font-size: 12px; line-height: normal; font-family: sans-serif; fill: rgb(51, 51, 51);"></text><text x="7" y="38.608461703878675" text-anchor="start" style="font-style: normal; font-variant: normal; font-weight: normal; font-size: 12px; line-height: normal; font-family: sans-serif; fill: rgb(51, 51, 51);">tension_1 - not at all</text><text x="7" y="33.3024430979562" text-anchor="start" style="font-style: normal; font-variant: normal; font-weight: normal; font-size: 12px; line-height: normal; font-family: sans-serif; fill: rgb(51, 51, 51);"></text><text x="7" y="29.78625938005098" text-anchor="start" style="font-style: normal; font-variant: normal; font-weight: normal; font-size: 12px; line-height: normal; font-family: sans-serif; fill: rgb(51, 51, 51);"></text><text x="7" y="27.506567259768303" text-anchor="start" style="font-style: normal; font-variant: normal; font-weight: normal; font-size: 12px; line-height: normal; font-family: sans-serif; fill: rgb(51, 51, 51);"></text><text x="7" y="21.43608388904039" text-anchor="start" style="font-style: normal; font-variant: normal; font-weight: normal; font-size: 12px; line-height: normal; font-family: sans-serif; fill: rgb(51, 51, 51);">cold-hypersensitive_1 - not at all</text><text x="7" y="20.45454545454504" text-anchor="start" style="font-style: normal; font-variant: normal; font-weight: normal; font-size: 12px; line-height: normal; font-family: sans-serif; fill: rgb(51, 51, 51);"></text></g><g id="g81" class="type-group"><g transform="translate(539.5,0.5)"><rect class="background" width="52" height="46" style="pointer-events: none; fill: none;"></rect><g id="g82" class="type-text" style="pointer-events: none;"><text x="3" y="3" text-anchor="start" dy=".9em" style="font-weight: bold; font-style: normal; font-variant: normal; font-size: 11px; line-height: normal; font-family: sans-serif; fill: rgb(0, 0, 0); opacity: 1;">group</text></g><g id="g83" class="type-symbol" style="pointer-events: none;"><path transform="translate(7.5,23)" d="M0,3.989422804014327A3.989422804014327,3.989422804014327 0 1,1 0,-3.989422804014327A3.989422804014327,3.989422804014327 0 1,1 0,3.989422804014327Z" style="fill: rgb(31, 119, 180); stroke: rgb(136, 136, 136); stroke-width: 1px; opacity: 1;"></path><path transform="translate(7.5,38)" d="M0,3.989422804014327A3.989422804014327,3.989422804014327 0 1,1 0,-3.989422804014327A3.989422804014327,3.989422804014327 0 1,1 0,3.989422804014327Z" style="fill: rgb(255, 127, 14); stroke: rgb(136, 136, 136); stroke-width: 1px; opacity: 1;"></path></g><g id="g84" class="type-text" style="pointer-events: none;"><text x="16" y="23" text-anchor="start" dy=".35em" style="font-style: normal; font-variant: normal; font-weight: normal; font-size: 10px; line-height: normal; font-family: sans-serif; fill: rgb(0, 0, 0); opacity: 1;">male</text><text x="16" y="38" text-anchor="start" dy=".35em" style="font-style: normal; font-variant: normal; font-weight: normal; font-size: 10px; line-height: normal; font-family: sans-serif; fill: rgb(0, 0, 0); opacity: 1;">female</text></g></g></g></g></g></g></svg>