<svg class="marks" width="726" height="438" xmlns="http://www.w3.org/2000/svg"><g transform="translate(46,6)"><g id="g148" class="type-group"><g transform="translate(0,0)"><rect class="background" width="432" height="384" style="pointer-events: none; fill: none;"></rect><g id="g149" class="type-group"><g transform="translate(0,384)"><rect class="background" width="0" height="0" style="pointer-events: none; fill: none;"></rect><g id="g150" class="type-rule" style="pointer-events: none;"><line x1="0.5" y1="-384" x2="0.5" y2="0" style="fill: none; stroke: rgb(216, 216, 216); stroke-width: 1px; opacity: 1;"></line><line x1="88.24268815003731" y1="-384" x2="88.24268815003731" y2="0" style="fill: none; stroke: rgb(216, 216, 216); stroke-width: 1px; opacity: 1;"></line><line x1="167.56814175039895" y1="-384" x2="167.56814175039895" y2="0" style="fill: none; stroke: rgb(216, 216, 216); stroke-width: 1px; opacity: 1;"></line><line x1="240.51542483358872" y1="-384" x2="240.51542483358872" y2="0" style="fill: none; stroke: rgb(216, 216, 216); stroke-width: 1px; opacity: 1;"></line><line x1="308.41310041914414" y1="-384" x2="308.41310041914414" y2="0" style="fill: none; stroke: rgb(216, 216, 216); stroke-width: 1px; opacity: 1;"></line><line x1="372.1839915321232" y1="-384" x2="372.1839915321232" y2="0" style="fill: none; stroke: rgb(216, 216, 216); stroke-width: 1px; opacity: 1;"></line><line x1="432.5" y1="-384" x2="432.5" y2="0" style="fill: none; stroke: rgb(216, 216, 216); stroke-width: 1px; opacity: 1;"></line></g><g id="g151" class="type-rule" style="pointer-events: none;"><line x1="0.5" y1="0" x2="0.5" y2="6" style="fill: none; stroke: rgb(0, 0, 0); stroke-width: 1px; opacity: 1;"></line><line x1="88.24268815003731" y1="0" x2="88.24268815003731" y2="6" style="fill: none; stroke: rgb(0, 0, 0); stroke-width: 1px; opacity: 1;"></line><line x1="167.56814175039895" y1="0" x2="167.56814175039895" y2="6" style="fill: none; stroke: rgb(0, 0, 0); stroke-width: 1px; opacity: 1;"></line><line x1="240.51542483358872" y1="0" x2="240.51542483358872" y2="6" style="fill: none; stroke: rgb(0, 0, 0); stroke-width: 1px; opacity: 1;"></line><line x1="308.41310041914414" y1="0" x2="308.41310041914414" y2="6" style="fill: none; stroke: rgb(0, 0, 0); stroke-width: 1px; opacity: 1;"></line><line x1="372.1839915321232" y1="0" x2="372.1839915321232" y2="6" style="fill: none; stroke: rgb(0, 0, 0); stroke-width: 1px; opacity: 1;"></line><line x1="432.5" y1="0" x2="432.5" y2="6" style="fill: none; stroke: rgb(0, 0, 0); stroke-width: 1px; opacity: 1;"></line></g><g id="g152" class="type-rule" style="pointer-events: none;"></g><g id="g153" class="type-text"><text x="0.5" y="9" text-anchor="middle" dy=".9em" style="font-style: normal; font-variant: normal; font-weight: normal; font-size: 11px; line-height: normal; font-family: sans-serif; fill: rgb(0, 0, 0); opacity: 1;">2.0</text><text x="88.24268815003731" y="9" text-anchor="middle" dy=".9em" style="font-style: normal; font-variant: normal; font-weight: normal; font-size: 11px; line-height: normal; font-family: sans-serif; fill: rgb(0, 0, 0); opacity: 1;">2.5</text><text x="167.56814175039895" y="9" text-anchor="middle" dy=".9em" style="font-style: normal; font-variant: normal; font-weight: normal; font-size: 11px; line-height: normal; font-family: sans-serif; fill: rgb(0, 0, 0); opacity: 1;">3.0</text><text x="240.51542483358872" y="9" text-anchor="middle" dy=".9em" style="font-style: normal; font-variant: normal; font-weight: normal; font-size: 11px; line-height: normal; font-family: sans-serif; fill: rgb(0, 0, 0); opacity: 1;">3.5</text><text x="308.41310041914414" y="9" text-anchor="middle" dy=".9em" style="font-style: normal; font-variant: normal; font-weight: normal; font-size: 11px; line-height: normal; font-family: sans-serif; fill: rgb(0, 0, 0); opacity: 1;">4.0</text><text x="372.1839915321232" y="9" text-anchor="middle" dy=".9em" style="font-style: normal; font-variant: normal; font-weight: normal; font-size: 11px; line-height: normal; font-family: sans-serif; fill: rgb(0, 0, 0); opacity: 1;">4.5</text><text x="432.5" y="9" text-anchor="middle" dy=".9em" style="font-style: normal; font-variant: normal; font-weight: normal; font-size: 11px; line-height: normal; font-family: sans-serif; fill: rgb(0, 0, 0); opacity: 1;">5.0</text></g><g id="g154" class="type-path" style="pointer-events: none;"><path transform="translate(0.5,0.5)" d="M0,6V0H432V6" style="fill: none; stroke: rgb(0, 0, 0); stroke-width: 1px;"></path></g><g id="g155" class="type-text"><text x="216" y="35" text-anchor="middle" dy=".35em" style="font-weight: bold; font-style: normal; font-variant: normal; font-size: 11px; line-height: normal; font-family: sans-serif; fill: rgb(0, 0, 0);">sqrt(Tree Size)</text></g></g></g><g id="g156" class="type-group"><g transform="translate(0,0)"><rect class="background" width="0" height="0" style="pointer-events: none; fill: none;"></rect><g id="g157" class="type-rule" style="pointer-events: none;"><line x1="0" y1="366.046099716759" x2="432" y2="366.046099716759" style="fill: none; stroke: rgb(216, 216, 216); stroke-width: 1px; opacity: 1;"></line><line x1="0" y1="320.31952267693737" x2="432" y2="320.31952267693737" style="fill: none; stroke: rgb(216, 216, 216); stroke-width: 1px; opacity: 1;"></line><line x1="0" y1="274.59294563711586" x2="432" y2="274.59294563711586" style="fill: none; stroke: rgb(216, 216, 216); stroke-width: 1px; opacity: 1;"></line><line x1="0" y1="228.86636859729424" x2="432" y2="228.86636859729424" style="fill: none; stroke: rgb(216, 216, 216); stroke-width: 1px; opacity: 1;"></line><line x1="0" y1="183.13979155747256" x2="432" y2="183.13979155747256" style="fill: none; stroke: rgb(216, 216, 216); stroke-width: 1px; opacity: 1;"></line><line x1="0" y1="137.41321451765106" x2="432" y2="137.41321451765106" style="fill: none; stroke: rgb(216, 216, 216); stroke-width: 1px; opacity: 1;"></line><line x1="0" y1="91.68663747782944" x2="432" y2="91.68663747782944" style="fill: none; stroke: rgb(216, 216, 216); stroke-width: 1px; opacity: 1;"></line><line x1="0" y1="45.960060438007815" x2="432" y2="45.960060438007815" style="fill: none; stroke: rgb(216, 216, 216); stroke-width: 1px; opacity: 1;"></line></g><g id="g158" class="type-rule" style="pointer-events: none;"><line x1="-6" y1="366.046099716759" x2="0" y2="366.046099716759" style="fill: none; stroke: rgb(0, 0, 0); stroke-width: 1px; opacity: 1;"></line><line x1="-6" y1="320.31952267693737" x2="0" y2="320.31952267693737" style="fill: none; stroke: rgb(0, 0, 0); stroke-width: 1px; opacity: 1;"></line><line x1="-6" y1="274.59294563711586" x2="0" y2="274.59294563711586" style="fill: none; stroke: rgb(0, 0, 0); stroke-width: 1px; opacity: 1;"></line><line x1="-6" y1="228.86636859729424" x2="0" y2="228.86636859729424" style="fill: none; stroke: rgb(0, 0, 0); stroke-width: 1px; opacity: 1;"></line><line x1="-6" y1="183.13979155747256" x2="0" y2="183.13979155747256" style="fill: none; stroke: rgb(0, 0, 0); stroke-width: 1px; opacity: 1;"></line><line x1="-6" y1="137.41321451765106" x2="0" y2="137.41321451765106" style="fill: none; stroke: rgb(0, 0, 0); stroke-width: 1px; opacity: 1;"></line><line x1="-6" y1="91.68663747782944" x2="0" y2="91.68663747782944" style="fill: none; stroke: rgb(0, 0, 0); stroke-width: 1px; opacity: 1;"></line><line x1="-6" y1="45.960060438007815" x2="0" y2="45.960060438007815" style="fill: none; stroke: rgb(0, 0, 0); stroke-width: 1px; opacity: 1;"></line></g><g id="g159" class="type-rule" style="pointer-events: none;"></g><g id="g160" class="type-text"><text x="-9" y="366.046099716759" text-anchor="end" dy=".35em" style="font-style: normal; font-variant: normal; font-weight: normal; font-size: 11px; line-height: normal; font-family: sans-serif; fill: rgb(0, 0, 0); opacity: 1;">0.32</text><text x="-9" y="320.31952267693737" text-anchor="end" dy=".35em" style="font-style: normal; font-variant: normal; font-weight: normal; font-size: 11px; line-height: normal; font-family: sans-serif; fill: rgb(0, 0, 0); opacity: 1;">0.34</text><text x="-9" y="274.59294563711586" text-anchor="end" dy=".35em" style="font-style: normal; font-variant: normal; font-weight: normal; font-size: 11px; line-height: normal; font-family: sans-serif; fill: rgb(0, 0, 0); opacity: 1;">0.36</text><text x="-9" y="228.86636859729424" text-anchor="end" dy=".35em" style="font-style: normal; font-variant: normal; font-weight: normal; font-size: 11px; line-height: normal; font-family: sans-serif; fill: rgb(0, 0, 0); opacity: 1;">0.38</text><text x="-9" y="183.13979155747256" text-anchor="end" dy=".35em" style="font-style: normal; font-variant: normal; font-weight: normal; font-size: 11px; line-height: normal; font-family: sans-serif; fill: rgb(0, 0, 0); opacity: 1;">0.40</text><text x="-9" y="137.41321451765106" text-anchor="end" dy=".35em" style="font-style: normal; font-variant: normal; font-weight: normal; font-size: 11px; line-height: normal; font-family: sans-serif; fill: rgb(0, 0, 0); opacity: 1;">0.42</text><text x="-9" y="91.68663747782944" text-anchor="end" dy=".35em" style="font-style: normal; font-variant: normal; font-weight: normal; font-size: 11px; line-height: normal; font-family: sans-serif; fill: rgb(0, 0, 0); opacity: 1;">0.44</text><text x="-9" y="45.960060438007815" text-anchor="end" dy=".35em" style="font-style: normal; font-variant: normal; font-weight: normal; font-size: 11px; line-height: normal; font-family: sans-serif; fill: rgb(0, 0, 0); opacity: 1;">0.46</text></g><g id="g161" class="type-path" style="pointer-events: none;"><path transform="translate(0.5,0.5)" d="M-6,0H0V384H-6" style="fill: none; stroke: rgb(0, 0, 0); stroke-width: 1px;"></path></g><g id="g162" class="type-text"><text x="-35" y="192" text-anchor="middle" transform="rotate(-90 -35,192)" dy=".35em" style="font-weight: bold; font-style: normal; font-variant: normal; font-size: 11px; line-height: normal; font-family: sans-serif; fill: rgb(0, 0, 0);">Error Rate</text></g></g></g><g id="g163" class="type-symbol"><path transform="translate(167.06814175039895,366.5454545454554)" d="M0,3.140680530549882A3.140680530549882,3.140680530549882 0 1,1 0,-3.140680530549882A3.140680530549882,3.140680530549882 0 1,1 0,3.140680530549882Z" style="fill: rgb(255, 127, 14); stroke: rgb(255, 255, 255); stroke-width: 1px;"></path><path transform="translate(307.91310041914414,302.5269371338262)" d="M0,2.8932617417036237A2.8932617417036237,2.8932617417036237 0 1,1 0,-2.8932617417036237A2.8932617417036237,2.8932617417036237 0 1,1 0,2.8932617417036237Z" style="fill: rgb(44, 160, 44); stroke: rgb(255, 255, 255); stroke-width: 1px;"></path><path transform="translate(307.91310041914414,283.941948071608)" d="M0,3.350943316531044A3.350943316531044,3.350943316531044 0 1,1 0,-3.350943316531044A3.350943316531044,3.350943316531044 0 1,1 0,3.350943316531044Z" style="fill: rgb(31, 119, 180); stroke: rgb(255, 255, 255); stroke-width: 1px;"></path><path transform="translate(307.91310041914414,253.5379699004643)" d="M0,2.749641117464455A2.749641117464455,2.749641117464455 0 1,1 0,-2.749641117464455A2.749641117464455,2.749641117464455 0 1,1 0,2.749641117464455Z" style="fill: rgb(44, 160, 44); stroke: rgb(255, 255, 255); stroke-width: 1px;"></path><path transform="translate(167.06814175039895,201.44015984142348)" d="M0,5.437857601056556A5.437857601056556,5.437857601056556 0 1,1 0,-5.437857601056556A5.437857601056556,5.437857601056556 0 1,1 0,5.437857601056556Z" style="fill: rgb(255, 127, 14); stroke: rgb(255, 255, 255); stroke-width: 1px;"></path><path transform="translate(167.06814175039895,185.20760750627477)" d="M0,3.8541485901874055A3.8541485901874055,3.8541485901874055 0 1,1 0,-3.8541485901874055A3.8541485901874055,3.8541485901874055 0 1,1 0,3.8541485901874055Z" style="fill: rgb(44, 160, 44); stroke: rgb(255, 255, 255); stroke-width: 1px;"></path><path transform="translate(0,166.92741834582006)" d="M0,5.013403815131428A5.013403815131428,5.013403815131428 0 1,1 0,-5.013403815131428A5.013403815131428,5.013403815131428 0 1,1 0,5.013403815131428Z" style="fill: rgb(44, 160, 44); stroke: rgb(255, 255, 255); stroke-width: 1px;"></path><path transform="translate(307.91310041914414,142.33814040845635)" d="M0,5.615372336772089A5.615372336772089,5.615372336772089 0 1,1 0,-5.615372336772089A5.615372336772089,5.615372336772089 0 1,1 0,5.615372336772089Z" style="fill: rgb(31, 119, 180); stroke: rgb(255, 255, 255); stroke-width: 1px;"></path><path transform="translate(0,132.6263479201678)" d="M0,2.531571115886184A2.531571115886184,2.531571115886184 0 1,1 0,-2.531571115886184A2.531571115886184,2.531571115886184 0 1,1 0,2.531571115886184Z" style="fill: rgb(44, 160, 44); stroke: rgb(255, 255, 255); stroke-width: 1px;"></path><path transform="translate(0,129.0406679738554)" d="M0,4.987814177261812A4.987814177261812,4.987814177261812 0 1,1 0,-4.987814177261812A4.987814177261812,4.987814177261812 0 1,1 0,4.987814177261812Z" style="fill: rgb(44, 160, 44); stroke: rgb(255, 255, 255); stroke-width: 1px;"></path><path transform="translate(167.06814175039895,120.20800551336617)" d="M0,5.641895835477563A5.641895835477563,5.641895835477563 0 1,1 0,-5.641895835477563A5.641895835477563,5.641895835477563 0 1,1 0,5.641895835477563Z" style="fill: rgb(31, 119, 180); stroke: rgb(255, 255, 255); stroke-width: 1px;"></path><path transform="translate(0,114.04992599774027)" d="M0,2.5231325220201604A2.5231325220201604,2.5231325220201604 0 1,1 0,-2.5231325220201604A2.5231325220201604,2.5231325220201604 0 1,1 0,2.5231325220201604Z" style="fill: rgb(44, 160, 44); stroke: rgb(255, 255, 255); stroke-width: 1px;"></path><path transform="translate(0,111.1152849852366)" d="M0,5.641895835477563A5.641895835477563,5.641895835477563 0 1,1 0,-5.641895835477563A5.641895835477563,5.641895835477563 0 1,1 0,5.641895835477563Z" style="fill: rgb(31, 119, 180); stroke: rgb(255, 255, 255); stroke-width: 1px;"></path><path transform="translate(0,105.42605401216082)" d="M0,2.885880959931036A2.885880959931036,2.885880959931036 0 1,1 0,-2.885880959931036A2.885880959931036,2.885880959931036 0 1,1 0,2.885880959931036Z" style="fill: rgb(255, 127, 14); stroke: rgb(255, 255, 255); stroke-width: 1px;"></path><path transform="translate(0,97.89679454624252)" d="M0,5.44569595842399A5.44569595842399,5.44569595842399 0 1,1 0,-5.44569595842399A5.44569595842399,5.44569595842399 0 1,1 0,5.44569595842399Z" style="fill: rgb(255, 127, 14); stroke: rgb(255, 255, 255); stroke-width: 1px;"></path><path transform="translate(0,93.4980270953867)" d="M0,3.312535820775926A3.312535820775926,3.312535820775926 0 1,1 0,-3.312535820775926A3.312535820775926,3.312535820775926 0 1,1 0,3.312535820775926Z" style="fill: rgb(214, 39, 40); stroke: rgb(255, 255, 255); stroke-width: 1px;"></path><path transform="translate(0,84.5589466072081)" d="M0,5.000625364915287A5.000625364915287,5.000625364915287 0 1,1 0,-5.000625364915287A5.000625364915287,5.000625364915287 0 1,1 0,5.000625364915287Z" style="fill: rgb(44, 160, 44); stroke: rgb(255, 255, 255); stroke-width: 1px;"></path><path transform="translate(0,82.3151571278114)" d="M0,5.350877898520357A5.350877898520357,5.350877898520357 0 1,1 0,-5.350877898520357A5.350877898520357,5.350877898520357 0 1,1 0,5.350877898520357Z" style="fill: rgb(214, 39, 40); stroke: rgb(255, 255, 255); stroke-width: 1px;"></path><path transform="translate(432,81.75583784137524)" d="M0,5.638114403527625A5.638114403527625,5.638114403527625 0 1,1 0,-5.638114403527625A5.638114403527625,5.638114403527625 0 1,1 0,5.638114403527625Z" style="fill: rgb(31, 119, 180); stroke: rgb(255, 255, 255); stroke-width: 1px;"></path><path transform="translate(167.06814175039895,81.12873565109783)" d="M0,4.343269841939793A4.343269841939793,4.343269841939793 0 1,1 0,-4.343269841939793A4.343269841939793,4.343269841939793 0 1,1 0,4.343269841939793Z" style="fill: rgb(255, 127, 14); stroke: rgb(255, 255, 255); stroke-width: 1px;"></path><path transform="translate(167.06814175039895,75.64097646733649)" d="M0,5.641895835477563A5.641895835477563,5.641895835477563 0 1,1 0,-5.641895835477563A5.641895835477563,5.641895835477563 0 1,1 0,5.641895835477563Z" style="fill: rgb(31, 119, 180); stroke: rgb(255, 255, 255); stroke-width: 1px;"></path><path transform="translate(307.91310041914414,72.94257039542697)" d="M0,5.3429004391479005A5.3429004391479005,5.3429004391479005 0 1,1 0,-5.3429004391479005A5.3429004391479005,5.3429004391479005 0 1,1 0,5.3429004391479005Z" style="fill: rgb(214, 39, 40); stroke: rgb(255, 255, 255); stroke-width: 1px;"></path><path transform="translate(0,63.38822328223256)" d="M0,5.577262820546578A5.577262820546578,5.577262820546578 0 1,1 0,-5.577262820546578A5.577262820546578,5.577262820546578 0 1,1 0,5.577262820546578Z" style="fill: rgb(31, 119, 180); stroke: rgb(255, 255, 255); stroke-width: 1px;"></path><path transform="translate(0,59.991978968294006)" d="M0,5.6229632457283625A5.6229632457283625,5.6229632457283625 0 1,1 0,-5.6229632457283625A5.6229632457283625,5.6229632457283625 0 1,1 0,5.6229632457283625Z" style="fill: rgb(31, 119, 180); stroke: rgb(255, 255, 255); stroke-width: 1px;"></path><path transform="translate(167.06814175039895,57.793897762909864)" d="M0,5.449610909295156A5.449610909295156,5.449610909295156 0 1,1 0,-5.449610909295156A5.449610909295156,5.449610909295156 0 1,1 0,5.449610909295156Z" style="fill: rgb(255, 127, 14); stroke: rgb(255, 255, 255); stroke-width: 1px;"></path><path transform="translate(0,56.29064408190192)" d="M0,5.00488847341752A5.00488847341752,5.00488847341752 0 1,1 0,-5.00488847341752A5.00488847341752,5.00488847341752 0 1,1 0,5.00488847341752Z" style="fill: rgb(44, 160, 44); stroke: rgb(255, 255, 255); stroke-width: 1px;"></path><path transform="translate(0,54.582910859087406)" d="M0,5.000625364915287A5.000625364915287,5.000625364915287 0 1,1 0,-5.000625364915287A5.000625364915287,5.000625364915287 0 1,1 0,5.000625364915287Z" style="fill: rgb(44, 160, 44); stroke: rgb(255, 255, 255); stroke-width: 1px;"></path><path transform="translate(167.06814175039895,51.29749580479421)" d="M0,5.3429004391479005A5.3429004391479005,5.3429004391479005 0 1,1 0,-5.3429004391479005A5.3429004391479005,5.3429004391479005 0 1,1 0,5.3429004391479005Z" style="fill: rgb(214, 39, 40); stroke: rgb(255, 255, 255); stroke-width: 1px;"></path><path transform="translate(0,50.57383477093521)" d="M0,5.449610909295156A5.449610909295156,5.449610909295156 0 1,1 0,-5.449610909295156A5.449610909295156,5.449610909295156 0 1,1 0,5.449610909295156Z" style="fill: rgb(255, 127, 14); stroke: rgb(255, 255, 255); stroke-width: 1px;"></path><path transform="translate(0,48.29974655014132)" d="M0,5.298809734308202A5.298809734308202,5.298809734308202 0 1,1 0,-5.298809734308202A5.298809734308202,5.298809734308202 0 1,1 0,5.298809734308202Z" style="fill: rgb(214, 39, 40); stroke: rgb(255, 255, 255); stroke-width: 1px;"></path><path transform="translate(0,42.32370376417737)" d="M0,5.009147953740332A5.009147953740332,5.009147953740332 0 1,1 0,-5.009147953740332A5.009147953740332,5.009147953740332 0 1,1 0,5.009147953740332Z" style="fill: rgb(44, 160, 44); stroke: rgb(255, 255, 255); stroke-width: 1px;"></path><path transform="translate(0,38.96502124207319)" d="M0,5.615372336772089A5.615372336772089,5.615372336772089 0 1,1 0,-5.615372336772089A5.615372336772089,5.615372336772089 0 1,1 0,5.615372336772089Z" style="fill: rgb(31, 119, 180); stroke: rgb(255, 255, 255); stroke-width: 1px;"></path><path transform="translate(0,30.928786652480767)" d="M0,5.453523049719529A5.453523049719529,5.453523049719529 0 1,1 0,-5.453523049719529A5.453523049719529,5.453523049719529 0 1,1 0,5.453523049719529Z" style="fill: rgb(255, 127, 14); stroke: rgb(255, 255, 255); stroke-width: 1px;"></path><path transform="translate(0,28.70903305709072)" d="M0,5.638114403527625A5.638114403527625,5.638114403527625 0 1,1 0,-5.638114403527625A5.638114403527625,5.638114403527625 0 1,1 0,5.638114403527625Z" style="fill: rgb(31, 119, 180); stroke: rgb(255, 255, 255); stroke-width: 1px;"></path><path transform="translate(0,23.339267415946665)" d="M0,5.334911050844242A5.334911050844242,5.334911050844242 0 1,1 0,-5.334911050844242A5.334911050844242,5.334911050844242 0 1,1 0,5.334911050844242Z" style="fill: rgb(214, 39, 40); stroke: rgb(255, 255, 255); stroke-width: 1px;"></path><path transform="translate(0,19.346060972618602)" d="M0,5.3429004391479005A5.3429004391479005,5.3429004391479005 0 1,1 0,-5.3429004391479005A5.3429004391479005,5.3429004391479005 0 1,1 0,5.3429004391479005Z" style="fill: rgb(214, 39, 40); stroke: rgb(255, 255, 255); stroke-width: 1px;"></path><path transform="translate(0,17.781714726032703)" d="M0,5.6229632457283625A5.6229632457283625,5.6229632457283625 0 1,1 0,-5.6229632457283625A5.6229632457283625,5.6229632457283625 0 1,1 0,5.6229632457283625Z" style="fill: rgb(31, 119, 180); stroke: rgb(255, 255, 255); stroke-width: 1px;"></path><path transform="translate(0,17.45454545454686)" d="M0,5.619169073065753A5.619169073065753,5.619169073065753 0 1,1 0,-5.619169073065753A5.619169073065753,5.619169073065753 0 1,1 0,5.619169073065753Z" style="fill: rgb(31, 119, 180); stroke: rgb(255, 255, 255); stroke-width: 1px;"></path></g><g id="g164" class="type-text"><text x="174.06814175039895" y="369.5454545454554" text-anchor="start" style="font-style: normal; font-variant: normal; font-weight: normal; font-size: 12px; line-height: normal; font-family: sans-serif; fill: rgb(51, 51, 51);">early-retirement-reason_1 - reaching retirement age</text><text x="314.91310041914414" y="305.5269371338262" text-anchor="start" style="font-style: normal; font-variant: normal; font-weight: normal; font-size: 12px; line-height: normal; font-family: sans-serif; fill: rgb(51, 51, 51);">early-retirement-reason_1 - reaching retirement age</text><text x="314.91310041914414" y="286.941948071608" text-anchor="start" style="font-style: normal; font-variant: normal; font-weight: normal; font-size: 12px; line-height: normal; font-family: sans-serif; fill: rgb(51, 51, 51);">Hyperthyroidism</text><text x="314.91310041914414" y="256.5379699004643" text-anchor="start" style="font-style: normal; font-variant: normal; font-weight: normal; font-size: 12px; line-height: normal; font-family: sans-serif; fill: rgb(51, 51, 51);">age-started-smoking_(17,19]</text><text x="174.06814175039895" y="204.44015984142348" text-anchor="start" style="font-style: normal; font-variant: normal; font-weight: normal; font-size: 12px; line-height: normal; font-family: sans-serif; fill: rgb(51, 51, 51);">nutrition-sausage_1 - Daily or almost daily</text><text x="174.06814175039895" y="188.20760750627477" text-anchor="start" style="font-style: normal; font-variant: normal; font-weight: normal; font-size: 12px; line-height: normal; font-family: sans-serif; fill: rgb(51, 51, 51);">radiating-backpain_1 - No</text><text x="7" y="169.92741834582006" text-anchor="start" style="font-style: normal; font-variant: normal; font-weight: normal; font-size: 12px; line-height: normal; font-family: sans-serif; fill: rgb(51, 51, 51);">body-fat-percent_(0.3,22.9]</text><text x="314.91310041914414" y="145.33814040845635" text-anchor="start" style="font-style: normal; font-variant: normal; font-weight: normal; font-size: 12px; line-height: normal; font-family: sans-serif; fill: rgb(51, 51, 51);">languor_1 - not at all</text><text x="7" y="135.6263479201678" text-anchor="start" style="font-style: normal; font-variant: normal; font-weight: normal; font-size: 12px; line-height: normal; font-family: sans-serif; fill: rgb(51, 51, 51);">age-menstrual-period_(12,13]</text><text x="7" y="132.0406679738554" text-anchor="start" style="font-style: normal; font-variant: normal; font-weight: normal; font-size: 12px; line-height: normal; font-family: sans-serif; fill: rgb(51, 51, 51);"></text><text x="174.06814175039895" y="123.20800551336617" text-anchor="start" style="font-style: normal; font-variant: normal; font-weight: normal; font-size: 12px; line-height: normal; font-family: sans-serif; fill: rgb(51, 51, 51);">body-fat-percent_(34.1,52.7]</text><text x="7" y="117.04992599774027" text-anchor="start" style="font-style: normal; font-variant: normal; font-weight: normal; font-size: 12px; line-height: normal; font-family: sans-serif; fill: rgb(51, 51, 51);">already-menstrual-period</text><text x="7" y="114.1152849852366" text-anchor="start" style="font-style: normal; font-variant: normal; font-weight: normal; font-size: 12px; line-height: normal; font-family: sans-serif; fill: rgb(51, 51, 51);"></text><text x="7" y="108.42605401216082" text-anchor="start" style="font-style: normal; font-variant: normal; font-weight: normal; font-size: 12px; line-height: normal; font-family: sans-serif; fill: rgb(51, 51, 51);"></text><text x="7" y="100.89679454624252" text-anchor="start" style="font-style: normal; font-variant: normal; font-weight: normal; font-size: 12px; line-height: normal; font-family: sans-serif; fill: rgb(51, 51, 51);">heaviness_1 - not at all</text><text x="7" y="96.4980270953867" text-anchor="start" style="font-style: normal; font-variant: normal; font-weight: normal; font-size: 12px; line-height: normal; font-family: sans-serif; fill: rgb(51, 51, 51);"></text><text x="7" y="87.5589466072081" text-anchor="start" style="font-style: normal; font-variant: normal; font-weight: normal; font-size: 12px; line-height: normal; font-family: sans-serif; fill: rgb(51, 51, 51);"></text><text x="7" y="85.3151571278114" text-anchor="start" style="font-style: normal; font-variant: normal; font-weight: normal; font-size: 12px; line-height: normal; font-family: sans-serif; fill: rgb(51, 51, 51);">weight_(91.3,135]</text><text x="439" y="84.75583784137524" text-anchor="start" style="font-style: normal; font-variant: normal; font-weight: normal; font-size: 12px; line-height: normal; font-family: sans-serif; fill: rgb(51, 51, 51);">hip-size_(70,95.8]</text><text x="174.06814175039895" y="84.12873565109783" text-anchor="start" style="font-style: normal; font-variant: normal; font-weight: normal; font-size: 12px; line-height: normal; font-family: sans-serif; fill: rgb(51, 51, 51);">age-menstrual-period_(12,13]</text><text x="174.06814175039895" y="78.64097646733649" text-anchor="start" style="font-style: normal; font-variant: normal; font-weight: normal; font-size: 12px; line-height: normal; font-family: sans-serif; fill: rgb(51, 51, 51);"></text><text x="314.91310041914414" y="75.94257039542697" text-anchor="start" style="font-style: normal; font-variant: normal; font-weight: normal; font-size: 12px; line-height: normal; font-family: sans-serif; fill: rgb(51, 51, 51);">Age_(64,90]</text><text x="7" y="66.38822328223256" text-anchor="start" style="font-style: normal; font-variant: normal; font-weight: normal; font-size: 12px; line-height: normal; font-family: sans-serif; fill: rgb(51, 51, 51);">back-pain-induced-social-problems_3 - moderately</text><text x="7" y="62.991978968294006" text-anchor="start" style="font-style: normal; font-variant: normal; font-weight: normal; font-size: 12px; line-height: normal; font-family: sans-serif; fill: rgb(51, 51, 51);"></text><text x="174.06814175039895" y="60.793897762909864" text-anchor="start" style="font-style: normal; font-variant: normal; font-weight: normal; font-size: 12px; line-height: normal; font-family: sans-serif; fill: rgb(51, 51, 51);">Age_(64,90]</text><text x="7" y="59.29064408190192" text-anchor="start" style="font-style: normal; font-variant: normal; font-weight: normal; font-size: 12px; line-height: normal; font-family: sans-serif; fill: rgb(51, 51, 51);"></text><text x="7" y="57.582910859087406" text-anchor="start" style="font-style: normal; font-variant: normal; font-weight: normal; font-size: 12px; line-height: normal; font-family: sans-serif; fill: rgb(51, 51, 51);"></text><text x="174.06814175039895" y="54.29749580479421" text-anchor="start" style="font-style: normal; font-variant: normal; font-weight: normal; font-size: 12px; line-height: normal; font-family: sans-serif; fill: rgb(51, 51, 51);"></text><text x="7" y="53.57383477093521" text-anchor="start" style="font-style: normal; font-variant: normal; font-weight: normal; font-size: 12px; line-height: normal; font-family: sans-serif; fill: rgb(51, 51, 51);"></text><text x="7" y="51.29974655014132" text-anchor="start" style="font-style: normal; font-variant: normal; font-weight: normal; font-size: 12px; line-height: normal; font-family: sans-serif; fill: rgb(51, 51, 51);">nutrition-fish_2 - Several times a week</text><text x="7" y="45.32370376417737" text-anchor="start" style="font-style: normal; font-variant: normal; font-weight: normal; font-size: 12px; line-height: normal; font-family: sans-serif; fill: rgb(51, 51, 51);"></text><text x="7" y="41.96502124207319" text-anchor="start" style="font-style: normal; font-variant: normal; font-weight: normal; font-size: 12px; line-height: normal; font-family: sans-serif; fill: rgb(51, 51, 51);"></text><text x="7" y="33.92878665248077" text-anchor="start" style="font-style: normal; font-variant: normal; font-weight: normal; font-size: 12px; line-height: normal; font-family: sans-serif; fill: rgb(51, 51, 51);">irritability_1 - not at all</text><text x="7" y="31.70903305709072" text-anchor="start" style="font-style: normal; font-variant: normal; font-weight: normal; font-size: 12px; line-height: normal; font-family: sans-serif; fill: rgb(51, 51, 51);"></text><text x="7" y="26.339267415946665" text-anchor="start" style="font-style: normal; font-variant: normal; font-weight: normal; font-size: 12px; line-height: normal; font-family: sans-serif; fill: rgb(51, 51, 51);"></text><text x="7" y="22.346060972618602" text-anchor="start" style="font-style: normal; font-variant: normal; font-weight: normal; font-size: 12px; line-height: normal; font-family: sans-serif; fill: rgb(51, 51, 51);"></text><text x="7" y="20.781714726032703" text-anchor="start" style="font-style: normal; font-variant: normal; font-weight: normal; font-size: 12px; line-height: normal; font-family: sans-serif; fill: rgb(51, 51, 51);"></text><text x="7" y="20.45454545454686" text-anchor="start" style="font-style: normal; font-variant: normal; font-weight: normal; font-size: 12px; line-height: normal; font-family: sans-serif; fill: rgb(51, 51, 51);"></text></g><g id="g165" class="type-group"><g transform="translate(608.4131004191441,0.5)"><rect class="background" width="66" height="76" style="pointer-events: none; fill: none;"></rect><g id="g166" class="type-text" style="pointer-events: none;"><text x="3" y="3" text-anchor="start" dy=".9em" style="font-weight: bold; font-style: normal; font-variant: normal; font-size: 11px; line-height: normal; font-family: sans-serif; fill: rgb(0, 0, 0); opacity: 1;">group</text></g><g id="g167" class="type-symbol" style="pointer-events: none;"><path transform="translate(7.5,23)" d="M0,3.989422804014327A3.989422804014327,3.989422804014327 0 1,1 0,-3.989422804014327A3.989422804014327,3.989422804014327 0 1,1 0,3.989422804014327Z" style="fill: rgb(31, 119, 180); stroke: rgb(136, 136, 136); stroke-width: 1px; opacity: 1;"></path><path transform="translate(7.5,38)" d="M0,3.989422804014327A3.989422804014327,3.989422804014327 0 1,1 0,-3.989422804014327A3.989422804014327,3.989422804014327 0 1,1 0,3.989422804014327Z" style="fill: rgb(255, 127, 14); stroke: rgb(136, 136, 136); stroke-width: 1px; opacity: 1;"></path><path transform="translate(7.5,53)" d="M0,3.989422804014327A3.989422804014327,3.989422804014327 0 1,1 0,-3.989422804014327A3.989422804014327,3.989422804014327 0 1,1 0,3.989422804014327Z" style="fill: rgb(44, 160, 44); stroke: rgb(136, 136, 136); stroke-width: 1px; opacity: 1;"></path><path transform="translate(7.5,68)" d="M0,3.989422804014327A3.989422804014327,3.989422804014327 0 1,1 0,-3.989422804014327A3.989422804014327,3.989422804014327 0 1,1 0,3.989422804014327Z" style="fill: rgb(214, 39, 40); stroke: rgb(136, 136, 136); stroke-width: 1px; opacity: 1;"></path></g><g id="g168" class="type-text" style="pointer-events: none;"><text x="16" y="23" text-anchor="start" dy=".35em" style="font-style: normal; font-variant: normal; font-weight: normal; font-size: 10px; line-height: normal; font-family: sans-serif; fill: rgb(0, 0, 0); opacity: 1;">(139,164]</text><text x="16" y="38" text-anchor="start" dy=".35em" style="font-style: normal; font-variant: normal; font-weight: normal; font-size: 10px; line-height: normal; font-family: sans-serif; fill: rgb(0, 0, 0); opacity: 1;">(164,171]</text><text x="16" y="53" text-anchor="start" dy=".35em" style="font-style: normal; font-variant: normal; font-weight: normal; font-size: 10px; line-height: normal; font-family: sans-serif; fill: rgb(0, 0, 0); opacity: 1;">(171,177]</text><text x="16" y="68" text-anchor="start" dy=".35em" style="font-style: normal; font-variant: normal; font-weight: normal; font-size: 10px; line-height: normal; font-family: sans-serif; fill: rgb(0, 0, 0); opacity: 1;">(177,202]</text></g></g></g></g></g></g></svg>