<svg class="marks" width="686" height="438" xmlns="http://www.w3.org/2000/svg"><g transform="translate(46,6)"><g id="g85" class="type-group"><g transform="translate(0,0)"><rect class="background" width="432" height="384" style="pointer-events: none; fill: none;"></rect><g id="g86" class="type-group"><g transform="translate(0,384)"><rect class="background" width="0" height="0" style="pointer-events: none; fill: none;"></rect><g id="g87" class="type-rule" style="pointer-events: none;"><line x1="57.15309545816631" y1="-384" x2="57.15309545816631" y2="0" style="fill: none; stroke: rgb(216, 216, 216); stroke-width: 1px; opacity: 1;"></line><line x1="120.99973861139743" y1="-384" x2="120.99973861139743" y2="0" style="fill: none; stroke: rgb(216, 216, 216); stroke-width: 1px; opacity: 1;"></line><line x1="169.99099099473378" y1="-384" x2="169.99099099473378" y2="0" style="fill: none; stroke: rgb(216, 216, 216); stroke-width: 1px; opacity: 1;"></line><line x1="211.2925272706922" y1="-384" x2="211.2925272706922" y2="0" style="fill: none; stroke: rgb(216, 216, 216); stroke-width: 1px; opacity: 1;"></line><line x1="247.6799111916419" y1="-384" x2="247.6799111916419" y2="0" style="fill: none; stroke: rgb(216, 216, 216); stroke-width: 1px; opacity: 1;"></line><line x1="280.5766208288496" y1="-384" x2="280.5766208288496" y2="0" style="fill: none; stroke: rgb(216, 216, 216); stroke-width: 1px; opacity: 1;"></line><line x1="310.8282674503818" y1="-384" x2="310.8282674503818" y2="0" style="fill: none; stroke: rgb(216, 216, 216); stroke-width: 1px; opacity: 1;"></line><line x1="338.9858135771544" y1="-384" x2="338.9858135771544" y2="0" style="fill: none; stroke: rgb(216, 216, 216); stroke-width: 1px; opacity: 1;"></line><line x1="365.43195908321803" y1="-384" x2="365.43195908321803" y2="0" style="fill: none; stroke: rgb(216, 216, 216); stroke-width: 1px; opacity: 1;"></line><line x1="390.4453454174382" y1="-384" x2="390.4453454174382" y2="0" style="fill: none; stroke: rgb(216, 216, 216); stroke-width: 1px; opacity: 1;"></line><line x1="414.23632436635944" y1="-384" x2="414.23632436635944" y2="0" style="fill: none; stroke: rgb(216, 216, 216); stroke-width: 1px; opacity: 1;"></line></g><g id="g88" class="type-rule" style="pointer-events: none;"><line x1="57.15309545816631" y1="0" x2="57.15309545816631" y2="6" style="fill: none; stroke: rgb(0, 0, 0); stroke-width: 1px; opacity: 1;"></line><line x1="120.99973861139743" y1="0" x2="120.99973861139743" y2="6" style="fill: none; stroke: rgb(0, 0, 0); stroke-width: 1px; opacity: 1;"></line><line x1="169.99099099473378" y1="0" x2="169.99099099473378" y2="6" style="fill: none; stroke: rgb(0, 0, 0); stroke-width: 1px; opacity: 1;"></line><line x1="211.2925272706922" y1="0" x2="211.2925272706922" y2="6" style="fill: none; stroke: rgb(0, 0, 0); stroke-width: 1px; opacity: 1;"></line><line x1="247.6799111916419" y1="0" x2="247.6799111916419" y2="6" style="fill: none; stroke: rgb(0, 0, 0); stroke-width: 1px; opacity: 1;"></line><line x1="280.5766208288496" y1="0" x2="280.5766208288496" y2="6" style="fill: none; stroke: rgb(0, 0, 0); stroke-width: 1px; opacity: 1;"></line><line x1="310.8282674503818" y1="0" x2="310.8282674503818" y2="6" style="fill: none; stroke: rgb(0, 0, 0); stroke-width: 1px; opacity: 1;"></line><line x1="338.9858135771544" y1="0" x2="338.9858135771544" y2="6" style="fill: none; stroke: rgb(0, 0, 0); stroke-width: 1px; opacity: 1;"></line><line x1="365.43195908321803" y1="0" x2="365.43195908321803" y2="6" style="fill: none; stroke: rgb(0, 0, 0); stroke-width: 1px; opacity: 1;"></line><line x1="390.4453454174382" y1="0" x2="390.4453454174382" y2="6" style="fill: none; stroke: rgb(0, 0, 0); stroke-width: 1px; opacity: 1;"></line><line x1="414.23632436635944" y1="0" x2="414.23632436635944" y2="6" style="fill: none; stroke: rgb(0, 0, 0); stroke-width: 1px; opacity: 1;"></line></g><g id="g89" class="type-rule" style="pointer-events: none;"></g><g id="g90" class="type-text"><text x="57.15309545816631" y="9" text-anchor="middle" dy=".9em" style="font-style: normal; font-variant: normal; font-weight: normal; font-size: 11px; line-height: normal; font-family: sans-serif; fill: rgb(0, 0, 0); opacity: 1;">5</text><text x="120.99973861139743" y="9" text-anchor="middle" dy=".9em" style="font-style: normal; font-variant: normal; font-weight: normal; font-size: 11px; line-height: normal; font-family: sans-serif; fill: rgb(0, 0, 0); opacity: 1;">10</text><text x="169.99099099473378" y="9" text-anchor="middle" dy=".9em" style="font-style: normal; font-variant: normal; font-weight: normal; font-size: 11px; line-height: normal; font-family: sans-serif; fill: rgb(0, 0, 0); opacity: 1;">15</text><text x="211.2925272706922" y="9" text-anchor="middle" dy=".9em" style="font-style: normal; font-variant: normal; font-weight: normal; font-size: 11px; line-height: normal; font-family: sans-serif; fill: rgb(0, 0, 0); opacity: 1;">20</text><text x="247.6799111916419" y="9" text-anchor="middle" dy=".9em" style="font-style: normal; font-variant: normal; font-weight: normal; font-size: 11px; line-height: normal; font-family: sans-serif; fill: rgb(0, 0, 0); opacity: 1;">25</text><text x="280.5766208288496" y="9" text-anchor="middle" dy=".9em" style="font-style: normal; font-variant: normal; font-weight: normal; font-size: 11px; line-height: normal; font-family: sans-serif; fill: rgb(0, 0, 0); opacity: 1;">30</text><text x="310.8282674503818" y="9" text-anchor="middle" dy=".9em" style="font-style: normal; font-variant: normal; font-weight: normal; font-size: 11px; line-height: normal; font-family: sans-serif; fill: rgb(0, 0, 0); opacity: 1;">35</text><text x="338.9858135771544" y="9" text-anchor="middle" dy=".9em" style="font-style: normal; font-variant: normal; font-weight: normal; font-size: 11px; line-height: normal; font-family: sans-serif; fill: rgb(0, 0, 0); opacity: 1;">40</text><text x="365.43195908321803" y="9" text-anchor="middle" dy=".9em" style="font-style: normal; font-variant: normal; font-weight: normal; font-size: 11px; line-height: normal; font-family: sans-serif; fill: rgb(0, 0, 0); opacity: 1;">45</text><text x="390.4453454174382" y="9" text-anchor="middle" dy=".9em" style="font-style: normal; font-variant: normal; font-weight: normal; font-size: 11px; line-height: normal; font-family: sans-serif; fill: rgb(0, 0, 0); opacity: 1;">50</text><text x="414.23632436635944" y="9" text-anchor="middle" dy=".9em" style="font-style: normal; font-variant: normal; font-weight: normal; font-size: 11px; line-height: normal; font-family: sans-serif; fill: rgb(0, 0, 0); opacity: 1;">55</text></g><g id="g91" class="type-path" style="pointer-events: none;"><path transform="translate(0.5,0.5)" d="M0,6V0H432V6" style="fill: none; stroke: rgb(0, 0, 0); stroke-width: 1px;"></path></g><g id="g92" class="type-text"><text x="216" y="35" text-anchor="middle" dy=".35em" style="font-weight: bold; font-style: normal; font-variant: normal; font-size: 11px; line-height: normal; font-family: sans-serif; fill: rgb(0, 0, 0);">sqrt(Tree Size)</text></g></g></g><g id="g93" class="type-group"><g transform="translate(0,0)"><rect class="background" width="0" height="0" style="pointer-events: none; fill: none;"></rect><g id="g94" class="type-rule" style="pointer-events: none;"><line x1="0" y1="378.1912799328578" x2="432" y2="378.1912799328578" style="fill: none; stroke: rgb(216, 216, 216); stroke-width: 1px; opacity: 1;"></line><line x1="0" y1="350.02070607040787" x2="432" y2="350.02070607040787" style="fill: none; stroke: rgb(216, 216, 216); stroke-width: 1px; opacity: 1;"></line><line x1="0" y1="321.8501322079579" x2="432" y2="321.8501322079579" style="fill: none; stroke: rgb(216, 216, 216); stroke-width: 1px; opacity: 1;"></line><line x1="0" y1="293.679558345508" x2="432" y2="293.679558345508" style="fill: none; stroke: rgb(216, 216, 216); stroke-width: 1px; opacity: 1;"></line><line x1="0" y1="265.50898448305804" x2="432" y2="265.50898448305804" style="fill: none; stroke: rgb(216, 216, 216); stroke-width: 1px; opacity: 1;"></line><line x1="0" y1="237.3384106206081" x2="432" y2="237.3384106206081" style="fill: none; stroke: rgb(216, 216, 216); stroke-width: 1px; opacity: 1;"></line><line x1="0" y1="209.16783675815822" x2="432" y2="209.16783675815822" style="fill: none; stroke: rgb(216, 216, 216); stroke-width: 1px; opacity: 1;"></line><line x1="0" y1="180.99726289570827" x2="432" y2="180.99726289570827" style="fill: none; stroke: rgb(216, 216, 216); stroke-width: 1px; opacity: 1;"></line><line x1="0" y1="152.82668903325833" x2="432" y2="152.82668903325833" style="fill: none; stroke: rgb(216, 216, 216); stroke-width: 1px; opacity: 1;"></line><line x1="0" y1="124.65611517080839" x2="432" y2="124.65611517080839" style="fill: none; stroke: rgb(216, 216, 216); stroke-width: 1px; opacity: 1;"></line><line x1="0" y1="96.48554130835845" x2="432" y2="96.48554130835845" style="fill: none; stroke: rgb(216, 216, 216); stroke-width: 1px; opacity: 1;"></line><line x1="0" y1="68.31496744590851" x2="432" y2="68.31496744590851" style="fill: none; stroke: rgb(216, 216, 216); stroke-width: 1px; opacity: 1;"></line><line x1="0" y1="40.14439358345862" x2="432" y2="40.14439358345862" style="fill: none; stroke: rgb(216, 216, 216); stroke-width: 1px; opacity: 1;"></line><line x1="0" y1="11.973819721008624" x2="432" y2="11.973819721008624" style="fill: none; stroke: rgb(216, 216, 216); stroke-width: 1px; opacity: 1;"></line></g><g id="g95" class="type-rule" style="pointer-events: none;"><line x1="-6" y1="378.1912799328578" x2="0" y2="378.1912799328578" style="fill: none; stroke: rgb(0, 0, 0); stroke-width: 1px; opacity: 1;"></line><line x1="-6" y1="350.02070607040787" x2="0" y2="350.02070607040787" style="fill: none; stroke: rgb(0, 0, 0); stroke-width: 1px; opacity: 1;"></line><line x1="-6" y1="321.8501322079579" x2="0" y2="321.8501322079579" style="fill: none; stroke: rgb(0, 0, 0); stroke-width: 1px; opacity: 1;"></line><line x1="-6" y1="293.679558345508" x2="0" y2="293.679558345508" style="fill: none; stroke: rgb(0, 0, 0); stroke-width: 1px; opacity: 1;"></line><line x1="-6" y1="265.50898448305804" x2="0" y2="265.50898448305804" style="fill: none; stroke: rgb(0, 0, 0); stroke-width: 1px; opacity: 1;"></line><line x1="-6" y1="237.3384106206081" x2="0" y2="237.3384106206081" style="fill: none; stroke: rgb(0, 0, 0); stroke-width: 1px; opacity: 1;"></line><line x1="-6" y1="209.16783675815822" x2="0" y2="209.16783675815822" style="fill: none; stroke: rgb(0, 0, 0); stroke-width: 1px; opacity: 1;"></line><line x1="-6" y1="180.99726289570827" x2="0" y2="180.99726289570827" style="fill: none; stroke: rgb(0, 0, 0); stroke-width: 1px; opacity: 1;"></line><line x1="-6" y1="152.82668903325833" x2="0" y2="152.82668903325833" style="fill: none; stroke: rgb(0, 0, 0); stroke-width: 1px; opacity: 1;"></line><line x1="-6" y1="124.65611517080839" x2="0" y2="124.65611517080839" style="fill: none; stroke: rgb(0, 0, 0); stroke-width: 1px; opacity: 1;"></line><line x1="-6" y1="96.48554130835845" x2="0" y2="96.48554130835845" style="fill: none; stroke: rgb(0, 0, 0); stroke-width: 1px; opacity: 1;"></line><line x1="-6" y1="68.31496744590851" x2="0" y2="68.31496744590851" style="fill: none; stroke: rgb(0, 0, 0); stroke-width: 1px; opacity: 1;"></line><line x1="-6" y1="40.14439358345862" x2="0" y2="40.14439358345862" style="fill: none; stroke: rgb(0, 0, 0); stroke-width: 1px; opacity: 1;"></line><line x1="-6" y1="11.973819721008624" x2="0" y2="11.973819721008624" style="fill: none; stroke: rgb(0, 0, 0); stroke-width: 1px; opacity: 1;"></line></g><g id="g96" class="type-rule" style="pointer-events: none;"></g><g id="g97" class="type-text"><text x="-9" y="378.1912799328578" text-anchor="end" dy=".35em" style="font-style: normal; font-variant: normal; font-weight: normal; font-size: 11px; line-height: normal; font-family: sans-serif; fill: rgb(0, 0, 0); opacity: 1;">0.24</text><text x="-9" y="350.02070607040787" text-anchor="end" dy=".35em" style="font-style: normal; font-variant: normal; font-weight: normal; font-size: 11px; line-height: normal; font-family: sans-serif; fill: rgb(0, 0, 0); opacity: 1;">0.26</text><text x="-9" y="321.8501322079579" text-anchor="end" dy=".35em" style="font-style: normal; font-variant: normal; font-weight: normal; font-size: 11px; line-height: normal; font-family: sans-serif; fill: rgb(0, 0, 0); opacity: 1;">0.28</text><text x="-9" y="293.679558345508" text-anchor="end" dy=".35em" style="font-style: normal; font-variant: normal; font-weight: normal; font-size: 11px; line-height: normal; font-family: sans-serif; fill: rgb(0, 0, 0); opacity: 1;">0.30</text><text x="-9" y="265.50898448305804" text-anchor="end" dy=".35em" style="font-style: normal; font-variant: normal; font-weight: normal; font-size: 11px; line-height: normal; font-family: sans-serif; fill: rgb(0, 0, 0); opacity: 1;">0.32</text><text x="-9" y="237.3384106206081" text-anchor="end" dy=".35em" style="font-style: normal; font-variant: normal; font-weight: normal; font-size: 11px; line-height: normal; font-family: sans-serif; fill: rgb(0, 0, 0); opacity: 1;">0.34</text><text x="-9" y="209.16783675815822" text-anchor="end" dy=".35em" style="font-style: normal; font-variant: normal; font-weight: normal; font-size: 11px; line-height: normal; font-family: sans-serif; fill: rgb(0, 0, 0); opacity: 1;">0.36</text><text x="-9" y="180.99726289570827" text-anchor="end" dy=".35em" style="font-style: normal; font-variant: normal; font-weight: normal; font-size: 11px; line-height: normal; font-family: sans-serif; fill: rgb(0, 0, 0); opacity: 1;">0.38</text><text x="-9" y="152.82668903325833" text-anchor="end" dy=".35em" style="font-style: normal; font-variant: normal; font-weight: normal; font-size: 11px; line-height: normal; font-family: sans-serif; fill: rgb(0, 0, 0); opacity: 1;">0.40</text><text x="-9" y="124.65611517080839" text-anchor="end" dy=".35em" style="font-style: normal; font-variant: normal; font-weight: normal; font-size: 11px; line-height: normal; font-family: sans-serif; fill: rgb(0, 0, 0); opacity: 1;">0.42</text><text x="-9" y="96.48554130835845" text-anchor="end" dy=".35em" style="font-style: normal; font-variant: normal; font-weight: normal; font-size: 11px; line-height: normal; font-family: sans-serif; fill: rgb(0, 0, 0); opacity: 1;">0.44</text><text x="-9" y="68.31496744590851" text-anchor="end" dy=".35em" style="font-style: normal; font-variant: normal; font-weight: normal; font-size: 11px; line-height: normal; font-family: sans-serif; fill: rgb(0, 0, 0); opacity: 1;">0.46</text><text x="-9" y="40.14439358345862" text-anchor="end" dy=".35em" style="font-style: normal; font-variant: normal; font-weight: normal; font-size: 11px; line-height: normal; font-family: sans-serif; fill: rgb(0, 0, 0); opacity: 1;">0.48</text><text x="-9" y="11.973819721008624" text-anchor="end" dy=".35em" style="font-style: normal; font-variant: normal; font-weight: normal; font-size: 11px; line-height: normal; font-family: sans-serif; fill: rgb(0, 0, 0); opacity: 1;">0.50</text></g><g id="g98" class="type-path" style="pointer-events: none;"><path transform="translate(0.5,0.5)" d="M-6,0H0V384H-6" style="fill: none; stroke: rgb(0, 0, 0); stroke-width: 1px;"></path></g><g id="g99" class="type-text"><text x="-35" y="192" text-anchor="middle" transform="rotate(-90 -35,192)" dy=".35em" style="font-weight: bold; font-style: normal; font-variant: normal; font-size: 11px; line-height: normal; font-family: sans-serif; fill: rgb(0, 0, 0);">Error Rate</text></g></g></g><g id="g100" class="type-symbol"><path transform="translate(225.83926351943418,366.5454545454545)" d="M0,2.778184751693993A2.778184751693993,2.778184751693993 0 1,1 0,-2.778184751693993A2.778184751693993,2.778184751693993 0 1,1 0,2.778184751693993Z" style="fill: rgb(214, 39, 40); stroke: rgb(255, 255, 255); stroke-width: 1px;"></path><path transform="translate(71.36495125514007,334.25294669623395)" d="M0,5.38019342878966A5.38019342878966,5.38019342878966 0 1,1 0,-5.38019342878966A5.38019342878966,5.38019342878966 0 1,1 0,5.38019342878966Z" style="fill: rgb(31, 119, 180); stroke: rgb(255, 255, 255); stroke-width: 1px;"></path><path transform="translate(233.10591464624423,314.36827731336086)" d="M0,2.951247176113136A2.951247176113136,2.951247176113136 0 1,1 0,-2.951247176113136A2.951247176113136,2.951247176113136 0 1,1 0,2.951247176113136Z" style="fill: rgb(255, 127, 14); stroke: rgb(255, 255, 255); stroke-width: 1px;"></path><path transform="translate(56.65309545816631,303.9765607986094)" d="M0,5.248742526925848A5.248742526925848,5.248742526925848 0 1,1 0,-5.248742526925848A5.248742526925848,5.248742526925848 0 1,1 0,5.248742526925848Z" style="fill: rgb(44, 160, 44); stroke: rgb(255, 255, 255); stroke-width: 1px;"></path><path transform="translate(178.2466616824416,287.65232083542753)" d="M0,2.5231325220201604A2.5231325220201604,2.5231325220201604 0 1,1 0,-2.5231325220201604A2.5231325220201604,2.5231325220201604 0 1,1 0,2.5231325220201604Z" style="fill: rgb(44, 160, 44); stroke: rgb(255, 255, 255); stroke-width: 1px;"></path><path transform="translate(40.38016266404102,280.2051584210481)" d="M0,5.278711120955198A5.278711120955198,5.278711120955198 0 1,1 0,-5.278711120955198A5.278711120955198,5.278711120955198 0 1,1 0,5.278711120955198Z" style="fill: rgb(214, 39, 40); stroke: rgb(255, 255, 255); stroke-width: 1px;"></path><path transform="translate(21.909554126397712,265.74068770026525)" d="M0,2.662202949715277A2.662202949715277,2.662202949715277 0 1,1 0,-2.662202949715277A2.662202949715277,2.662202949715277 0 1,1 0,2.662202949715277Z" style="fill: rgb(255, 127, 14); stroke: rgb(255, 255, 255); stroke-width: 1px;"></path><path transform="translate(370.0417086261447,262.35879759731233)" d="M0,5.278711120955198A5.278711120955198,5.278711120955198 0 1,1 0,-5.278711120955198A5.278711120955198,5.278711120955198 0 1,1 0,5.278711120955198Z" style="fill: rgb(214, 39, 40); stroke: rgb(255, 255, 255); stroke-width: 1px;"></path><path transform="translate(316.1131607008422,227.1059495857845)" d="M0,5.278711120955198A5.278711120955198,5.278711120955198 0 1,1 0,-5.278711120955198A5.278711120955198,5.278711120955198 0 1,1 0,5.278711120955198Z" style="fill: rgb(214, 39, 40); stroke: rgb(255, 255, 255); stroke-width: 1px;"></path><path transform="translate(380.0972255686695,219.61681326249467)" d="M0,5.278711120955198A5.278711120955198,5.278711120955198 0 1,1 0,-5.278711120955198A5.278711120955198,5.278711120955198 0 1,1 0,5.278711120955198Z" style="fill: rgb(214, 39, 40); stroke: rgb(255, 255, 255); stroke-width: 1px;"></path><path transform="translate(321.8182508519021,217.66545543236893)" d="M0,5.244447319555954A5.244447319555954,5.244447319555954 0 1,1 0,-5.244447319555954A5.244447319555954,5.244447319555954 0 1,1 0,5.244447319555954Z" style="fill: rgb(44, 160, 44); stroke: rgb(255, 255, 255); stroke-width: 1px;"></path><path transform="translate(21.909554126397712,217.473891599781)" d="M0,5.641895835477563A5.641895835477563,5.641895835477563 0 1,1 0,-5.641895835477563A5.641895835477563,5.641895835477563 0 1,1 0,5.641895835477563Z" style="fill: rgb(255, 127, 14); stroke: rgb(255, 255, 255); stroke-width: 1px;"></path><path transform="translate(186.73273248913,185.4697056147051)" d="M0,3.5792832653319944A3.5792832653319944,3.5792832653319944 0 1,1 0,-3.5792832653319944A3.5792832653319944,3.5792832653319944 0 1,1 0,3.5792832653319944Z" style="fill: rgb(214, 39, 40); stroke: rgb(255, 255, 255); stroke-width: 1px;"></path><path transform="translate(298.5050338806783,173.1817548699525)" d="M0,5.38019342878966A5.38019342878966,5.38019342878966 0 1,1 0,-5.38019342878966A5.38019342878966,5.38019342878966 0 1,1 0,5.38019342878966Z" style="fill: rgb(31, 119, 180); stroke: rgb(255, 255, 255); stroke-width: 1px;"></path><path transform="translate(169.49099099473378,159.7742263125712)" d="M0,3.522163377276089A3.522163377276089,3.522163377276089 0 1,1 0,-3.522163377276089A3.522163377276089,3.522163377276089 0 1,1 0,3.522163377276089Z" style="fill: rgb(31, 119, 180); stroke: rgb(255, 255, 255); stroke-width: 1px;"></path><path transform="translate(292.45900906307867,151.3799694084291)" d="M0,5.227231196546447A5.227231196546447,5.227231196546447 0 1,1 0,-5.227231196546447A5.227231196546447,5.227231196546447 0 1,1 0,5.227231196546447Z" style="fill: rgb(44, 160, 44); stroke: rgb(255, 255, 255); stroke-width: 1px;"></path><path transform="translate(432,149.03858265708618)" d="M0,5.617879142541715A5.617879142541715,5.617879142541715 0 1,1 0,-5.617879142541715A5.617879142541715,5.617879142541715 0 1,1 0,5.617879142541715Z" style="fill: rgb(255, 127, 14); stroke: rgb(255, 255, 255); stroke-width: 1px;"></path><path transform="translate(0,146.30733564384633)" d="M0,2.662202949715277A2.662202949715277,2.662202949715277 0 1,1 0,-2.662202949715277A2.662202949715277,2.662202949715277 0 1,1 0,2.662202949715277Z" style="fill: rgb(255, 127, 14); stroke: rgb(255, 255, 255); stroke-width: 1px;"></path><path transform="translate(310.3282674503818,146.1420051634968)" d="M0,5.38019342878966A5.38019342878966,5.38019342878966 0 1,1 0,-5.38019342878966A5.38019342878966,5.38019342878966 0 1,1 0,5.38019342878966Z" style="fill: rgb(31, 119, 180); stroke: rgb(255, 255, 255); stroke-width: 1px;"></path><path transform="translate(40.38016266404102,119.40784160782812)" d="M0,5.188286050796317A5.188286050796317,5.188286050796317 0 1,1 0,-5.188286050796317A5.188286050796317,5.188286050796317 0 1,1 0,5.188286050796317Z" style="fill: rgb(214, 39, 40); stroke: rgb(255, 255, 255); stroke-width: 1px;"></path><path transform="translate(0,116.95779877271082)" d="M0,5.637900158039051A5.637900158039051,5.637900158039051 0 1,1 0,-5.637900158039051A5.637900158039051,5.637900158039051 0 1,1 0,5.637900158039051Z" style="fill: rgb(255, 127, 14); stroke: rgb(255, 255, 255); stroke-width: 1px;"></path><path transform="translate(225.83926351943418,111.56656813492998)" d="M0,4.046212102214599A4.046212102214599,4.046212102214599 0 1,1 0,-4.046212102214599A4.046212102214599,4.046212102214599 0 1,1 0,4.046212102214599Z" style="fill: rgb(44, 160, 44); stroke: rgb(255, 255, 255); stroke-width: 1px;"></path><path transform="translate(304.46012548915576,99.81662017157942)" d="M0,5.304263724275964A5.304263724275964,5.304263724275964 0 1,1 0,-5.304263724275964A5.304263724275964,5.304263724275964 0 1,1 0,5.304263724275964Z" style="fill: rgb(31, 119, 180); stroke: rgb(255, 255, 255); stroke-width: 1px;"></path><path transform="translate(0,97.43812845695015)" d="M0,5.371809795447604A5.371809795447604,5.371809795447604 0 1,1 0,-5.371809795447604A5.371809795447604,5.371809795447604 0 1,1 0,5.371809795447604Z" style="fill: rgb(31, 119, 180); stroke: rgb(255, 255, 255); stroke-width: 1px;"></path><path transform="translate(0,96.53191338524357)" d="M0,3.4835631611973197A3.4835631611973197,3.4835631611973197 0 1,1 0,-3.4835631611973197A3.4835631611973197,3.4835631611973197 0 1,1 0,3.4835631611973197Z" style="fill: rgb(255, 127, 14); stroke: rgb(255, 255, 255); stroke-width: 1px;"></path><path transform="translate(0,95.03060660115659)" d="M0,2.9436014451948913A2.9436014451948913,2.9436014451948913 0 1,1 0,-2.9436014451948913A2.9436014451948913,2.9436014451948913 0 1,1 0,2.9436014451948913Z" style="fill: rgb(214, 39, 40); stroke: rgb(255, 255, 255); stroke-width: 1px;"></path><path transform="translate(260.7013350879123,82.46286575394652)" d="M0,5.261607111239574A5.261607111239574,5.261607111239574 0 1,1 0,-5.261607111239574A5.261607111239574,5.261607111239574 0 1,1 0,5.261607111239574Z" style="fill: rgb(214, 39, 40); stroke: rgb(255, 255, 255); stroke-width: 1px;"></path><path transform="translate(338.4858135771544,74.44966303120168)" d="M0,5.3381435975035725A5.3381435975035725,5.3381435975035725 0 1,1 0,-5.3381435975035725A5.3381435975035725,5.3381435975035725 0 1,1 0,5.3381435975035725Z" style="fill: rgb(31, 119, 180); stroke: rgb(255, 255, 255); stroke-width: 1px;"></path><path transform="translate(333.0016688536936,62.69598867709192)" d="M0,5.222918298785277A5.222918298785277,5.222918298785277 0 1,1 0,-5.222918298785277A5.222918298785277,5.222918298785277 0 1,1 0,5.222918298785277Z" style="fill: rgb(44, 160, 44); stroke: rgb(255, 255, 255); stroke-width: 1px;"></path><path transform="translate(321.8182508519021,62.2193079056708)" d="M0,5.244447319555954A5.244447319555954,5.244447319555954 0 1,1 0,-5.244447319555954A5.244447319555954,5.244447319555954 0 1,1 0,5.244447319555954Z" style="fill: rgb(44, 160, 44); stroke: rgb(255, 255, 255); stroke-width: 1px;"></path><path transform="translate(260.7013350879123,61.42303187243931)" d="M0,5.248742526925848A5.248742526925848,5.248742526925848 0 1,1 0,-5.248742526925848A5.248742526925848,5.248742526925848 0 1,1 0,5.248742526925848Z" style="fill: rgb(44, 160, 44); stroke: rgb(255, 255, 255); stroke-width: 1px;"></path><path transform="translate(389.9453454174382,54.56796332237343)" d="M0,5.6258960986610695A5.6258960986610695,5.6258960986610695 0 1,1 0,-5.6258960986610695A5.6258960986610695,5.6258960986610695 0 1,1 0,5.6258960986610695Z" style="fill: rgb(255, 127, 14); stroke: rgb(255, 255, 255); stroke-width: 1px;"></path><path transform="translate(375.0962127639824,54.51627435021811)" d="M0,5.617879142541715A5.617879142541715,5.617879142541715 0 1,1 0,-5.617879142541715A5.617879142541715,5.617879142541715 0 1,1 0,5.617879142541715Z" style="fill: rgb(255, 127, 14); stroke: rgb(255, 255, 255); stroke-width: 1px;"></path><path transform="translate(327.446752190309,53.91186732581838)" d="M0,5.248742526925848A5.248742526925848,5.248742526925848 0 1,1 0,-5.248742526925848A5.248742526925848,5.248742526925848 0 1,1 0,5.248742526925848Z" style="fill: rgb(214, 39, 40); stroke: rgb(255, 255, 255); stroke-width: 1px;"></path><path transform="translate(338.4858135771544,50.07085041342583)" d="M0,5.248742526925848A5.248742526925848,5.248742526925848 0 1,1 0,-5.248742526925848A5.248742526925848,5.248742526925848 0 1,1 0,5.248742526925848Z" style="fill: rgb(214, 39, 40); stroke: rgb(255, 255, 255); stroke-width: 1px;"></path><path transform="translate(364.93195908321803,49.52000708775779)" d="M0,5.248742526925848A5.248742526925848,5.248742526925848 0 1,1 0,-5.248742526925848A5.248742526925848,5.248742526925848 0 1,1 0,5.248742526925848Z" style="fill: rgb(214, 39, 40); stroke: rgb(255, 255, 255); stroke-width: 1px;"></path><path transform="translate(343.9018243430068,45.303582565761246)" d="M0,5.248742526925848A5.248742526925848,5.248742526925848 0 1,1 0,-5.248742526925848A5.248742526925848,5.248742526925848 0 1,1 0,5.248742526925848Z" style="fill: rgb(214, 39, 40); stroke: rgb(255, 255, 255); stroke-width: 1px;"></path><path transform="translate(327.446752190309,40.985990375106894)" d="M0,5.265888321965171A5.265888321965171,5.265888321965171 0 1,1 0,-5.265888321965171A5.265888321965171,5.265888321965171 0 1,1 0,5.265888321965171Z" style="fill: rgb(214, 39, 40); stroke: rgb(255, 255, 255); stroke-width: 1px;"></path><path transform="translate(364.93195908321803,40.687932428411386)" d="M0,5.617879142541715A5.617879142541715,5.617879142541715 0 1,1 0,-5.617879142541715A5.617879142541715,5.617879142541715 0 1,1 0,5.617879142541715Z" style="fill: rgb(255, 127, 14); stroke: rgb(255, 255, 255); stroke-width: 1px;"></path><path transform="translate(260.7013350879123,40.11988887675358)" d="M0,5.38019342878966A5.38019342878966,5.38019342878966 0 1,1 0,-5.38019342878966A5.38019342878966,5.38019342878966 0 1,1 0,5.38019342878966Z" style="fill: rgb(31, 119, 180); stroke: rgb(255, 255, 255); stroke-width: 1px;"></path><path transform="translate(151.05602933541493,37.26380444573783)" d="M0,3.7634268272885105A3.7634268272885105,3.7634268272885105 0 1,1 0,-3.7634268272885105A3.7634268272885105,3.7634268272885105 0 1,1 0,3.7634268272885105Z" style="fill: rgb(255, 127, 14); stroke: rgb(255, 255, 255); stroke-width: 1px;"></path><path transform="translate(375.0962127639824,36.72444937495095)" d="M0,5.248742526925848A5.248742526925848,5.248742526925848 0 1,1 0,-5.248742526925848A5.248742526925848,5.248742526925848 0 1,1 0,5.248742526925848Z" style="fill: rgb(214, 39, 40); stroke: rgb(255, 255, 255); stroke-width: 1px;"></path><path transform="translate(389.9453454174382,33.52202294819779)" d="M0,5.3381435975035725A5.3381435975035725,5.3381435975035725 0 1,1 0,-5.3381435975035725A5.3381435975035725,5.3381435975035725 0 1,1 0,5.3381435975035725Z" style="fill: rgb(31, 119, 180); stroke: rgb(255, 255, 255); stroke-width: 1px;"></path><path transform="translate(254.00564802841296,17.58780580193735)" d="M0,5.376003246355896A5.376003246355896,5.376003246355896 0 1,1 0,-5.376003246355896A5.376003246355896,5.376003246355896 0 1,1 0,5.376003246355896Z" style="fill: rgb(31, 119, 180); stroke: rgb(255, 255, 255); stroke-width: 1px;"></path><path transform="translate(343.9018243430068,17.454545454545496)" d="M0,5.3381435975035725A5.3381435975035725,5.3381435975035725 0 1,1 0,-5.3381435975035725A5.3381435975035725,5.3381435975035725 0 1,1 0,5.3381435975035725Z" style="fill: rgb(31, 119, 180); stroke: rgb(255, 255, 255); stroke-width: 1px;"></path></g><g id="g101" class="type-text"><text x="232.83926351943418" y="369.5454545454545" text-anchor="start" style="font-style: normal; font-variant: normal; font-weight: normal; font-size: 12px; line-height: normal; font-family: sans-serif; fill: rgb(51, 51, 51);">age-started-smoking</text><text x="78.36495125514007" y="337.25294669623395" text-anchor="start" style="font-style: normal; font-variant: normal; font-weight: normal; font-size: 12px; line-height: normal; font-family: sans-serif; fill: rgb(51, 51, 51);">Gender</text><text x="240.10591464624423" y="317.36827731336086" text-anchor="start" style="font-style: normal; font-variant: normal; font-weight: normal; font-size: 12px; line-height: normal; font-family: sans-serif; fill: rgb(51, 51, 51);">age-started-smoking</text><text x="63.65309545816631" y="306.9765607986094" text-anchor="start" style="font-style: normal; font-variant: normal; font-weight: normal; font-size: 12px; line-height: normal; font-family: sans-serif; fill: rgb(51, 51, 51);">Gender</text><text x="185.2466616824416" y="290.65232083542753" text-anchor="start" style="font-style: normal; font-variant: normal; font-weight: normal; font-size: 12px; line-height: normal; font-family: sans-serif; fill: rgb(51, 51, 51);">age-started-smoking</text><text x="47.38016266404102" y="283.2051584210481" text-anchor="start" style="font-style: normal; font-variant: normal; font-weight: normal; font-size: 12px; line-height: normal; font-family: sans-serif; fill: rgb(51, 51, 51);">Gender</text><text x="28.909554126397712" y="268.74068770026525" text-anchor="start" style="font-style: normal; font-variant: normal; font-weight: normal; font-size: 12px; line-height: normal; font-family: sans-serif; fill: rgb(51, 51, 51);">thyroid-nodules</text><text x="377.0417086261447" y="265.35879759731233" text-anchor="start" style="font-style: normal; font-variant: normal; font-weight: normal; font-size: 12px; line-height: normal; font-family: sans-serif; fill: rgb(51, 51, 51);">body-fat-percent</text><text x="323.1131607008422" y="230.1059495857845" text-anchor="start" style="font-style: normal; font-variant: normal; font-weight: normal; font-size: 12px; line-height: normal; font-family: sans-serif; fill: rgb(51, 51, 51);">size</text><text x="387.0972255686695" y="222.61681326249467" text-anchor="start" style="font-style: normal; font-variant: normal; font-weight: normal; font-size: 12px; line-height: normal; font-family: sans-serif; fill: rgb(51, 51, 51);">triglycerides</text><text x="328.8182508519021" y="220.66545543236893" text-anchor="start" style="font-style: normal; font-variant: normal; font-weight: normal; font-size: 12px; line-height: normal; font-family: sans-serif; fill: rgb(51, 51, 51);"></text><text x="28.909554126397712" y="220.473891599781" text-anchor="start" style="font-style: normal; font-variant: normal; font-weight: normal; font-size: 12px; line-height: normal; font-family: sans-serif; fill: rgb(51, 51, 51);">Gender</text><text x="193.73273248913" y="188.4697056147051" text-anchor="start" style="font-style: normal; font-variant: normal; font-weight: normal; font-size: 12px; line-height: normal; font-family: sans-serif; fill: rgb(51, 51, 51);">pain-legs</text><text x="305.5050338806783" y="176.1817548699525" text-anchor="start" style="font-style: normal; font-variant: normal; font-weight: normal; font-size: 12px; line-height: normal; font-family: sans-serif; fill: rgb(51, 51, 51);">size</text><text x="176.49099099473378" y="162.7742263125712" text-anchor="start" style="font-style: normal; font-variant: normal; font-weight: normal; font-size: 12px; line-height: normal; font-family: sans-serif; fill: rgb(51, 51, 51);">age-menstrual-period</text><text x="299.45900906307867" y="154.3799694084291" text-anchor="start" style="font-style: normal; font-variant: normal; font-weight: normal; font-size: 12px; line-height: normal; font-family: sans-serif; fill: rgb(51, 51, 51);">meteorosensitivity</text><text x="439" y="152.03858265708618" text-anchor="start" style="font-style: normal; font-variant: normal; font-weight: normal; font-size: 12px; line-height: normal; font-family: sans-serif; fill: rgb(51, 51, 51);">nutrition-munchies</text><text x="7" y="149.30733564384633" text-anchor="start" style="font-style: normal; font-variant: normal; font-weight: normal; font-size: 12px; line-height: normal; font-family: sans-serif; fill: rgb(51, 51, 51);">Hypothyroidism</text><text x="317.3282674503818" y="149.1420051634968" text-anchor="start" style="font-style: normal; font-variant: normal; font-weight: normal; font-size: 12px; line-height: normal; font-family: sans-serif; fill: rgb(51, 51, 51);"></text><text x="47.38016266404102" y="122.40784160782812" text-anchor="start" style="font-style: normal; font-variant: normal; font-weight: normal; font-size: 12px; line-height: normal; font-family: sans-serif; fill: rgb(51, 51, 51);">Increased-blood-lipid</text><text x="7" y="119.95779877271082" text-anchor="start" style="font-style: normal; font-variant: normal; font-weight: normal; font-size: 12px; line-height: normal; font-family: sans-serif; fill: rgb(51, 51, 51);"></text><text x="232.83926351943418" y="114.56656813492998" text-anchor="start" style="font-style: normal; font-variant: normal; font-weight: normal; font-size: 12px; line-height: normal; font-family: sans-serif; fill: rgb(51, 51, 51);">radiating-backpain</text><text x="311.46012548915576" y="102.81662017157942" text-anchor="start" style="font-style: normal; font-variant: normal; font-weight: normal; font-size: 12px; line-height: normal; font-family: sans-serif; fill: rgb(51, 51, 51);">neck-shoulder-pain</text><text x="7" y="100.43812845695015" text-anchor="start" style="font-style: normal; font-variant: normal; font-weight: normal; font-size: 12px; line-height: normal; font-family: sans-serif; fill: rgb(51, 51, 51);">other-diseases</text><text x="7" y="99.53191338524357" text-anchor="start" style="font-style: normal; font-variant: normal; font-weight: normal; font-size: 12px; line-height: normal; font-family: sans-serif; fill: rgb(51, 51, 51);"></text><text x="7" y="98.03060660115659" text-anchor="start" style="font-style: normal; font-variant: normal; font-weight: normal; font-size: 12px; line-height: normal; font-family: sans-serif; fill: rgb(51, 51, 51);"></text><text x="267.7013350879123" y="85.46286575394652" text-anchor="start" style="font-style: normal; font-variant: normal; font-weight: normal; font-size: 12px; line-height: normal; font-family: sans-serif; fill: rgb(51, 51, 51);">cold-hypersensitive</text><text x="345.4858135771544" y="77.44966303120168" text-anchor="start" style="font-style: normal; font-variant: normal; font-weight: normal; font-size: 12px; line-height: normal; font-family: sans-serif; fill: rgb(51, 51, 51);">nutrition-fish</text><text x="340.0016688536936" y="65.69598867709192" text-anchor="start" style="font-style: normal; font-variant: normal; font-weight: normal; font-size: 12px; line-height: normal; font-family: sans-serif; fill: rgb(51, 51, 51);"></text><text x="328.8182508519021" y="65.2193079056708" text-anchor="start" style="font-style: normal; font-variant: normal; font-weight: normal; font-size: 12px; line-height: normal; font-family: sans-serif; fill: rgb(51, 51, 51);"></text><text x="267.7013350879123" y="64.42303187243931" text-anchor="start" style="font-style: normal; font-variant: normal; font-weight: normal; font-size: 12px; line-height: normal; font-family: sans-serif; fill: rgb(51, 51, 51);">heaviness</text><text x="396.9453454174382" y="57.56796332237343" text-anchor="start" style="font-style: normal; font-variant: normal; font-weight: normal; font-size: 12px; line-height: normal; font-family: sans-serif; fill: rgb(51, 51, 51);">frequency-of-alcohol-last-year</text><text x="382.0962127639824" y="57.51627435021811" text-anchor="start" style="font-style: normal; font-variant: normal; font-weight: normal; font-size: 12px; line-height: normal; font-family: sans-serif; fill: rgb(51, 51, 51);"></text><text x="334.446752190309" y="56.91186732581838" text-anchor="start" style="font-style: normal; font-variant: normal; font-weight: normal; font-size: 12px; line-height: normal; font-family: sans-serif; fill: rgb(51, 51, 51);">nutrition-munchies</text><text x="345.4858135771544" y="53.07085041342583" text-anchor="start" style="font-style: normal; font-variant: normal; font-weight: normal; font-size: 12px; line-height: normal; font-family: sans-serif; fill: rgb(51, 51, 51);"></text><text x="371.93195908321803" y="52.52000708775779" text-anchor="start" style="font-style: normal; font-variant: normal; font-weight: normal; font-size: 12px; line-height: normal; font-family: sans-serif; fill: rgb(51, 51, 51);"></text><text x="350.9018243430068" y="48.303582565761246" text-anchor="start" style="font-style: normal; font-variant: normal; font-weight: normal; font-size: 12px; line-height: normal; font-family: sans-serif; fill: rgb(51, 51, 51);"></text><text x="334.446752190309" y="43.985990375106894" text-anchor="start" style="font-style: normal; font-variant: normal; font-weight: normal; font-size: 12px; line-height: normal; font-family: sans-serif; fill: rgb(51, 51, 51);"></text><text x="371.93195908321803" y="43.687932428411386" text-anchor="start" style="font-style: normal; font-variant: normal; font-weight: normal; font-size: 12px; line-height: normal; font-family: sans-serif; fill: rgb(51, 51, 51);"></text><text x="267.7013350879123" y="43.11988887675358" text-anchor="start" style="font-style: normal; font-variant: normal; font-weight: normal; font-size: 12px; line-height: normal; font-family: sans-serif; fill: rgb(51, 51, 51);">hdl-cholesterol</text><text x="158.05602933541493" y="40.26380444573783" text-anchor="start" style="font-style: normal; font-variant: normal; font-weight: normal; font-size: 12px; line-height: normal; font-family: sans-serif; fill: rgb(51, 51, 51);">pain-legs</text><text x="382.0962127639824" y="39.72444937495095" text-anchor="start" style="font-style: normal; font-variant: normal; font-weight: normal; font-size: 12px; line-height: normal; font-family: sans-serif; fill: rgb(51, 51, 51);">nutrition-pasta</text><text x="396.9453454174382" y="36.52202294819779" text-anchor="start" style="font-style: normal; font-variant: normal; font-weight: normal; font-size: 12px; line-height: normal; font-family: sans-serif; fill: rgb(51, 51, 51);"></text><text x="261.00564802841296" y="20.58780580193735" text-anchor="start" style="font-style: normal; font-variant: normal; font-weight: normal; font-size: 12px; line-height: normal; font-family: sans-serif; fill: rgb(51, 51, 51);">ALAT_S</text><text x="350.9018243430068" y="20.454545454545496" text-anchor="start" style="font-style: normal; font-variant: normal; font-weight: normal; font-size: 12px; line-height: normal; font-family: sans-serif; fill: rgb(51, 51, 51);">nutrition-confectionery products </text></g><g id="g102" class="type-group"><g transform="translate(571.4453454174381,0.5)"><rect class="background" width="63" height="76" style="pointer-events: none; fill: none;"></rect><g id="g103" class="type-text" style="pointer-events: none;"><text x="3" y="3" text-anchor="start" dy=".9em" style="font-weight: bold; font-style: normal; font-variant: normal; font-size: 11px; line-height: normal; font-family: sans-serif; fill: rgb(0, 0, 0); opacity: 1;">group</text></g><g id="g104" class="type-symbol" style="pointer-events: none;"><path transform="translate(7.5,23)" d="M0,3.989422804014327A3.989422804014327,3.989422804014327 0 1,1 0,-3.989422804014327A3.989422804014327,3.989422804014327 0 1,1 0,3.989422804014327Z" style="fill: rgb(31, 119, 180); stroke: rgb(136, 136, 136); stroke-width: 1px; opacity: 1;"></path><path transform="translate(7.5,38)" d="M0,3.989422804014327A3.989422804014327,3.989422804014327 0 1,1 0,-3.989422804014327A3.989422804014327,3.989422804014327 0 1,1 0,3.989422804014327Z" style="fill: rgb(255, 127, 14); stroke: rgb(136, 136, 136); stroke-width: 1px; opacity: 1;"></path><path transform="translate(7.5,53)" d="M0,3.989422804014327A3.989422804014327,3.989422804014327 0 1,1 0,-3.989422804014327A3.989422804014327,3.989422804014327 0 1,1 0,3.989422804014327Z" style="fill: rgb(44, 160, 44); stroke: rgb(136, 136, 136); stroke-width: 1px; opacity: 1;"></path><path transform="translate(7.5,68)" d="M0,3.989422804014327A3.989422804014327,3.989422804014327 0 1,1 0,-3.989422804014327A3.989422804014327,3.989422804014327 0 1,1 0,3.989422804014327Z" style="fill: rgb(214, 39, 40); stroke: rgb(136, 136, 136); stroke-width: 1px; opacity: 1;"></path></g><g id="g105" class="type-text" style="pointer-events: none;"><text x="16" y="23" text-anchor="start" dy=".35em" style="font-style: normal; font-variant: normal; font-weight: normal; font-size: 10px; line-height: normal; font-family: sans-serif; fill: rgb(0, 0, 0); opacity: 1;">(21,43.8]</text><text x="16" y="38" text-anchor="start" dy=".35em" style="font-style: normal; font-variant: normal; font-weight: normal; font-size: 10px; line-height: normal; font-family: sans-serif; fill: rgb(0, 0, 0); opacity: 1;">(43.8,54]</text><text x="16" y="53" text-anchor="start" dy=".35em" style="font-style: normal; font-variant: normal; font-weight: normal; font-size: 10px; line-height: normal; font-family: sans-serif; fill: rgb(0, 0, 0); opacity: 1;">(54,64]</text><text x="16" y="68" text-anchor="start" dy=".35em" style="font-style: normal; font-variant: normal; font-weight: normal; font-size: 10px; line-height: normal; font-family: sans-serif; fill: rgb(0, 0, 0); opacity: 1;">(64,90]</text></g></g></g></g></g></g></svg>