<svg class="marks" width="606" height="438" xmlns="http://www.w3.org/2000/svg"><g transform="translate(46,6)"><g id="g106" class="type-group"><g transform="translate(0,0)"><rect class="background" width="432" height="384" style="pointer-events: none; fill: none;"></rect><g id="g107" class="type-group"><g transform="translate(0,384)"><rect class="background" width="0" height="0" style="pointer-events: none; fill: none;"></rect><g id="g108" class="type-rule" style="pointer-events: none;"><line x1="0.5" y1="-384" x2="0.5" y2="0" style="fill: none; stroke: rgb(216, 216, 216); stroke-width: 1px; opacity: 1;"></line><line x1="70.15456852550082" y1="-384" x2="70.15456852550082" y2="0" style="fill: none; stroke: rgb(216, 216, 216); stroke-width: 1px; opacity: 1;"></line><line x1="133.1271119945885" y1="-384" x2="133.1271119945885" y2="0" style="fill: none; stroke: rgb(216, 216, 216); stroke-width: 1px; opacity: 1;"></line><line x1="191.036342215329" y1="-384" x2="191.036342215329" y2="0" style="fill: none; stroke: rgb(216, 216, 216); stroke-width: 1px; opacity: 1;"></line><line x1="244.93693947887755" y1="-384" x2="244.93693947887755" y2="0" style="fill: none; stroke: rgb(216, 216, 216); stroke-width: 1px; opacity: 1;"></line><line x1="295.5614872174387" y1="-384" x2="295.5614872174387" y2="0" style="fill: none; stroke: rgb(216, 216, 216); stroke-width: 1px; opacity: 1;"></line><line x1="343.443374968887" y1="-384" x2="343.443374968887" y2="0" style="fill: none; stroke: rgb(216, 216, 216); stroke-width: 1px; opacity: 1;"></line><line x1="388.9852687496129" y1="-384" x2="388.9852687496129" y2="0" style="fill: none; stroke: rgb(216, 216, 216); stroke-width: 1px; opacity: 1;"></line><line x1="432.5" y1="-384" x2="432.5" y2="0" style="fill: none; stroke: rgb(216, 216, 216); stroke-width: 1px; opacity: 1;"></line></g><g id="g109" class="type-rule" style="pointer-events: none;"><line x1="0.5" y1="0" x2="0.5" y2="6" style="fill: none; stroke: rgb(0, 0, 0); stroke-width: 1px; opacity: 1;"></line><line x1="70.15456852550082" y1="0" x2="70.15456852550082" y2="6" style="fill: none; stroke: rgb(0, 0, 0); stroke-width: 1px; opacity: 1;"></line><line x1="133.1271119945885" y1="0" x2="133.1271119945885" y2="6" style="fill: none; stroke: rgb(0, 0, 0); stroke-width: 1px; opacity: 1;"></line><line x1="191.036342215329" y1="0" x2="191.036342215329" y2="6" style="fill: none; stroke: rgb(0, 0, 0); stroke-width: 1px; opacity: 1;"></line><line x1="244.93693947887755" y1="0" x2="244.93693947887755" y2="6" style="fill: none; stroke: rgb(0, 0, 0); stroke-width: 1px; opacity: 1;"></line><line x1="295.5614872174387" y1="0" x2="295.5614872174387" y2="6" style="fill: none; stroke: rgb(0, 0, 0); stroke-width: 1px; opacity: 1;"></line><line x1="343.443374968887" y1="0" x2="343.443374968887" y2="6" style="fill: none; stroke: rgb(0, 0, 0); stroke-width: 1px; opacity: 1;"></line><line x1="388.9852687496129" y1="0" x2="388.9852687496129" y2="6" style="fill: none; stroke: rgb(0, 0, 0); stroke-width: 1px; opacity: 1;"></line><line x1="432.5" y1="0" x2="432.5" y2="6" style="fill: none; stroke: rgb(0, 0, 0); stroke-width: 1px; opacity: 1;"></line></g><g id="g110" class="type-rule" style="pointer-events: none;"></g><g id="g111" class="type-text"><text x="0.5" y="9" text-anchor="middle" dy=".9em" style="font-style: normal; font-variant: normal; font-weight: normal; font-size: 11px; line-height: normal; font-family: sans-serif; fill: rgb(0, 0, 0); opacity: 1;">2.0</text><text x="70.15456852550082" y="9" text-anchor="middle" dy=".9em" style="font-style: normal; font-variant: normal; font-weight: normal; font-size: 11px; line-height: normal; font-family: sans-serif; fill: rgb(0, 0, 0); opacity: 1;">2.5</text><text x="133.1271119945885" y="9" text-anchor="middle" dy=".9em" style="font-style: normal; font-variant: normal; font-weight: normal; font-size: 11px; line-height: normal; font-family: sans-serif; fill: rgb(0, 0, 0); opacity: 1;">3.0</text><text x="191.036342215329" y="9" text-anchor="middle" dy=".9em" style="font-style: normal; font-variant: normal; font-weight: normal; font-size: 11px; line-height: normal; font-family: sans-serif; fill: rgb(0, 0, 0); opacity: 1;">3.5</text><text x="244.93693947887755" y="9" text-anchor="middle" dy=".9em" style="font-style: normal; font-variant: normal; font-weight: normal; font-size: 11px; line-height: normal; font-family: sans-serif; fill: rgb(0, 0, 0); opacity: 1;">4.0</text><text x="295.5614872174387" y="9" text-anchor="middle" dy=".9em" style="font-style: normal; font-variant: normal; font-weight: normal; font-size: 11px; line-height: normal; font-family: sans-serif; fill: rgb(0, 0, 0); opacity: 1;">4.5</text><text x="343.443374968887" y="9" text-anchor="middle" dy=".9em" style="font-style: normal; font-variant: normal; font-weight: normal; font-size: 11px; line-height: normal; font-family: sans-serif; fill: rgb(0, 0, 0); opacity: 1;">5.0</text><text x="388.9852687496129" y="9" text-anchor="middle" dy=".9em" style="font-style: normal; font-variant: normal; font-weight: normal; font-size: 11px; line-height: normal; font-family: sans-serif; fill: rgb(0, 0, 0); opacity: 1;">5.5</text><text x="432.5" y="9" text-anchor="middle" dy=".9em" style="font-style: normal; font-variant: normal; font-weight: normal; font-size: 11px; line-height: normal; font-family: sans-serif; fill: rgb(0, 0, 0); opacity: 1;">6.0</text></g><g id="g112" class="type-path" style="pointer-events: none;"><path transform="translate(0.5,0.5)" d="M0,6V0H432V6" style="fill: none; stroke: rgb(0, 0, 0); stroke-width: 1px;"></path></g><g id="g113" class="type-text"><text x="216" y="35" text-anchor="middle" dy=".35em" style="font-weight: bold; font-style: normal; font-variant: normal; font-size: 11px; line-height: normal; font-family: sans-serif; fill: rgb(0, 0, 0);">sqrt(Tree Size)</text></g></g></g><g id="g114" class="type-group"><g transform="translate(0,0)"><rect class="background" width="0" height="0" style="pointer-events: none; fill: none;"></rect><g id="g115" class="type-rule" style="pointer-events: none;"><line x1="0" y1="383.5577862121814" x2="432" y2="383.5577862121814" style="fill: none; stroke: rgb(216, 216, 216); stroke-width: 1px; opacity: 1;"></line><line x1="0" y1="353.0908494823784" x2="432" y2="353.0908494823784" style="fill: none; stroke: rgb(216, 216, 216); stroke-width: 1px; opacity: 1;"></line><line x1="0" y1="322.6239127525755" x2="432" y2="322.6239127525755" style="fill: none; stroke: rgb(216, 216, 216); stroke-width: 1px; opacity: 1;"></line><line x1="0" y1="292.1569760227725" x2="432" y2="292.1569760227725" style="fill: none; stroke: rgb(216, 216, 216); stroke-width: 1px; opacity: 1;"></line><line x1="0" y1="261.69003929296946" x2="432" y2="261.69003929296946" style="fill: none; stroke: rgb(216, 216, 216); stroke-width: 1px; opacity: 1;"></line><line x1="0" y1="231.2231025631666" x2="432" y2="231.2231025631666" style="fill: none; stroke: rgb(216, 216, 216); stroke-width: 1px; opacity: 1;"></line><line x1="0" y1="200.7561658333636" x2="432" y2="200.7561658333636" style="fill: none; stroke: rgb(216, 216, 216); stroke-width: 1px; opacity: 1;"></line><line x1="0" y1="170.28922910356061" x2="432" y2="170.28922910356061" style="fill: none; stroke: rgb(216, 216, 216); stroke-width: 1px; opacity: 1;"></line><line x1="0" y1="139.8222923737577" x2="432" y2="139.8222923737577" style="fill: none; stroke: rgb(216, 216, 216); stroke-width: 1px; opacity: 1;"></line><line x1="0" y1="109.35535564395468" x2="432" y2="109.35535564395468" style="fill: none; stroke: rgb(216, 216, 216); stroke-width: 1px; opacity: 1;"></line><line x1="0" y1="78.88841891415171" x2="432" y2="78.88841891415171" style="fill: none; stroke: rgb(216, 216, 216); stroke-width: 1px; opacity: 1;"></line><line x1="0" y1="48.421482184348804" x2="432" y2="48.421482184348804" style="fill: none; stroke: rgb(216, 216, 216); stroke-width: 1px; opacity: 1;"></line><line x1="0" y1="17.954545454545837" x2="432" y2="17.954545454545837" style="fill: none; stroke: rgb(216, 216, 216); stroke-width: 1px; opacity: 1;"></line></g><g id="g116" class="type-rule" style="pointer-events: none;"><line x1="-6" y1="383.5577862121814" x2="0" y2="383.5577862121814" style="fill: none; stroke: rgb(0, 0, 0); stroke-width: 1px; opacity: 1;"></line><line x1="-6" y1="353.0908494823784" x2="0" y2="353.0908494823784" style="fill: none; stroke: rgb(0, 0, 0); stroke-width: 1px; opacity: 1;"></line><line x1="-6" y1="322.6239127525755" x2="0" y2="322.6239127525755" style="fill: none; stroke: rgb(0, 0, 0); stroke-width: 1px; opacity: 1;"></line><line x1="-6" y1="292.1569760227725" x2="0" y2="292.1569760227725" style="fill: none; stroke: rgb(0, 0, 0); stroke-width: 1px; opacity: 1;"></line><line x1="-6" y1="261.69003929296946" x2="0" y2="261.69003929296946" style="fill: none; stroke: rgb(0, 0, 0); stroke-width: 1px; opacity: 1;"></line><line x1="-6" y1="231.2231025631666" x2="0" y2="231.2231025631666" style="fill: none; stroke: rgb(0, 0, 0); stroke-width: 1px; opacity: 1;"></line><line x1="-6" y1="200.7561658333636" x2="0" y2="200.7561658333636" style="fill: none; stroke: rgb(0, 0, 0); stroke-width: 1px; opacity: 1;"></line><line x1="-6" y1="170.28922910356061" x2="0" y2="170.28922910356061" style="fill: none; stroke: rgb(0, 0, 0); stroke-width: 1px; opacity: 1;"></line><line x1="-6" y1="139.8222923737577" x2="0" y2="139.8222923737577" style="fill: none; stroke: rgb(0, 0, 0); stroke-width: 1px; opacity: 1;"></line><line x1="-6" y1="109.35535564395468" x2="0" y2="109.35535564395468" style="fill: none; stroke: rgb(0, 0, 0); stroke-width: 1px; opacity: 1;"></line><line x1="-6" y1="78.88841891415171" x2="0" y2="78.88841891415171" style="fill: none; stroke: rgb(0, 0, 0); stroke-width: 1px; opacity: 1;"></line><line x1="-6" y1="48.421482184348804" x2="0" y2="48.421482184348804" style="fill: none; stroke: rgb(0, 0, 0); stroke-width: 1px; opacity: 1;"></line><line x1="-6" y1="17.954545454545837" x2="0" y2="17.954545454545837" style="fill: none; stroke: rgb(0, 0, 0); stroke-width: 1px; opacity: 1;"></line></g><g id="g117" class="type-rule" style="pointer-events: none;"></g><g id="g118" class="type-text"><text x="-9" y="383.5577862121814" text-anchor="end" dy=".35em" style="font-style: normal; font-variant: normal; font-weight: normal; font-size: 11px; line-height: normal; font-family: sans-serif; fill: rgb(0, 0, 0); opacity: 1;">0.26</text><text x="-9" y="353.0908494823784" text-anchor="end" dy=".35em" style="font-style: normal; font-variant: normal; font-weight: normal; font-size: 11px; line-height: normal; font-family: sans-serif; fill: rgb(0, 0, 0); opacity: 1;">0.28</text><text x="-9" y="322.6239127525755" text-anchor="end" dy=".35em" style="font-style: normal; font-variant: normal; font-weight: normal; font-size: 11px; line-height: normal; font-family: sans-serif; fill: rgb(0, 0, 0); opacity: 1;">0.30</text><text x="-9" y="292.1569760227725" text-anchor="end" dy=".35em" style="font-style: normal; font-variant: normal; font-weight: normal; font-size: 11px; line-height: normal; font-family: sans-serif; fill: rgb(0, 0, 0); opacity: 1;">0.32</text><text x="-9" y="261.69003929296946" text-anchor="end" dy=".35em" style="font-style: normal; font-variant: normal; font-weight: normal; font-size: 11px; line-height: normal; font-family: sans-serif; fill: rgb(0, 0, 0); opacity: 1;">0.34</text><text x="-9" y="231.2231025631666" text-anchor="end" dy=".35em" style="font-style: normal; font-variant: normal; font-weight: normal; font-size: 11px; line-height: normal; font-family: sans-serif; fill: rgb(0, 0, 0); opacity: 1;">0.36</text><text x="-9" y="200.7561658333636" text-anchor="end" dy=".35em" style="font-style: normal; font-variant: normal; font-weight: normal; font-size: 11px; line-height: normal; font-family: sans-serif; fill: rgb(0, 0, 0); opacity: 1;">0.38</text><text x="-9" y="170.28922910356061" text-anchor="end" dy=".35em" style="font-style: normal; font-variant: normal; font-weight: normal; font-size: 11px; line-height: normal; font-family: sans-serif; fill: rgb(0, 0, 0); opacity: 1;">0.40</text><text x="-9" y="139.8222923737577" text-anchor="end" dy=".35em" style="font-style: normal; font-variant: normal; font-weight: normal; font-size: 11px; line-height: normal; font-family: sans-serif; fill: rgb(0, 0, 0); opacity: 1;">0.42</text><text x="-9" y="109.35535564395468" text-anchor="end" dy=".35em" style="font-style: normal; font-variant: normal; font-weight: normal; font-size: 11px; line-height: normal; font-family: sans-serif; fill: rgb(0, 0, 0); opacity: 1;">0.44</text><text x="-9" y="78.88841891415171" text-anchor="end" dy=".35em" style="font-style: normal; font-variant: normal; font-weight: normal; font-size: 11px; line-height: normal; font-family: sans-serif; fill: rgb(0, 0, 0); opacity: 1;">0.46</text><text x="-9" y="48.421482184348804" text-anchor="end" dy=".35em" style="font-style: normal; font-variant: normal; font-weight: normal; font-size: 11px; line-height: normal; font-family: sans-serif; fill: rgb(0, 0, 0); opacity: 1;">0.48</text><text x="-9" y="17.954545454545837" text-anchor="end" dy=".35em" style="font-style: normal; font-variant: normal; font-weight: normal; font-size: 11px; line-height: normal; font-family: sans-serif; fill: rgb(0, 0, 0); opacity: 1;">0.50</text></g><g id="g119" class="type-path" style="pointer-events: none;"><path transform="translate(0.5,0.5)" d="M-6,0H0V384H-6" style="fill: none; stroke: rgb(0, 0, 0); stroke-width: 1px;"></path></g><g id="g120" class="type-text"><text x="-35" y="192" text-anchor="middle" transform="rotate(-90 -35,192)" dy=".35em" style="font-weight: bold; font-style: normal; font-variant: normal; font-size: 11px; line-height: normal; font-family: sans-serif; fill: rgb(0, 0, 0);">Error Rate</text></g></g></g><g id="g121" class="type-symbol"><path transform="translate(432,366.5454545454541)" d="M0,5.372375223776156A5.372375223776156,5.372375223776156 0 1,1 0,-5.372375223776156A5.372375223776156,5.372375223776156 0 1,1 0,5.372375223776156Z" style="fill: rgb(31, 119, 180); stroke: rgb(255, 255, 255); stroke-width: 1px;"></path><path transform="translate(342.943374968887,333.801047631558)" d="M0,5.236841888261204A5.236841888261204,5.236841888261204 0 1,1 0,-5.236841888261204A5.236841888261204,5.236841888261204 0 1,1 0,5.236841888261204Z" style="fill: rgb(44, 160, 44); stroke: rgb(255, 255, 255); stroke-width: 1px;"></path><path transform="translate(244.43693947887755,308.0918868685524)" d="M0,5.26775100422782A5.26775100422782,5.26775100422782 0 1,1 0,-5.26775100422782A5.26775100422782,5.26775100422782 0 1,1 0,5.26775100422782Z" style="fill: rgb(214, 39, 40); stroke: rgb(255, 255, 255); stroke-width: 1px;"></path><path transform="translate(244.43693947887755,301.47380061716456)" d="M0,5.372375223776156A5.372375223776156,5.372375223776156 0 1,1 0,-5.372375223776156A5.372375223776156,5.372375223776156 0 1,1 0,5.372375223776156Z" style="fill: rgb(31, 119, 180); stroke: rgb(255, 255, 255); stroke-width: 1px;"></path><path transform="translate(132.6271119945885,292.44832502874215)" d="M0,2.5231325220201604A2.5231325220201604,2.5231325220201604 0 1,1 0,-2.5231325220201604A2.5231325220201604,2.5231325220201604 0 1,1 0,2.5231325220201604Z" style="fill: rgb(255, 127, 14); stroke: rgb(255, 255, 255); stroke-width: 1px;"></path><path transform="translate(244.43693947887755,290.4755658027965)" d="M0,5.26775100422782A5.26775100422782,5.26775100422782 0 1,1 0,-5.26775100422782A5.26775100422782,5.26775100422782 0 1,1 0,5.26775100422782Z" style="fill: rgb(214, 39, 40); stroke: rgb(255, 255, 255); stroke-width: 1px;"></path><path transform="translate(132.6271119945885,240.2469950123907)" d="M0,5.641895835477563A5.641895835477563,5.641895835477563 0 1,1 0,-5.641895835477563A5.641895835477563,5.641895835477563 0 1,1 0,5.641895835477563Z" style="fill: rgb(255, 127, 14); stroke: rgb(255, 255, 255); stroke-width: 1px;"></path><path transform="translate(0,177.2829012879487)" d="M0,5.372375223776156A5.372375223776156,5.372375223776156 0 1,1 0,-5.372375223776156A5.372375223776156,5.372375223776156 0 1,1 0,5.372375223776156Z" style="fill: rgb(31, 119, 180); stroke: rgb(255, 255, 255); stroke-width: 1px;"></path><path transform="translate(0,173.3209021271867)" d="M0,5.641895835477563A5.641895835477563,5.641895835477563 0 1,1 0,-5.641895835477563A5.641895835477563,5.641895835477563 0 1,1 0,5.641895835477563Z" style="fill: rgb(255, 127, 14); stroke: rgb(255, 255, 255); stroke-width: 1px;"></path><path transform="translate(0,163.27919988779118)" d="M0,2.5231325220201604A2.5231325220201604,2.5231325220201604 0 1,1 0,-2.5231325220201604A2.5231325220201604,2.5231325220201604 0 1,1 0,2.5231325220201604Z" style="fill: rgb(255, 127, 14); stroke: rgb(255, 255, 255); stroke-width: 1px;"></path><path transform="translate(132.6271119945885,142.4179570127788)" d="M0,5.210202418046922A5.210202418046922,5.210202418046922 0 1,1 0,-5.210202418046922A5.210202418046922,5.210202418046922 0 1,1 0,5.210202418046922Z" style="fill: rgb(44, 160, 44); stroke: rgb(255, 255, 255); stroke-width: 1px;"></path><path transform="translate(0,136.05353449224702)" d="M0,5.223539135474586A5.223539135474586,5.223539135474586 0 1,1 0,-5.223539135474586A5.223539135474586,5.223539135474586 0 1,1 0,5.223539135474586Z" style="fill: rgb(44, 160, 44); stroke: rgb(255, 255, 255); stroke-width: 1px;"></path><path transform="translate(244.43693947887755,134.1869567953814)" d="M0,5.174469789539321A5.174469789539321,5.174469789539321 0 1,1 0,-5.174469789539321A5.174469789539321,5.174469789539321 0 1,1 0,5.174469789539321Z" style="fill: rgb(214, 39, 40); stroke: rgb(255, 255, 255); stroke-width: 1px;"></path><path transform="translate(0,131.53719536676087)" d="M0,5.637783665954929A5.637783665954929,5.637783665954929 0 1,1 0,-5.637783665954929A5.637783665954929,5.637783665954929 0 1,1 0,5.637783665954929Z" style="fill: rgb(255, 127, 14); stroke: rgb(255, 255, 255); stroke-width: 1px;"></path><path transform="translate(0,128.47949329706162)" d="M0,5.250110934586026A5.250110934586026,5.250110934586026 0 1,1 0,-5.250110934586026A5.250110934586026,5.250110934586026 0 1,1 0,5.250110934586026Z" style="fill: rgb(214, 39, 40); stroke: rgb(255, 255, 255); stroke-width: 1px;"></path><path transform="translate(0,126.65422181099348)" d="M0,5.617177662559187A5.617177662559187,5.617177662559187 0 1,1 0,-5.617177662559187A5.617177662559187,5.617177662559187 0 1,1 0,5.617177662559187Z" style="fill: rgb(255, 127, 14); stroke: rgb(255, 255, 255); stroke-width: 1px;"></path><path transform="translate(0,126.26411247229123)" d="M0,5.633668494847504A5.633668494847504,5.633668494847504 0 1,1 0,-5.633668494847504A5.633668494847504,5.633668494847504 0 1,1 0,5.633668494847504Z" style="fill: rgb(255, 127, 14); stroke: rgb(255, 255, 255); stroke-width: 1px;"></path><path transform="translate(0,121.90837275962394)" d="M0,5.637783665954929A5.637783665954929,5.637783665954929 0 1,1 0,-5.637783665954929A5.637783665954929,5.637783665954929 0 1,1 0,5.637783665954929Z" style="fill: rgb(255, 127, 14); stroke: rgb(255, 255, 255); stroke-width: 1px;"></path><path transform="translate(0,120.83068605418111)" d="M0,5.359408892987296A5.359408892987296,5.359408892987296 0 1,1 0,-5.359408892987296A5.359408892987296,5.359408892987296 0 1,1 0,5.359408892987296Z" style="fill: rgb(31, 119, 180); stroke: rgb(255, 255, 255); stroke-width: 1px;"></path><path transform="translate(0,117.25555709377443)" d="M0,5.363734486018316A5.363734486018316,5.363734486018316 0 1,1 0,-5.363734486018316A5.363734486018316,5.363734486018316 0 1,1 0,5.363734486018316Z" style="fill: rgb(31, 119, 180); stroke: rgb(255, 255, 255); stroke-width: 1px;"></path><path transform="translate(0,116.2075877670689)" d="M0,5.241268636209943A5.241268636209943,5.241268636209943 0 1,1 0,-5.241268636209943A5.241268636209943,5.241268636209943 0 1,1 0,5.241268636209943Z" style="fill: rgb(214, 39, 40); stroke: rgb(255, 255, 255); stroke-width: 1px;"></path><path transform="translate(0,115.38816835297587)" d="M0,5.250110934586026A5.250110934586026,5.250110934586026 0 1,1 0,-5.250110934586026A5.250110934586026,5.250110934586026 0 1,1 0,5.250110934586026Z" style="fill: rgb(214, 39, 40); stroke: rgb(255, 255, 255); stroke-width: 1px;"></path><path transform="translate(0,111.70383998579825)" d="M0,5.210202418046922A5.210202418046922,5.210202418046922 0 1,1 0,-5.210202418046922A5.210202418046922,5.210202418046922 0 1,1 0,5.210202418046922Z" style="fill: rgb(44, 160, 44); stroke: rgb(255, 255, 255); stroke-width: 1px;"></path><path transform="translate(0,110.42635242118615)" d="M0,5.363734486018316A5.363734486018316,5.363734486018316 0 1,1 0,-5.363734486018316A5.363734486018316,5.363734486018316 0 1,1 0,5.363734486018316Z" style="fill: rgb(31, 119, 180); stroke: rgb(255, 255, 255); stroke-width: 1px;"></path><path transform="translate(0,109.44626598815535)" d="M0,3.40017655453542A3.40017655453542,3.40017655453542 0 1,1 0,-3.40017655453542A3.40017655453542,3.40017655453542 0 1,1 0,3.40017655453542Z" style="fill: rgb(255, 127, 14); stroke: rgb(255, 255, 255); stroke-width: 1px;"></path><path transform="translate(0,108.31050076512184)" d="M0,2.648692712163471A2.648692712163471,2.648692712163471 0 1,1 0,-2.648692712163471A2.648692712163471,2.648692712163471 0 1,1 0,2.648692712163471Z" style="fill: rgb(214, 39, 40); stroke: rgb(255, 255, 255); stroke-width: 1px;"></path><path transform="translate(0,107.82257812769001)" d="M0,2.826594439100874A2.826594439100874,2.826594439100874 0 1,1 0,-2.826594439100874A2.826594439100874,2.826594439100874 0 1,1 0,2.826594439100874Z" style="fill: rgb(214, 39, 40); stroke: rgb(255, 255, 255); stroke-width: 1px;"></path><path transform="translate(132.6271119945885,103.1859837723236)" d="M0,5.236841888261204A5.236841888261204,5.236841888261204 0 1,1 0,-5.236841888261204A5.236841888261204,5.236841888261204 0 1,1 0,5.236841888261204Z" style="fill: rgb(214, 39, 40); stroke: rgb(255, 255, 255); stroke-width: 1px;"></path><path transform="translate(0,102.34256155091214)" d="M0,5.329031431914742A5.329031431914742,5.329031431914742 0 1,1 0,-5.329031431914742A5.329031431914742,5.329031431914742 0 1,1 0,5.329031431914742Z" style="fill: rgb(31, 119, 180); stroke: rgb(255, 255, 255); stroke-width: 1px;"></path><path transform="translate(0,102.28836367254746)" d="M0,5.232411395176827A5.232411395176827,5.232411395176827 0 1,1 0,-5.232411395176827A5.232411395176827,5.232411395176827 0 1,1 0,5.232411395176827Z" style="fill: rgb(44, 160, 44); stroke: rgb(255, 255, 255); stroke-width: 1px;"></path><path transform="translate(132.6271119945885,100.39827236158311)" d="M0,5.236841888261204A5.236841888261204,5.236841888261204 0 1,1 0,-5.236841888261204A5.236841888261204,5.236841888261204 0 1,1 0,5.236841888261204Z" style="fill: rgb(44, 160, 44); stroke: rgb(255, 255, 255); stroke-width: 1px;"></path><path transform="translate(0,99.91660535580354)" d="M0,5.641895835477563A5.641895835477563,5.641895835477563 0 1,1 0,-5.641895835477563A5.641895835477563,5.641895835477563 0 1,1 0,5.641895835477563Z" style="fill: rgb(255, 127, 14); stroke: rgb(255, 255, 255); stroke-width: 1px;"></path><path transform="translate(0,99.68149490523933)" d="M0,5.232411395176827A5.232411395176827,5.232411395176827 0 1,1 0,-5.232411395176827A5.232411395176827,5.232411395176827 0 1,1 0,5.232411395176827Z" style="fill: rgb(44, 160, 44); stroke: rgb(255, 255, 255); stroke-width: 1px;"></path><path transform="translate(0,95.20966636635126)" d="M0,5.263346529373907A5.263346529373907,5.263346529373907 0 1,1 0,-5.263346529373907A5.263346529373907,5.263346529373907 0 1,1 0,5.263346529373907Z" style="fill: rgb(214, 39, 40); stroke: rgb(255, 255, 255); stroke-width: 1px;"></path><path transform="translate(0,94.81793477031528)" d="M0,5.26775100422782A5.26775100422782,5.26775100422782 0 1,1 0,-5.26775100422782A5.26775100422782,5.26775100422782 0 1,1 0,5.26775100422782Z" style="fill: rgb(214, 39, 40); stroke: rgb(255, 255, 255); stroke-width: 1px;"></path><path transform="translate(0,88.97954120237046)" d="M0,5.637783665954929A5.637783665954929,5.637783665954929 0 1,1 0,-5.637783665954929A5.637783665954929,5.637783665954929 0 1,1 0,5.637783665954929Z" style="fill: rgb(255, 127, 14); stroke: rgb(255, 255, 255); stroke-width: 1px;"></path><path transform="translate(0,76.51660402338877)" d="M0,5.6254291215244745A5.6254291215244745,5.6254291215244745 0 1,1 0,-5.6254291215244745A5.6254291215244745,5.6254291215244745 0 1,1 0,5.6254291215244745Z" style="fill: rgb(255, 127, 14); stroke: rgb(255, 255, 255); stroke-width: 1px;"></path><path transform="translate(0,69.75200023668663)" d="M0,5.363734486018316A5.363734486018316,5.363734486018316 0 1,1 0,-5.363734486018316A5.363734486018316,5.363734486018316 0 1,1 0,5.363734486018316Z" style="fill: rgb(31, 119, 180); stroke: rgb(255, 255, 255); stroke-width: 1px;"></path><path transform="translate(0,69.71919020459308)" d="M0,5.250110934586026A5.250110934586026,5.250110934586026 0 1,1 0,-5.250110934586026A5.250110934586026,5.250110934586026 0 1,1 0,5.250110934586026Z" style="fill: rgb(214, 39, 40); stroke: rgb(255, 255, 255); stroke-width: 1px;"></path><path transform="translate(0,69.62395766311289)" d="M0,5.633668494847504A5.633668494847504,5.633668494847504 0 1,1 0,-5.633668494847504A5.633668494847504,5.633668494847504 0 1,1 0,5.633668494847504Z" style="fill: rgb(255, 127, 14); stroke: rgb(255, 255, 255); stroke-width: 1px;"></path><path transform="translate(0,69.1957087049908)" d="M0,5.617177662559187A5.617177662559187,5.617177662559187 0 1,1 0,-5.617177662559187A5.617177662559187,5.617177662559187 0 1,1 0,5.617177662559187Z" style="fill: rgb(255, 127, 14); stroke: rgb(255, 255, 255); stroke-width: 1px;"></path><path transform="translate(0,65.28893423831107)" d="M0,5.372375223776156A5.372375223776156,5.372375223776156 0 1,1 0,-5.372375223776156A5.372375223776156,5.372375223776156 0 1,1 0,5.372375223776156Z" style="fill: rgb(31, 119, 180); stroke: rgb(255, 255, 255); stroke-width: 1px;"></path><path transform="translate(132.6271119945885,64.0876118777133)" d="M0,3.9901494086654687A3.9901494086654687,3.9901494086654687 0 1,1 0,-3.9901494086654687A3.9901494086654687,3.9901494086654687 0 1,1 0,3.9901494086654687Z" style="fill: rgb(44, 160, 44); stroke: rgb(255, 255, 255); stroke-width: 1px;"></path><path transform="translate(0,62.25886417484378)" d="M0,5.210202418046922A5.210202418046922,5.210202418046922 0 1,1 0,-5.210202418046922A5.210202418046922,5.210202418046922 0 1,1 0,5.210202418046922Z" style="fill: rgb(44, 160, 44); stroke: rgb(255, 255, 255); stroke-width: 1px;"></path><path transform="translate(0,53.51862775781569)" d="M0,5.26775100422782A5.26775100422782,5.26775100422782 0 1,1 0,-5.26775100422782A5.26775100422782,5.26775100422782 0 1,1 0,5.26775100422782Z" style="fill: rgb(214, 39, 40); stroke: rgb(255, 255, 255); stroke-width: 1px;"></path><path transform="translate(0,49.02650061496297)" d="M0,5.294100902718835A5.294100902718835,5.294100902718835 0 1,1 0,-5.294100902718835A5.294100902718835,5.294100902718835 0 1,1 0,5.294100902718835Z" style="fill: rgb(31, 119, 180); stroke: rgb(255, 255, 255); stroke-width: 1px;"></path><path transform="translate(0,48.16718328700904)" d="M0,5.329031431914742A5.329031431914742,5.329031431914742 0 1,1 0,-5.329031431914742A5.329031431914742,5.329031431914742 0 1,1 0,5.329031431914742Z" style="fill: rgb(31, 119, 180); stroke: rgb(255, 255, 255); stroke-width: 1px;"></path><path transform="translate(132.6271119945885,17.454545454545837)" d="M0,5.236841888261204A5.236841888261204,5.236841888261204 0 1,1 0,-5.236841888261204A5.236841888261204,5.236841888261204 0 1,1 0,5.236841888261204Z" style="fill: rgb(214, 39, 40); stroke: rgb(255, 255, 255); stroke-width: 1px;"></path><path transform="translate(0,17.454545454545837)" d="M0,5.26775100422782A5.26775100422782,5.26775100422782 0 1,1 0,-5.26775100422782A5.26775100422782,5.26775100422782 0 1,1 0,5.26775100422782Z" style="fill: rgb(214, 39, 40); stroke: rgb(255, 255, 255); stroke-width: 1px;"></path></g><g id="g122" class="type-text"><text x="439" y="369.5454545454541" text-anchor="start" style="font-style: normal; font-variant: normal; font-weight: normal; font-size: 12px; line-height: normal; font-family: sans-serif; fill: rgb(51, 51, 51);">Gender</text><text x="349.943374968887" y="336.801047631558" text-anchor="start" style="font-style: normal; font-variant: normal; font-weight: normal; font-size: 12px; line-height: normal; font-family: sans-serif; fill: rgb(51, 51, 51);">Gender</text><text x="251.43693947887755" y="311.0918868685524" text-anchor="start" style="font-style: normal; font-variant: normal; font-weight: normal; font-size: 12px; line-height: normal; font-family: sans-serif; fill: rgb(51, 51, 51);">Gender</text><text x="251.43693947887755" y="304.47380061716456" text-anchor="start" style="font-style: normal; font-variant: normal; font-weight: normal; font-size: 12px; line-height: normal; font-family: sans-serif; fill: rgb(51, 51, 51);"></text><text x="139.6271119945885" y="295.44832502874215" text-anchor="start" style="font-style: normal; font-variant: normal; font-weight: normal; font-size: 12px; line-height: normal; font-family: sans-serif; fill: rgb(51, 51, 51);">thyroid-nodules</text><text x="251.43693947887755" y="293.4755658027965" text-anchor="start" style="font-style: normal; font-variant: normal; font-weight: normal; font-size: 12px; line-height: normal; font-family: sans-serif; fill: rgb(51, 51, 51);">size_(139,164]</text><text x="139.6271119945885" y="243.2469950123907" text-anchor="start" style="font-style: normal; font-variant: normal; font-weight: normal; font-size: 12px; line-height: normal; font-family: sans-serif; fill: rgb(51, 51, 51);">Gender</text><text x="7" y="180.2829012879487" text-anchor="start" style="font-style: normal; font-variant: normal; font-weight: normal; font-size: 12px; line-height: normal; font-family: sans-serif; fill: rgb(51, 51, 51);">body-fat-percent_(0.3,22.9]</text><text x="7" y="176.3209021271867" text-anchor="start" style="font-style: normal; font-variant: normal; font-weight: normal; font-size: 12px; line-height: normal; font-family: sans-serif; fill: rgb(51, 51, 51);"></text><text x="7" y="166.27919988779118" text-anchor="start" style="font-style: normal; font-variant: normal; font-weight: normal; font-size: 12px; line-height: normal; font-family: sans-serif; fill: rgb(51, 51, 51);">Hypothyroidism</text><text x="139.6271119945885" y="145.4179570127788" text-anchor="start" style="font-style: normal; font-variant: normal; font-weight: normal; font-size: 12px; line-height: normal; font-family: sans-serif; fill: rgb(51, 51, 51);">nutrition-sausage_1 - Daily or almost daily</text><text x="7" y="139.05353449224702" text-anchor="start" style="font-style: normal; font-variant: normal; font-weight: normal; font-size: 12px; line-height: normal; font-family: sans-serif; fill: rgb(51, 51, 51);">attentiveness-disorder_2 - hardly</text><text x="251.43693947887755" y="137.1869567953814" text-anchor="start" style="font-style: normal; font-variant: normal; font-weight: normal; font-size: 12px; line-height: normal; font-family: sans-serif; fill: rgb(51, 51, 51);">Increased-blood-lipid</text><text x="7" y="134.53719536676087" text-anchor="start" style="font-style: normal; font-variant: normal; font-weight: normal; font-size: 12px; line-height: normal; font-family: sans-serif; fill: rgb(51, 51, 51);"></text><text x="7" y="131.47949329706162" text-anchor="start" style="font-style: normal; font-variant: normal; font-weight: normal; font-size: 12px; line-height: normal; font-family: sans-serif; fill: rgb(51, 51, 51);"></text><text x="7" y="129.65422181099348" text-anchor="start" style="font-style: normal; font-variant: normal; font-weight: normal; font-size: 12px; line-height: normal; font-family: sans-serif; fill: rgb(51, 51, 51);"></text><text x="7" y="129.26411247229123" text-anchor="start" style="font-style: normal; font-variant: normal; font-weight: normal; font-size: 12px; line-height: normal; font-family: sans-serif; fill: rgb(51, 51, 51);"></text><text x="7" y="124.90837275962394" text-anchor="start" style="font-style: normal; font-variant: normal; font-weight: normal; font-size: 12px; line-height: normal; font-family: sans-serif; fill: rgb(51, 51, 51);">insomnia_1 - not at all</text><text x="7" y="123.83068605418111" text-anchor="start" style="font-style: normal; font-variant: normal; font-weight: normal; font-size: 12px; line-height: normal; font-family: sans-serif; fill: rgb(51, 51, 51);"></text><text x="7" y="120.25555709377443" text-anchor="start" style="font-style: normal; font-variant: normal; font-weight: normal; font-size: 12px; line-height: normal; font-family: sans-serif; fill: rgb(51, 51, 51);"></text><text x="7" y="119.2075877670689" text-anchor="start" style="font-style: normal; font-variant: normal; font-weight: normal; font-size: 12px; line-height: normal; font-family: sans-serif; fill: rgb(51, 51, 51);"></text><text x="7" y="118.38816835297587" text-anchor="start" style="font-style: normal; font-variant: normal; font-weight: normal; font-size: 12px; line-height: normal; font-family: sans-serif; fill: rgb(51, 51, 51);"></text><text x="7" y="114.70383998579825" text-anchor="start" style="font-style: normal; font-variant: normal; font-weight: normal; font-size: 12px; line-height: normal; font-family: sans-serif; fill: rgb(51, 51, 51);"></text><text x="7" y="113.42635242118615" text-anchor="start" style="font-style: normal; font-variant: normal; font-weight: normal; font-size: 12px; line-height: normal; font-family: sans-serif; fill: rgb(51, 51, 51);"></text><text x="7" y="112.44626598815535" text-anchor="start" style="font-style: normal; font-variant: normal; font-weight: normal; font-size: 12px; line-height: normal; font-family: sans-serif; fill: rgb(51, 51, 51);"></text><text x="7" y="111.31050076512184" text-anchor="start" style="font-style: normal; font-variant: normal; font-weight: normal; font-size: 12px; line-height: normal; font-family: sans-serif; fill: rgb(51, 51, 51);"></text><text x="7" y="110.82257812769001" text-anchor="start" style="font-style: normal; font-variant: normal; font-weight: normal; font-size: 12px; line-height: normal; font-family: sans-serif; fill: rgb(51, 51, 51);">hard-working-years</text><text x="139.6271119945885" y="106.1859837723236" text-anchor="start" style="font-style: normal; font-variant: normal; font-weight: normal; font-size: 12px; line-height: normal; font-family: sans-serif; fill: rgb(51, 51, 51);">meteorosensitivity_2 - hardly</text><text x="7" y="105.34256155091214" text-anchor="start" style="font-style: normal; font-variant: normal; font-weight: normal; font-size: 12px; line-height: normal; font-family: sans-serif; fill: rgb(51, 51, 51);"></text><text x="7" y="105.28836367254746" text-anchor="start" style="font-style: normal; font-variant: normal; font-weight: normal; font-size: 12px; line-height: normal; font-family: sans-serif; fill: rgb(51, 51, 51);"></text><text x="139.6271119945885" y="103.39827236158311" text-anchor="start" style="font-style: normal; font-variant: normal; font-weight: normal; font-size: 12px; line-height: normal; font-family: sans-serif; fill: rgb(51, 51, 51);"></text><text x="7" y="102.91660535580354" text-anchor="start" style="font-style: normal; font-variant: normal; font-weight: normal; font-size: 12px; line-height: normal; font-family: sans-serif; fill: rgb(51, 51, 51);"></text><text x="7" y="102.68149490523933" text-anchor="start" style="font-style: normal; font-variant: normal; font-weight: normal; font-size: 12px; line-height: normal; font-family: sans-serif; fill: rgb(51, 51, 51);"></text><text x="7" y="98.20966636635126" text-anchor="start" style="font-style: normal; font-variant: normal; font-weight: normal; font-size: 12px; line-height: normal; font-family: sans-serif; fill: rgb(51, 51, 51);"></text><text x="7" y="97.81793477031528" text-anchor="start" style="font-style: normal; font-variant: normal; font-weight: normal; font-size: 12px; line-height: normal; font-family: sans-serif; fill: rgb(51, 51, 51);"></text><text x="7" y="91.97954120237046" text-anchor="start" style="font-style: normal; font-variant: normal; font-weight: normal; font-size: 12px; line-height: normal; font-family: sans-serif; fill: rgb(51, 51, 51);">body-fat-percent_(27.8,34.1]</text><text x="7" y="79.51660402338877" text-anchor="start" style="font-style: normal; font-variant: normal; font-weight: normal; font-size: 12px; line-height: normal; font-family: sans-serif; fill: rgb(51, 51, 51);"></text><text x="7" y="72.75200023668663" text-anchor="start" style="font-style: normal; font-variant: normal; font-weight: normal; font-size: 12px; line-height: normal; font-family: sans-serif; fill: rgb(51, 51, 51);">marital-status_1 - Married, living with spouse</text><text x="7" y="72.71919020459308" text-anchor="start" style="font-style: normal; font-variant: normal; font-weight: normal; font-size: 12px; line-height: normal; font-family: sans-serif; fill: rgb(51, 51, 51);"></text><text x="7" y="72.62395766311289" text-anchor="start" style="font-style: normal; font-variant: normal; font-weight: normal; font-size: 12px; line-height: normal; font-family: sans-serif; fill: rgb(51, 51, 51);"></text><text x="7" y="72.1957087049908" text-anchor="start" style="font-style: normal; font-variant: normal; font-weight: normal; font-size: 12px; line-height: normal; font-family: sans-serif; fill: rgb(51, 51, 51);"></text><text x="7" y="68.28893423831107" text-anchor="start" style="font-style: normal; font-variant: normal; font-weight: normal; font-size: 12px; line-height: normal; font-family: sans-serif; fill: rgb(51, 51, 51);"></text><text x="139.6271119945885" y="67.0876118777133" text-anchor="start" style="font-style: normal; font-variant: normal; font-weight: normal; font-size: 12px; line-height: normal; font-family: sans-serif; fill: rgb(51, 51, 51);">radiating-backpain_4 - Yes, Radiating to the lower leg</text><text x="7" y="65.25886417484378" text-anchor="start" style="font-style: normal; font-variant: normal; font-weight: normal; font-size: 12px; line-height: normal; font-family: sans-serif; fill: rgb(51, 51, 51);"></text><text x="7" y="56.51862775781569" text-anchor="start" style="font-style: normal; font-variant: normal; font-weight: normal; font-size: 12px; line-height: normal; font-family: sans-serif; fill: rgb(51, 51, 51);">body-fat-percent_(34.1,52.7]</text><text x="7" y="52.02650061496297" text-anchor="start" style="font-style: normal; font-variant: normal; font-weight: normal; font-size: 12px; line-height: normal; font-family: sans-serif; fill: rgb(51, 51, 51);"></text><text x="7" y="51.16718328700904" text-anchor="start" style="font-style: normal; font-variant: normal; font-weight: normal; font-size: 12px; line-height: normal; font-family: sans-serif; fill: rgb(51, 51, 51);"></text><text x="139.6271119945885" y="20.454545454545837" text-anchor="start" style="font-style: normal; font-variant: normal; font-weight: normal; font-size: 12px; line-height: normal; font-family: sans-serif; fill: rgb(51, 51, 51);">nutrition-cake_1 - Daily or almost daily</text><text x="7" y="20.454545454545837" text-anchor="start" style="font-style: normal; font-variant: normal; font-weight: normal; font-size: 12px; line-height: normal; font-family: sans-serif; fill: rgb(51, 51, 51);">triglycerides_(0.28,0.96]</text></g><g id="g123" class="type-group"><g transform="translate(491.5,0.5)"><rect class="background" width="63" height="76" style="pointer-events: none; fill: none;"></rect><g id="g124" class="type-text" style="pointer-events: none;"><text x="3" y="3" text-anchor="start" dy=".9em" style="font-weight: bold; font-style: normal; font-variant: normal; font-size: 11px; line-height: normal; font-family: sans-serif; fill: rgb(0, 0, 0); opacity: 1;">group</text></g><g id="g125" class="type-symbol" style="pointer-events: none;"><path transform="translate(7.5,23)" d="M0,3.989422804014327A3.989422804014327,3.989422804014327 0 1,1 0,-3.989422804014327A3.989422804014327,3.989422804014327 0 1,1 0,3.989422804014327Z" style="fill: rgb(31, 119, 180); stroke: rgb(136, 136, 136); stroke-width: 1px; opacity: 1;"></path><path transform="translate(7.5,38)" d="M0,3.989422804014327A3.989422804014327,3.989422804014327 0 1,1 0,-3.989422804014327A3.989422804014327,3.989422804014327 0 1,1 0,3.989422804014327Z" style="fill: rgb(255, 127, 14); stroke: rgb(136, 136, 136); stroke-width: 1px; opacity: 1;"></path><path transform="translate(7.5,53)" d="M0,3.989422804014327A3.989422804014327,3.989422804014327 0 1,1 0,-3.989422804014327A3.989422804014327,3.989422804014327 0 1,1 0,3.989422804014327Z" style="fill: rgb(44, 160, 44); stroke: rgb(136, 136, 136); stroke-width: 1px; opacity: 1;"></path><path transform="translate(7.5,68)" d="M0,3.989422804014327A3.989422804014327,3.989422804014327 0 1,1 0,-3.989422804014327A3.989422804014327,3.989422804014327 0 1,1 0,3.989422804014327Z" style="fill: rgb(214, 39, 40); stroke: rgb(136, 136, 136); stroke-width: 1px; opacity: 1;"></path></g><g id="g126" class="type-text" style="pointer-events: none;"><text x="16" y="23" text-anchor="start" dy=".35em" style="font-style: normal; font-variant: normal; font-weight: normal; font-size: 10px; line-height: normal; font-family: sans-serif; fill: rgb(0, 0, 0); opacity: 1;">(21,43.8]</text><text x="16" y="38" text-anchor="start" dy=".35em" style="font-style: normal; font-variant: normal; font-weight: normal; font-size: 10px; line-height: normal; font-family: sans-serif; fill: rgb(0, 0, 0); opacity: 1;">(43.8,54]</text><text x="16" y="53" text-anchor="start" dy=".35em" style="font-style: normal; font-variant: normal; font-weight: normal; font-size: 10px; line-height: normal; font-family: sans-serif; fill: rgb(0, 0, 0); opacity: 1;">(54,64]</text><text x="16" y="68" text-anchor="start" dy=".35em" style="font-style: normal; font-variant: normal; font-weight: normal; font-size: 10px; line-height: normal; font-family: sans-serif; fill: rgb(0, 0, 0); opacity: 1;">(64,90]</text></g></g></g></g></g></g></svg>