<?xml version="1.0" encoding="UTF-8" standalone="no"?>
<svg
   xmlns:dc="http://purl.org/dc/elements/1.1/"
   xmlns:cc="http://creativecommons.org/ns#"
   xmlns:rdf="http://www.w3.org/1999/02/22-rdf-syntax-ns#"
   xmlns:svg="http://www.w3.org/2000/svg"
   xmlns="http://www.w3.org/2000/svg"
   xmlns:sodipodi="http://sodipodi.sourceforge.net/DTD/sodipodi-0.dtd"
   xmlns:inkscape="http://www.inkscape.org/namespaces/inkscape"
   class="marks"
   width="671"
   height="439"
   id="svg2985"
   version="1.1"
   inkscape:version="0.48.4 r9943 custom"
   sodipodi:docname="plot_id335320670.svg">
  <metadata
     id="metadata3460">
    <rdf:RDF>
      <cc:Work
         rdf:about="">
        <dc:format>image/svg+xml</dc:format>
        <dc:type
           rdf:resource="http://purl.org/dc/dcmitype/StillImage" />
      </cc:Work>
    </rdf:RDF>
  </metadata>
  <defs
     id="defs3458" />
  <sodipodi:namedview
     pagecolor="#ffffff"
     bordercolor="#666666"
     borderopacity="1"
     objecttolerance="10"
     gridtolerance="10"
     guidetolerance="10"
     inkscape:pageopacity="0"
     inkscape:pageshadow="2"
     inkscape:window-width="1440"
     inkscape:window-height="856"
     id="namedview3456"
     showgrid="false"
     inkscape:zoom="1"
     inkscape:cx="335.5"
     inkscape:cy="219.5"
     inkscape:window-x="0"
     inkscape:window-y="22"
     inkscape:window-maximized="0"
     inkscape:current-layer="svg2985" />
  <rect
     y="7"
     x="46"
     id="rect2992"
     style="fill:none"
     height="384"
     width="432"
     class="background" />
  <rect
     y="391"
     x="46"
     id="rect2997"
     style="fill:none"
     height="0"
     width="0"
     class="background" />
  <g
     class="type-rule"
     id="g192"
     transform="translate(46,391)">
    <line
       id="line3000"
       style="fill:none;stroke:#d8d8d8;stroke-width:1px"
       y2="0"
       x2="0.5"
       y1="-384"
       x1="0.5" />
    <line
       id="line3002"
       style="fill:none;stroke:#d8d8d8;stroke-width:1px"
       y2="0"
       x2="51.490685"
       y1="-384"
       x1="51.490685" />
    <line
       id="line3004"
       style="fill:none;stroke:#d8d8d8;stroke-width:1px"
       y2="0"
       x2="97.589783"
       y1="-384"
       x1="97.589783" />
    <line
       id="line3006"
       style="fill:none;stroke:#d8d8d8;stroke-width:1px"
       y2="0"
       x2="139.98228"
       y1="-384"
       x1="139.98228" />
    <line
       id="line3008"
       style="fill:none;stroke:#d8d8d8;stroke-width:1px"
       y2="0"
       x2="179.44026"
       y1="-384"
       x1="179.44026" />
    <line
       id="line3010"
       style="fill:none;stroke:#d8d8d8;stroke-width:1px"
       y2="0"
       x2="216.5"
       y1="-384"
       x1="216.5" />
    <line
       id="line3012"
       style="fill:none;stroke:#d8d8d8;stroke-width:1px"
       y2="0"
       x2="251.55197"
       y1="-384"
       x1="251.55197" />
    <line
       id="line3014"
       style="fill:none;stroke:#d8d8d8;stroke-width:1px"
       y2="0"
       x2="284.89096"
       y1="-384"
       x1="284.89096" />
    <line
       id="line3016"
       style="fill:none;stroke:#d8d8d8;stroke-width:1px"
       y2="0"
       x2="316.74594"
       y1="-384"
       x1="316.74594" />
    <line
       id="line3018"
       style="fill:none;stroke:#d8d8d8;stroke-width:1px"
       y2="0"
       x2="347.29907"
       y1="-384"
       x1="347.29907" />
    <line
       id="line3020"
       style="fill:none;stroke:#d8d8d8;stroke-width:1px"
       y2="0"
       x2="376.698"
       y1="-384"
       x1="376.698" />
    <line
       id="line3022"
       style="fill:none;stroke:#d8d8d8;stroke-width:1px"
       y2="0"
       x2="405.06439"
       y1="-384"
       x1="405.06439" />
    <line
       id="line3024"
       style="fill:none;stroke:#d8d8d8;stroke-width:1px"
       y2="0"
       x2="432.5"
       y1="-384"
       x1="432.5" />
  </g>
  <g
     class="type-rule"
     id="g193"
     transform="translate(46,391)">
    <line
       id="line3027"
       style="fill:none;stroke:#000000;stroke-width:1px"
       y2="6"
       x2="0.5"
       y1="0"
       x1="0.5" />
    <line
       id="line3029"
       style="fill:none;stroke:#000000;stroke-width:1px"
       y2="6"
       x2="51.490685"
       y1="0"
       x1="51.490685" />
    <line
       id="line3031"
       style="fill:none;stroke:#000000;stroke-width:1px"
       y2="6"
       x2="97.589783"
       y1="0"
       x1="97.589783" />
    <line
       id="line3033"
       style="fill:none;stroke:#000000;stroke-width:1px"
       y2="6"
       x2="139.98228"
       y1="0"
       x1="139.98228" />
    <line
       id="line3035"
       style="fill:none;stroke:#000000;stroke-width:1px"
       y2="6"
       x2="179.44026"
       y1="0"
       x1="179.44026" />
    <line
       id="line3037"
       style="fill:none;stroke:#000000;stroke-width:1px"
       y2="6"
       x2="216.5"
       y1="0"
       x1="216.5" />
    <line
       id="line3039"
       style="fill:none;stroke:#000000;stroke-width:1px"
       y2="6"
       x2="251.55197"
       y1="0"
       x1="251.55197" />
    <line
       id="line3041"
       style="fill:none;stroke:#000000;stroke-width:1px"
       y2="6"
       x2="284.89096"
       y1="0"
       x1="284.89096" />
    <line
       id="line3043"
       style="fill:none;stroke:#000000;stroke-width:1px"
       y2="6"
       x2="316.74594"
       y1="0"
       x1="316.74594" />
    <line
       id="line3045"
       style="fill:none;stroke:#000000;stroke-width:1px"
       y2="6"
       x2="347.29907"
       y1="0"
       x1="347.29907" />
    <line
       id="line3047"
       style="fill:none;stroke:#000000;stroke-width:1px"
       y2="6"
       x2="376.698"
       y1="0"
       x1="376.698" />
    <line
       id="line3049"
       style="fill:none;stroke:#000000;stroke-width:1px"
       y2="6"
       x2="405.06439"
       y1="0"
       x1="405.06439" />
    <line
       id="line3051"
       style="fill:none;stroke:#000000;stroke-width:1px"
       y2="6"
       x2="432.5"
       y1="0"
       x1="432.5" />
  </g>
  <g
     class="type-rule"
     id="g194"
     transform="translate(46,391)" />
  <g
     class="type-text"
     id="g195"
     transform="translate(46,399)">
    <text
       id="text3055"
       style="font-size:11px;font-style:normal;font-variant:normal;font-weight:normal;line-height:normal;text-anchor:middle;fill:#000000;font-family:sans-serif"
       dy="0"
       y="9"
       x="0.5">2.0</text>
    <text
       id="text3057"
       style="font-size:11px;font-style:normal;font-variant:normal;font-weight:normal;line-height:normal;text-anchor:middle;fill:#000000;font-family:sans-serif"
       dy="0"
       y="9"
       x="51.490685">2.5</text>
    <text
       id="text3059"
       style="font-size:11px;font-style:normal;font-variant:normal;font-weight:normal;line-height:normal;text-anchor:middle;fill:#000000;font-family:sans-serif"
       dy="0"
       y="9"
       x="97.589783">3.0</text>
    <text
       id="text3061"
       style="font-size:11px;font-style:normal;font-variant:normal;font-weight:normal;line-height:normal;text-anchor:middle;fill:#000000;font-family:sans-serif"
       dy="0"
       y="9"
       x="139.98228">3.5</text>
    <text
       id="text3063"
       style="font-size:11px;font-style:normal;font-variant:normal;font-weight:normal;line-height:normal;text-anchor:middle;fill:#000000;font-family:sans-serif"
       dy="0"
       y="9"
       x="179.44026">4.0</text>
    <text
       id="text3065"
       style="font-size:11px;font-style:normal;font-variant:normal;font-weight:normal;line-height:normal;text-anchor:middle;fill:#000000;font-family:sans-serif"
       dy="0"
       y="9"
       x="216.5">4.5</text>
    <text
       id="text3067"
       style="font-size:11px;font-style:normal;font-variant:normal;font-weight:normal;line-height:normal;text-anchor:middle;fill:#000000;font-family:sans-serif"
       dy="0"
       y="9"
       x="251.55197">5.0</text>
    <text
       id="text3069"
       style="font-size:11px;font-style:normal;font-variant:normal;font-weight:normal;line-height:normal;text-anchor:middle;fill:#000000;font-family:sans-serif"
       dy="0"
       y="9"
       x="284.89096">5.5</text>
    <text
       id="text3071"
       style="font-size:11px;font-style:normal;font-variant:normal;font-weight:normal;line-height:normal;text-anchor:middle;fill:#000000;font-family:sans-serif"
       dy="0"
       y="9"
       x="316.74594">6.0</text>
    <text
       id="text3073"
       style="font-size:11px;font-style:normal;font-variant:normal;font-weight:normal;line-height:normal;text-anchor:middle;fill:#000000;font-family:sans-serif"
       dy="0"
       y="9"
       x="347.29907">6.5</text>
    <text
       id="text3075"
       style="font-size:11px;font-style:normal;font-variant:normal;font-weight:normal;line-height:normal;text-anchor:middle;fill:#000000;font-family:sans-serif"
       dy="0"
       y="9"
       x="376.698">7.0</text>
    <text
       id="text3077"
       style="font-size:11px;font-style:normal;font-variant:normal;font-weight:normal;line-height:normal;text-anchor:middle;fill:#000000;font-family:sans-serif"
       dy="0"
       y="9"
       x="405.06439">7.5</text>
    <text
       id="text3079"
       style="font-size:11px;font-style:normal;font-variant:normal;font-weight:normal;line-height:normal;text-anchor:middle;fill:#000000;font-family:sans-serif"
       dy="0"
       y="9"
       x="432.5">8.0</text>
  </g>
  <g
     class="type-path"
     id="g196"
     transform="translate(46,391)">
    <path
       inkscape:connector-curvature="0"
       id="path3082"
       style="fill:none;stroke:#000000;stroke-width:1px"
       d="M 0,6 V 0 h 432 v 6"
       transform="translate(0.5,0.5)" />
  </g>
  <g
     class="type-text"
     id="g197"
     transform="translate(46,391)">
    <text
       id="text3085"
       style="font-size:11px;font-style:normal;font-variant:normal;font-weight:bold;line-height:normal;text-anchor:middle;fill:#000000;font-family:sans-serif"
       dy="0"
       y="35"
       x="216">sqrt(Tree Size)</text>
  </g>
  <rect
     y="7"
     x="46"
     id="rect3090"
     style="fill:none"
     height="0"
     width="0"
     class="background" />
  <g
     class="type-rule"
     id="g199"
     transform="translate(46,7)">
    <line
       id="line3093"
       style="fill:none;stroke:#d8d8d8;stroke-width:1px"
       y2="361.96649"
       x2="432"
       y1="361.96649"
       x1="0" />
    <line
       id="line3095"
       style="fill:none;stroke:#d8d8d8;stroke-width:1px"
       y2="326.11237"
       x2="432"
       y1="326.11237"
       x1="0" />
    <line
       id="line3097"
       style="fill:none;stroke:#d8d8d8;stroke-width:1px"
       y2="290.25821"
       x2="432"
       y1="290.25821"
       x1="0" />
    <line
       id="line3099"
       style="fill:none;stroke:#d8d8d8;stroke-width:1px"
       y2="254.40407"
       x2="432"
       y1="254.40407"
       x1="0" />
    <line
       id="line3101"
       style="fill:none;stroke:#d8d8d8;stroke-width:1px"
       y2="218.54993"
       x2="432"
       y1="218.54993"
       x1="0" />
    <line
       id="line3103"
       style="fill:none;stroke:#d8d8d8;stroke-width:1px"
       y2="182.69579"
       x2="432"
       y1="182.69579"
       x1="0" />
    <line
       id="line3105"
       style="fill:none;stroke:#d8d8d8;stroke-width:1px"
       y2="146.84166"
       x2="432"
       y1="146.84166"
       x1="0" />
    <line
       id="line3107"
       style="fill:none;stroke:#d8d8d8;stroke-width:1px"
       y2="110.98751"
       x2="432"
       y1="110.98751"
       x1="0" />
    <line
       id="line3109"
       style="fill:none;stroke:#d8d8d8;stroke-width:1px"
       y2="75.133377"
       x2="432"
       y1="75.133377"
       x1="0" />
    <line
       id="line3111"
       style="fill:none;stroke:#d8d8d8;stroke-width:1px"
       y2="39.279236"
       x2="432"
       y1="39.279236"
       x1="0" />
    <line
       id="line3113"
       style="fill:none;stroke:#d8d8d8;stroke-width:1px"
       y2="3.4250963"
       x2="432"
       y1="3.4250963"
       x1="0" />
  </g>
  <g
     class="type-rule"
     id="g200"
     transform="translate(46,7)">
    <line
       id="line3116"
       style="fill:none;stroke:#000000;stroke-width:1px"
       y2="361.96649"
       x2="0"
       y1="361.96649"
       x1="-6" />
    <line
       id="line3118"
       style="fill:none;stroke:#000000;stroke-width:1px"
       y2="326.11237"
       x2="0"
       y1="326.11237"
       x1="-6" />
    <line
       id="line3120"
       style="fill:none;stroke:#000000;stroke-width:1px"
       y2="290.25821"
       x2="0"
       y1="290.25821"
       x1="-6" />
    <line
       id="line3122"
       style="fill:none;stroke:#000000;stroke-width:1px"
       y2="254.40407"
       x2="0"
       y1="254.40407"
       x1="-6" />
    <line
       id="line3124"
       style="fill:none;stroke:#000000;stroke-width:1px"
       y2="218.54993"
       x2="0"
       y1="218.54993"
       x1="-6" />
    <line
       id="line3126"
       style="fill:none;stroke:#000000;stroke-width:1px"
       y2="182.69579"
       x2="0"
       y1="182.69579"
       x1="-6" />
    <line
       id="line3128"
       style="fill:none;stroke:#000000;stroke-width:1px"
       y2="146.84166"
       x2="0"
       y1="146.84166"
       x1="-6" />
    <line
       id="line3130"
       style="fill:none;stroke:#000000;stroke-width:1px"
       y2="110.98751"
       x2="0"
       y1="110.98751"
       x1="-6" />
    <line
       id="line3132"
       style="fill:none;stroke:#000000;stroke-width:1px"
       y2="75.133377"
       x2="0"
       y1="75.133377"
       x1="-6" />
    <line
       id="line3134"
       style="fill:none;stroke:#000000;stroke-width:1px"
       y2="39.279236"
       x2="0"
       y1="39.279236"
       x1="-6" />
    <line
       id="line3136"
       style="fill:none;stroke:#000000;stroke-width:1px"
       y2="3.4250963"
       x2="0"
       y1="3.4250963"
       x1="-6" />
  </g>
  <g
     class="type-rule"
     id="g201"
     transform="translate(46,7)" />
  <g
     class="type-text"
     id="g202"
     transform="translate(46,11)">
    <text
       id="text3140"
       style="font-size:11px;font-style:normal;font-variant:normal;font-weight:normal;line-height:normal;text-anchor:end;fill:#000000;font-family:sans-serif"
       dy="0"
       y="361.96649"
       x="-9">0.28</text>
    <text
       id="text3142"
       style="font-size:11px;font-style:normal;font-variant:normal;font-weight:normal;line-height:normal;text-anchor:end;fill:#000000;font-family:sans-serif"
       dy="0"
       y="326.11237"
       x="-9">0.30</text>
    <text
       id="text3144"
       style="font-size:11px;font-style:normal;font-variant:normal;font-weight:normal;line-height:normal;text-anchor:end;fill:#000000;font-family:sans-serif"
       dy="0"
       y="290.25821"
       x="-9">0.32</text>
    <text
       id="text3146"
       style="font-size:11px;font-style:normal;font-variant:normal;font-weight:normal;line-height:normal;text-anchor:end;fill:#000000;font-family:sans-serif"
       dy="0"
       y="254.40407"
       x="-9">0.34</text>
    <text
       id="text3148"
       style="font-size:11px;font-style:normal;font-variant:normal;font-weight:normal;line-height:normal;text-anchor:end;fill:#000000;font-family:sans-serif"
       dy="0"
       y="218.54993"
       x="-9">0.36</text>
    <text
       id="text3150"
       style="font-size:11px;font-style:normal;font-variant:normal;font-weight:normal;line-height:normal;text-anchor:end;fill:#000000;font-family:sans-serif"
       dy="0"
       y="182.69579"
       x="-9">0.38</text>
    <text
       id="text3152"
       style="font-size:11px;font-style:normal;font-variant:normal;font-weight:normal;line-height:normal;text-anchor:end;fill:#000000;font-family:sans-serif"
       dy="0"
       y="146.84166"
       x="-9">0.40</text>
    <text
       id="text3154"
       style="font-size:11px;font-style:normal;font-variant:normal;font-weight:normal;line-height:normal;text-anchor:end;fill:#000000;font-family:sans-serif"
       dy="0"
       y="110.98751"
       x="-9">0.42</text>
    <text
       id="text3156"
       style="font-size:11px;font-style:normal;font-variant:normal;font-weight:normal;line-height:normal;text-anchor:end;fill:#000000;font-family:sans-serif"
       dy="0"
       y="75.133377"
       x="-9">0.44</text>
    <text
       id="text3158"
       style="font-size:11px;font-style:normal;font-variant:normal;font-weight:normal;line-height:normal;text-anchor:end;fill:#000000;font-family:sans-serif"
       dy="0"
       y="39.279236"
       x="-9">0.46</text>
    <text
       id="text3160"
       style="font-size:11px;font-style:normal;font-variant:normal;font-weight:normal;line-height:normal;text-anchor:end;fill:#000000;font-family:sans-serif"
       dy="0"
       y="3.4250963"
       x="-9">0.48</text>
  </g>
  <g
     class="type-path"
     id="g203"
     transform="translate(46,7)">
    <path
       inkscape:connector-curvature="0"
       id="path3163"
       style="fill:none;stroke:#000000;stroke-width:1px"
       d="M -6,0 H 0 V 384 H -6"
       transform="translate(0.5,0.5)" />
  </g>
  <g
     class="type-text"
     id="g204"
     transform="translate(46,7)">
    <text
       id="text3166"
       style="font-size:11px;font-style:normal;font-variant:normal;font-weight:bold;line-height:normal;text-anchor:middle;fill:#000000;font-family:sans-serif"
       dy="0"
       transform="matrix(0,-1,1,0,-227,157)"
       y="192"
       x="-35">Error Rate</text>
  </g>
  <path
     d="m 297.05197,379.18735 a 5.6418958,5.6418958 0 1 1 0,-11.2838 5.6418958,5.6418958 0 0 1 0,11.2838 z"
     style="fill:#2ca02c;stroke:#ffffff;stroke-width:1px"
     id="path3169"
     inkscape:connector-curvature="0" />
  <path
     d="m 224.94026,314.04223 a 5.6418958,5.6418958 0 1 1 0,-11.2838 5.6418958,5.6418958 0 0 1 0,11.2838 z"
     style="fill:#d62728;stroke:#ffffff;stroke-width:1px"
     id="path3171"
     inkscape:connector-curvature="0" />
  <path
     d="m 46,297.59196 a 5.6418958,5.6418958 0 1 1 0,-11.2838 5.6418958,5.6418958 0 0 1 0,11.2838 z"
     style="fill:#1f77b4;stroke:#ffffff;stroke-width:1px"
     id="path3173"
     inkscape:connector-curvature="0" />
  <path
     d="m 422.198,265.83869 a 5.6418958,5.6418958 0 1 1 0,-11.2838 5.6418958,5.6418958 0 0 1 0,11.2838 z"
     style="fill:#2ca02c;stroke:#ffffff;stroke-width:1px"
     id="path3175"
     inkscape:connector-curvature="0" />
  <path
     d="m 46,255.59813 a 5.6418958,5.6418958 0 1 1 0,-11.2838 5.6418958,5.6418958 0 0 1 0,11.2838 z"
     style="fill:#d62728;stroke:#ffffff;stroke-width:1px"
     id="path3177"
     inkscape:connector-curvature="0" />
  <path
     d="m 478,250.81566 a 5.6334054,5.6334054 0 1 1 0,-11.26682 5.6334054,5.6334054 0 0 1 0,11.26682 z"
     style="fill:#d62728;stroke:#ffffff;stroke-width:1px"
     id="path3179"
     inkscape:connector-curvature="0" />
  <path
     d="m 224.94026,242.06904 a 5.6376522,5.6376522 0 1 1 0,-11.2753 5.6376522,5.6376522 0 0 1 0,11.2753 z"
     style="fill:#1f77b4;stroke:#ffffff;stroke-width:1px"
     id="path3181"
     inkscape:connector-curvature="0" />
  <path
     d="m 224.94026,237.60911 a 3.4523428,3.4523428 0 1 1 0,-6.90468 3.4523428,3.4523428 0 0 1 0,6.90468 z"
     style="fill:#ff7f0e;stroke:#ffffff;stroke-width:1px"
     id="path3183"
     inkscape:connector-curvature="0" />
  <path
     d="m 46,233.1236 a 5.6376522,5.6376522 0 1 1 0,-11.2753 5.6376522,5.6376522 0 0 1 0,11.2753 z"
     style="fill:#1f77b4;stroke:#ffffff;stroke-width:1px"
     id="path3185"
     inkscape:connector-curvature="0" />
  <path
     d="m 46,218.37492 a 2.9271215,2.9271215 0 1 1 0,-5.85424 2.9271215,2.9271215 0 0 1 0,5.85424 z"
     style="fill:#1f77b4;stroke:#ffffff;stroke-width:1px"
     id="path3187"
     inkscape:connector-curvature="0" />
  <path
     d="m 143.08978,202.16112 a 5.6418958,5.6418958 0 1 1 0,-11.2838 5.6418958,5.6418958 0 0 1 0,11.2838 z"
     style="fill:#ff7f0e;stroke:#ffffff;stroke-width:1px"
     id="path3189"
     inkscape:connector-curvature="0" />
  <path
     d="m 46,191.04326 a 3.5548085,3.5548085 0 1 1 0,-7.10962 3.5548085,3.5548085 0 0 1 0,7.10962 z"
     style="fill:#ff7f0e;stroke:#ffffff;stroke-width:1px"
     id="path3191"
     inkscape:connector-curvature="0" />
  <path
     d="m 143.08978,188.15747 a 2.6884546,2.6884546 0 1 1 0,-5.3769 2.6884546,2.6884546 0 0 1 0,5.3769 z"
     style="fill:#2ca02c;stroke:#ffffff;stroke-width:1px"
     id="path3193"
     inkscape:connector-curvature="0" />
  <path
     d="m 224.94026,189.8829 a 5.6249021,5.6249021 0 1 1 0,-11.2498 5.6249021,5.6249021 0 0 1 0,11.2498 z"
     style="fill:#1f77b4;stroke:#ffffff;stroke-width:1px"
     id="path3195"
     inkscape:connector-curvature="0" />
  <path
     d="m 46,180.66687 a 3.0157202,3.0157202 0 1 1 0,-6.03144 3.0157202,3.0157202 0 0 1 0,6.03144 z"
     style="fill:#ff7f0e;stroke:#ffffff;stroke-width:1px"
     id="path3197"
     inkscape:connector-curvature="0" />
  <path
     d="m 143.08978,172.38699 a 3.6934878,3.6934878 0 1 1 0,-7.38698 3.6934878,3.6934878 0 0 1 0,7.38698 z"
     style="fill:#2ca02c;stroke:#ffffff;stroke-width:1px"
     id="path3199"
     inkscape:connector-curvature="0" />
  <path
     d="m 297.05197,168.52914 a 5.6418958,5.6418958 0 1 1 0,-11.2838 5.6418958,5.6418958 0 0 1 0,11.2838 z"
     style="fill:#ff7f0e;stroke:#ffffff;stroke-width:1px"
     id="path3201"
     inkscape:connector-curvature="0" />
  <path
     d="m 143.08978,161.68202 a 5.6418958,5.6418958 0 1 1 0,-11.2838 5.6418958,5.6418958 0 0 1 0,11.2838 z"
     style="fill:#ff7f0e;stroke:#ffffff;stroke-width:1px"
     id="path3203"
     inkscape:connector-curvature="0" />
  <path
     d="m 46,158.78922 a 5.6418958,5.6418958 0 1 1 0,-11.2838 5.6418958,5.6418958 0 0 1 0,11.2838 z"
     style="fill:#ff7f0e;stroke:#ffffff;stroke-width:1px"
     id="path3205"
     inkscape:connector-curvature="0" />
  <path
     d="m 46,156.34387 a 4.4890587,4.4890587 0 1 1 0,-8.97812 4.4890587,4.4890587 0 0 1 0,8.97812 z"
     style="fill:#1f77b4;stroke:#ffffff;stroke-width:1px"
     id="path3207"
     inkscape:connector-curvature="0" />
  <path
     d="m 46,151.38758 a 3.0077736,3.0077736 0 1 1 0,-6.01554 3.0077736,3.0077736 0 0 1 0,6.01554 z"
     style="fill:#d62728;stroke:#ffffff;stroke-width:1px"
     id="path3209"
     inkscape:connector-curvature="0" />
  <path
     d="m 46,143.22138 a 2.9515486,2.9515486 0 1 1 0,-5.9031 2.9515486,2.9515486 0 0 1 0,5.9031 z"
     style="fill:#d62728;stroke:#ffffff;stroke-width:1px"
     id="path3211"
     inkscape:connector-curvature="0" />
  <path
     d="m 46,134.77411 a 2.5231325,2.5231325 0 1 1 0,-5.04626 2.5231325,2.5231325 0 0 1 0,5.04626 z"
     style="fill:#ff7f0e;stroke:#ffffff;stroke-width:1px"
     id="path3213"
     inkscape:connector-curvature="0" />
  <path
     d="m 46,136.49494 a 5.6249021,5.6249021 0 1 1 0,-11.2498 5.6249021,5.6249021 0 0 1 0,11.2498 z"
     style="fill:#d62728;stroke:#ffffff;stroke-width:1px"
     id="path3215"
     inkscape:connector-curvature="0" />
  <path
     d="m 224.94026,127.52223 a 5.6249021,5.6249021 0 1 1 0,-11.2498 5.6249021,5.6249021 0 0 1 0,11.2498 z"
     style="fill:#ff7f0e;stroke:#ffffff;stroke-width:1px"
     id="path3217"
     inkscape:connector-curvature="0" />
  <path
     d="m 46,127.43982 a 5.6418958,5.6418958 0 1 1 0,-11.2838 5.6418958,5.6418958 0 0 1 0,11.2838 z"
     style="fill:#1f77b4;stroke:#ffffff;stroke-width:1px"
     id="path3219"
     inkscape:connector-curvature="0" />
  <path
     d="m 46,126.07515 a 5.6249021,5.6249021 0 1 1 0,-11.2498 5.6249021,5.6249021 0 0 1 0,11.2498 z"
     style="fill:#ff7f0e;stroke:#ffffff;stroke-width:1px"
     id="path3221"
     inkscape:connector-curvature="0" />
  <path
     d="m 143.08978,125.00777 a 5.5821916,5.5821916 0 1 1 0,-11.16438 5.5821916,5.5821916 0 0 1 0,11.16438 z"
     style="fill:#1f77b4;stroke:#ffffff;stroke-width:1px"
     id="path3223"
     inkscape:connector-curvature="0" />
  <path
     d="m 46,123.81559 a 5.6376522,5.6376522 0 1 1 0,-11.2753 5.6376522,5.6376522 0 0 1 0,11.2753 z"
     style="fill:#d62728;stroke:#ffffff;stroke-width:1px"
     id="path3225"
     inkscape:connector-curvature="0" />
  <path
     d="m 46,122.35568 a 5.6334054,5.6334054 0 1 1 0,-11.26682 5.6334054,5.6334054 0 0 1 0,11.26682 z"
     style="fill:#2ca02c;stroke:#ffffff;stroke-width:1px"
     id="path3227"
     inkscape:connector-curvature="0" />
  <path
     d="m 46,121.77126 a 5.6418958,5.6418958 0 1 1 0,-11.2838 5.6418958,5.6418958 0 0 1 0,11.2838 z"
     style="fill:#2ca02c;stroke:#ffffff;stroke-width:1px"
     id="path3229"
     inkscape:connector-curvature="0" />
  <path
     d="m 46,121.4974 a 5.6334054,5.6334054 0 1 1 0,-11.26682 5.6334054,5.6334054 0 0 1 0,11.26682 z"
     style="fill:#ff7f0e;stroke:#ffffff;stroke-width:1px"
     id="path3231"
     inkscape:connector-curvature="0" />
  <path
     d="m 46,117.7333 a 5.6418958,5.6418958 0 1 1 0,-11.2838 5.6418958,5.6418958 0 0 1 0,11.2838 z"
     style="fill:#d62728;stroke:#ffffff;stroke-width:1px"
     id="path3233"
     inkscape:connector-curvature="0" />
  <path
     d="m 143.08978,113.96339 a 5.6418958,5.6418958 0 1 1 0,-11.2838 5.6418958,5.6418958 0 0 1 0,11.2838 z"
     style="fill:#2ca02c;stroke:#ffffff;stroke-width:1px"
     id="path3235"
     inkscape:connector-curvature="0" />
  <path
     d="m 46,111.58451 a 5.6249021,5.6249021 0 1 1 0,-11.2498 5.6249021,5.6249021 0 0 1 0,11.2498 z"
     style="fill:#1f77b4;stroke:#ffffff;stroke-width:1px"
     id="path3237"
     inkscape:connector-curvature="0" />
  <path
     d="m 46,110.74437 a 5.6291554,5.6291554 0 1 1 0,-11.258315 5.6291554,5.6291554 0 0 1 0,11.258315 z"
     style="fill:#d62728;stroke:#ffffff;stroke-width:1px"
     id="path3239"
     inkscape:connector-curvature="0" />
  <path
     d="m 143.08978,109.39436 a 5.6418958,5.6418958 0 1 1 0,-11.283796 5.6418958,5.6418958 0 0 1 0,11.283796 z"
     style="fill:#2ca02c;stroke:#ffffff;stroke-width:1px"
     id="path3241"
     inkscape:connector-curvature="0" />
  <path
     d="m 46,107.00676 a 5.616386,5.616386 0 1 1 0,-11.232776 5.616386,5.616386 0 0 1 0,11.232776 z"
     style="fill:#d62728;stroke:#ffffff;stroke-width:1px"
     id="path3243"
     inkscape:connector-curvature="0" />
  <path
     d="m 46,102.61767 a 5.6249021,5.6249021 0 1 1 0,-11.249807 5.6249021,5.6249021 0 0 1 0,11.249807 z"
     style="fill:#1f77b4;stroke:#ffffff;stroke-width:1px"
     id="path3245"
     inkscape:connector-curvature="0" />
  <path
     d="m 46,102.58959 a 5.6418958,5.6418958 0 1 1 0,-11.283789 5.6418958,5.6418958 0 0 1 0,11.283789 z"
     style="fill:#ff7f0e;stroke:#ffffff;stroke-width:1px"
     id="path3247"
     inkscape:connector-curvature="0" />
  <path
     d="m 46,97.880646 a 5.6334054,5.6334054 0 1 1 0,-11.26681 5.6334054,5.6334054 0 0 1 0,11.26681 z"
     style="fill:#d62728;stroke:#ffffff;stroke-width:1px"
     id="path3249"
     inkscape:connector-curvature="0" />
  <path
     d="m 46,96.319121 a 5.5693145,5.5693145 0 1 1 0,-11.138629 5.5693145,5.5693145 0 0 1 0,11.138629 z"
     style="fill:#1f77b4;stroke:#ffffff;stroke-width:1px"
     id="path3251"
     inkscape:connector-curvature="0" />
  <path
     d="m 46,93.791237 a 3.5949771,3.5949771 0 1 1 0,-7.189954 3.5949771,3.5949771 0 0 1 0,7.189954 z"
     style="fill:#2ca02c;stroke:#ffffff;stroke-width:1px"
     id="path3253"
     inkscape:connector-curvature="0" />
  <path
     d="m 46,94.512648 a 5.6249021,5.6249021 0 1 1 0,-11.249804 5.6249021,5.6249021 0 0 1 0,11.249804 z"
     style="fill:#1f77b4;stroke:#ffffff;stroke-width:1px"
     id="path3255"
     inkscape:connector-curvature="0" />
  <path
     d="m 46,87.646946 a 5.6334054,5.6334054 0 1 1 0,-11.26681 5.6334054,5.6334054 0 0 1 0,11.26681 z"
     style="fill:#ff7f0e;stroke:#ffffff;stroke-width:1px"
     id="path3257"
     inkscape:connector-curvature="0" />
  <path
     d="m 143.08978,81.687039 a 5.6376522,5.6376522 0 1 1 0,-11.275304 5.6376522,5.6376522 0 0 1 0,11.275304 z"
     style="fill:#d62728;stroke:#ffffff;stroke-width:1px"
     id="path3259"
     inkscape:connector-curvature="0" />
  <path
     d="m 46,79.305636 a 5.6206457,5.6206457 0 1 1 0,-11.241292 5.6206457,5.6206457 0 0 1 0,11.241292 z"
     style="fill:#1f77b4;stroke:#ffffff;stroke-width:1px"
     id="path3261"
     inkscape:connector-curvature="0" />
  <path
     d="m 143.08978,65.088325 a 3.5682482,3.5682482 0 1 1 0,-7.136496 3.5682482,3.5682482 0 0 1 0,7.136496 z"
     style="fill:#d62728;stroke:#ffffff;stroke-width:1px"
     id="path3263"
     inkscape:connector-curvature="0" />
  <path
     d="m 46,66.898176 a 5.6334054,5.6334054 0 1 1 0,-11.26681 5.6334054,5.6334054 0 0 1 0,11.26681 z"
     style="fill:#1f77b4;stroke:#ffffff;stroke-width:1px"
     id="path3265"
     inkscape:connector-curvature="0" />
  <path
     d="m 46,64.593692 a 5.5821916,5.5821916 0 1 1 0,-11.164384 5.5821916,5.5821916 0 0 1 0,11.164384 z"
     style="fill:#ff7f0e;stroke:#ffffff;stroke-width:1px"
     id="path3267"
     inkscape:connector-curvature="0" />
  <path
     d="m 224.94026,59.688995 a 5.5864773,5.5864773 0 1 1 0,-11.172954 5.5864773,5.5864773 0 0 1 0,11.172954 z"
     style="fill:#d62728;stroke:#ffffff;stroke-width:1px"
     id="path3269"
     inkscape:connector-curvature="0" />
  <path
     d="m 46,57.739243 a 3.9924212,3.9924212 0 1 1 0,-7.984842 3.9924212,3.9924212 0 0 1 0,7.984842 z"
     style="fill:#d62728;stroke:#ffffff;stroke-width:1px"
     id="path3271"
     inkscape:connector-curvature="0" />
  <path
     d="m 46,58.281711 a 5.6334054,5.6334054 0 1 1 0,-11.26681 5.6334054,5.6334054 0 0 1 0,11.26681 z"
     style="fill:#d62728;stroke:#ffffff;stroke-width:1px"
     id="path3273"
     inkscape:connector-curvature="0" />
  <path
     d="m 46,57.460448 a 5.6418958,5.6418958 0 1 1 0,-11.283792 5.6418958,5.6418958 0 0 1 0,11.283792 z"
     style="fill:#ff7f0e;stroke:#ffffff;stroke-width:1px"
     id="path3275"
     inkscape:connector-curvature="0" />
  <path
     d="m 46,46.428895 a 5.6035875,5.6035875 0 1 1 0,-11.207174 5.6035875,5.6035875 0 0 1 0,11.207174 z"
     style="fill:#2ca02c;stroke:#ffffff;stroke-width:1px"
     id="path3277"
     inkscape:connector-curvature="0" />
  <path
     d="m 46,43.853388 a 5.6376522,5.6376522 0 1 1 0,-11.275304 5.6376522,5.6376522 0 0 1 0,11.275304 z"
     style="fill:#d62728;stroke:#ffffff;stroke-width:1px"
     id="path3279"
     inkscape:connector-curvature="0" />
  <path
     d="m 46,43.164266 a 5.6376522,5.6376522 0 1 1 0,-11.275304 5.6376522,5.6376522 0 0 1 0,11.275304 z"
     style="fill:#2ca02c;stroke:#ffffff;stroke-width:1px"
     id="path3281"
     inkscape:connector-curvature="0" />
  <path
     d="m 46,42.664339 a 5.6334054,5.6334054 0 1 1 0,-11.26681 5.6334054,5.6334054 0 0 1 0,11.26681 z"
     style="fill:#1f77b4;stroke:#ffffff;stroke-width:1px"
     id="path3283"
     inkscape:connector-curvature="0" />
  <path
     d="m 46,39.686966 a 5.6206457,5.6206457 0 1 1 0,-11.241292 5.6206457,5.6206457 0 0 1 0,11.241292 z"
     style="fill:#1f77b4;stroke:#ffffff;stroke-width:1px"
     id="path3285"
     inkscape:connector-curvature="0" />
  <path
     d="m 46,39.297711 a 5.6249021,5.6249021 0 1 1 0,-11.249804 5.6249021,5.6249021 0 0 1 0,11.249804 z"
     style="fill:#ff7f0e;stroke:#ffffff;stroke-width:1px"
     id="path3287"
     inkscape:connector-curvature="0" />
  <path
     d="m 46,37.598805 a 5.6418958,5.6418958 0 1 1 0,-11.283792 5.6418958,5.6418958 0 0 1 0,11.283792 z"
     style="fill:#d62728;stroke:#ffffff;stroke-width:1px"
     id="path3289"
     inkscape:connector-curvature="0" />
  <path
     d="m 46,34.924589 a 5.6418958,5.6418958 0 1 1 0,-11.283792 5.6418958,5.6418958 0 0 1 0,11.283792 z"
     style="fill:#ff7f0e;stroke:#ffffff;stroke-width:1px"
     id="path3291"
     inkscape:connector-curvature="0" />
  <path
     d="m 143.08978,34.82621 a 5.595039,5.595039 0 1 1 0,-11.190078 5.595039,5.595039 0 0 1 0,11.190078 z"
     style="fill:#ff7f0e;stroke:#ffffff;stroke-width:1px"
     id="path3293"
     inkscape:connector-curvature="0" />
  <path
     d="M 46,34.574644 A 5.6249021,5.6249021 0 1 1 46,23.32484 5.6249021,5.6249021 0 0 1 46,34.574644 z"
     style="fill:#1f77b4;stroke:#ffffff;stroke-width:1px"
     id="path3295"
     inkscape:connector-curvature="0" />
  <path
     d="M 46,30.0837 A 5.6291554,5.6291554 0 1 1 46,18.82539 5.6291554,5.6291554 0 0 1 46,30.0837 z"
     style="fill:#1f77b4;stroke:#ffffff;stroke-width:1px"
     id="path3297"
     inkscape:connector-curvature="0" />
  <text
     x="304.05197"
     y="376.54544"
     style="font-size:12px;font-style:normal;font-variant:normal;font-weight:normal;line-height:normal;text-anchor:start;fill:#333333;font-family:sans-serif"
     id="text3300">size_(139,164]</text>
  <text
     x="231.94026"
     y="311.40033"
     style="font-size:12px;font-style:normal;font-variant:normal;font-weight:normal;line-height:normal;text-anchor:start;fill:#333333;font-family:sans-serif"
     id="text3302">Gender</text>
  <text
     x="53"
     y="294.95007"
     style="font-size:12px;font-style:normal;font-variant:normal;font-weight:normal;line-height:normal;text-anchor:start;fill:#333333;font-family:sans-serif"
     id="text3304">Gender</text>
  <text
     x="429.198"
     y="263.19678"
     style="font-size:12px;font-style:normal;font-variant:normal;font-weight:normal;line-height:normal;text-anchor:start;fill:#333333;font-family:sans-serif"
     id="text3306">Gender</text>
  <text
     x="53"
     y="252.95624"
     style="font-size:12px;font-style:normal;font-variant:normal;font-weight:normal;line-height:normal;text-anchor:start;fill:#333333;font-family:sans-serif"
     id="text3308">body_fat_percent_(34.1,52.7]</text>
  <text
     x="485"
     y="248.18225"
     style="font-size:12px;font-style:normal;font-variant:normal;font-weight:normal;line-height:normal;text-anchor:start;fill:#333333;font-family:sans-serif"
     id="text3310">pain_last_7_days</text>
  <text
     x="231.94026"
     y="239.4314"
     style="font-size:12px;font-style:normal;font-variant:normal;font-weight:normal;line-height:normal;text-anchor:start;fill:#333333;font-family:sans-serif"
     id="text3312">Age_(21,43.8]</text>
  <text
     x="231.94026"
     y="237.15677"
     style="font-size:12px;font-style:normal;font-variant:normal;font-weight:normal;line-height:normal;text-anchor:start;fill:#333333;font-family:sans-serif"
     id="text3314" />
  <text
     x="53"
     y="230.48595"
     style="font-size:12px;font-style:normal;font-variant:normal;font-weight:normal;line-height:normal;text-anchor:start;fill:#333333;font-family:sans-serif"
     id="text3316">body_fat_percent_(0.3,22.9]</text>
  <text
     x="53"
     y="218.4478"
     style="font-size:12px;font-style:normal;font-variant:normal;font-weight:normal;line-height:normal;text-anchor:start;fill:#333333;font-family:sans-serif"
     id="text3318" />
  <text
     x="150.08978"
     y="199.51923"
     style="font-size:12px;font-style:normal;font-variant:normal;font-weight:normal;line-height:normal;text-anchor:start;fill:#333333;font-family:sans-serif"
     id="text3320">weight_(41.5,70.5]</text>
  <text
     x="53"
     y="190.48845"
     style="font-size:12px;font-style:normal;font-variant:normal;font-weight:normal;line-height:normal;text-anchor:start;fill:#333333;font-family:sans-serif"
     id="text3322">living_with_partner</text>
  <text
     x="150.08978"
     y="188.46902"
     style="font-size:12px;font-style:normal;font-variant:normal;font-weight:normal;line-height:normal;text-anchor:start;fill:#333333;font-family:sans-serif"
     id="text3324" />
  <text
     x="231.94026"
     y="187.258"
     style="font-size:12px;font-style:normal;font-variant:normal;font-weight:normal;line-height:normal;text-anchor:start;fill:#333333;font-family:sans-serif"
     id="text3326">cold_hypersensitive_1 - not at all</text>
  <text
     x="53"
     y="180.65115"
     style="font-size:12px;font-style:normal;font-variant:normal;font-weight:normal;line-height:normal;text-anchor:start;fill:#333333;font-family:sans-serif"
     id="text3328" />
  <text
     x="150.08978"
     y="171.6935"
     style="font-size:12px;font-style:normal;font-variant:normal;font-weight:normal;line-height:normal;text-anchor:start;fill:#333333;font-family:sans-serif"
     id="text3330">pain_legs_0</text>
  <text
     x="304.05197"
     y="165.88724"
     style="font-size:12px;font-style:normal;font-variant:normal;font-weight:normal;line-height:normal;text-anchor:start;fill:#333333;font-family:sans-serif"
     id="text3332">Gender</text>
  <text
     x="150.08978"
     y="159.04013"
     style="font-size:12px;font-style:normal;font-variant:normal;font-weight:normal;line-height:normal;text-anchor:start;fill:#333333;font-family:sans-serif"
     id="text3334" />
  <text
     x="53"
     y="156.14732"
     style="font-size:12px;font-style:normal;font-variant:normal;font-weight:normal;line-height:normal;text-anchor:start;fill:#333333;font-family:sans-serif"
     id="text3336">body_fat_percent_(0.3,22.9]</text>
  <text
     x="53"
     y="154.85481"
     style="font-size:12px;font-style:normal;font-variant:normal;font-weight:normal;line-height:normal;text-anchor:start;fill:#333333;font-family:sans-serif"
     id="text3338" />
  <text
     x="53"
     y="151.37981"
     style="font-size:12px;font-style:normal;font-variant:normal;font-weight:normal;line-height:normal;text-anchor:start;fill:#333333;font-family:sans-serif"
     id="text3340" />
  <text
     x="53"
     y="143.26984"
     style="font-size:12px;font-style:normal;font-variant:normal;font-weight:normal;line-height:normal;text-anchor:start;fill:#333333;font-family:sans-serif"
     id="text3342" />
  <text
     x="53"
     y="135.25098"
     style="font-size:12px;font-style:normal;font-variant:normal;font-weight:normal;line-height:normal;text-anchor:start;fill:#333333;font-family:sans-serif"
     id="text3344">thyroid_nodules</text>
  <text
     x="53"
     y="133.87004"
     style="font-size:12px;font-style:normal;font-variant:normal;font-weight:normal;line-height:normal;text-anchor:start;fill:#333333;font-family:sans-serif"
     id="text3346" />
  <text
     x="53"
     y="124.79792"
     style="font-size:12px;font-style:normal;font-variant:normal;font-weight:normal;line-height:normal;text-anchor:start;fill:#333333;font-family:sans-serif"
     id="text3350" />
  <text
     x="53"
     y="123.45025"
     style="font-size:12px;font-style:normal;font-variant:normal;font-weight:normal;line-height:normal;text-anchor:start;fill:#333333;font-family:sans-serif"
     id="text3352" />
  <text
     x="150.08978"
     y="122.42558"
     style="font-size:12px;font-style:normal;font-variant:normal;font-weight:normal;line-height:normal;text-anchor:start;fill:#333333;font-family:sans-serif"
     id="text3354">joint_limb_pain_4 - strong</text>
  <text
     x="53"
     y="119.72227"
     style="font-size:12px;font-style:normal;font-variant:normal;font-weight:normal;line-height:normal;text-anchor:start;fill:#333333;font-family:sans-serif"
     id="text3358" />
  <text
     x="53"
     y="119.12936"
     style="font-size:12px;font-style:normal;font-variant:normal;font-weight:normal;line-height:normal;text-anchor:start;fill:#333333;font-family:sans-serif"
     id="text3360" />
  <text
     x="53"
     y="118.86399"
     style="font-size:12px;font-style:normal;font-variant:normal;font-weight:normal;line-height:normal;text-anchor:start;fill:#333333;font-family:sans-serif"
     id="text3362" />
  <text
     x="53"
     y="115.09141"
     style="font-size:12px;font-style:normal;font-variant:normal;font-weight:normal;line-height:normal;text-anchor:start;fill:#333333;font-family:sans-serif"
     id="text3364" />
  <text
     x="150.08978"
     y="111.3215"
     style="font-size:12px;font-style:normal;font-variant:normal;font-weight:normal;line-height:normal;text-anchor:start;fill:#333333;font-family:sans-serif"
     id="text3366" />
  <text
     x="53"
     y="108.95961"
     style="font-size:12px;font-style:normal;font-variant:normal;font-weight:normal;line-height:normal;text-anchor:start;fill:#333333;font-family:sans-serif"
     id="text3368" />
  <text
     x="53"
     y="108.11521"
     style="font-size:12px;font-style:normal;font-variant:normal;font-weight:normal;line-height:normal;text-anchor:start;fill:#333333;font-family:sans-serif"
     id="text3370">tension_1 - not at all</text>
  <text
     x="53"
     y="104.39037"
     style="font-size:12px;font-style:normal;font-variant:normal;font-weight:normal;line-height:normal;text-anchor:start;fill:#333333;font-family:sans-serif"
     id="text3374" />
  <text
     x="53"
     y="99.992767"
     style="font-size:12px;font-style:normal;font-variant:normal;font-weight:normal;line-height:normal;text-anchor:start;fill:#333333;font-family:sans-serif"
     id="text3376" />
  <text
     x="53"
     y="99.947701"
     style="font-size:12px;font-style:normal;font-variant:normal;font-weight:normal;line-height:normal;text-anchor:start;fill:#333333;font-family:sans-serif"
     id="text3378" />
  <text
     x="53"
     y="95.247238"
     style="font-size:12px;font-style:normal;font-variant:normal;font-weight:normal;line-height:normal;text-anchor:start;fill:#333333;font-family:sans-serif"
     id="text3380" />
  <text
     x="53"
     y="93.749809"
     style="font-size:12px;font-style:normal;font-variant:normal;font-weight:normal;line-height:normal;text-anchor:start;fill:#333333;font-family:sans-serif"
     id="text3382">nutrition_sausage_1 - Daily or almost daily</text>
  <text
     x="53"
     y="93.196259"
     style="font-size:12px;font-style:normal;font-variant:normal;font-weight:normal;line-height:normal;text-anchor:start;fill:#333333;font-family:sans-serif"
     id="text3384" />
  <text
     x="53"
     y="91.887749"
     style="font-size:12px;font-style:normal;font-variant:normal;font-weight:normal;line-height:normal;text-anchor:start;fill:#333333;font-family:sans-serif"
     id="text3386" />
  <text
     x="53"
     y="85.013542"
     style="font-size:12px;font-style:normal;font-variant:normal;font-weight:normal;line-height:normal;text-anchor:start;fill:#333333;font-family:sans-serif"
     id="text3388" />
  <text
     x="150.08978"
     y="79.049385"
     style="font-size:12px;font-style:normal;font-variant:normal;font-weight:normal;line-height:normal;text-anchor:start;fill:#333333;font-family:sans-serif"
     id="text3390">size_(139,164]</text>
  <text
     x="53"
     y="64.264771"
     style="font-size:12px;font-style:normal;font-variant:normal;font-weight:normal;line-height:normal;text-anchor:start;fill:#333333;font-family:sans-serif"
     id="text3396" />
  <text
     x="53"
     y="62.011501"
     style="font-size:12px;font-style:normal;font-variant:normal;font-weight:normal;line-height:normal;text-anchor:start;fill:#333333;font-family:sans-serif"
     id="text3398">Increased_blood_lipid</text>
  <text
     x="231.94026"
     y="57.102516"
     style="font-size:12px;font-style:normal;font-variant:normal;font-weight:normal;line-height:normal;text-anchor:start;fill:#333333;font-family:sans-serif"
     id="text3400">neck_shoulder_pain_4 - strong</text>
  <text
     x="53"
     y="56.746822"
     style="font-size:12px;font-style:normal;font-variant:normal;font-weight:normal;line-height:normal;text-anchor:start;fill:#333333;font-family:sans-serif"
     id="text3402" />
  <text
     x="53"
     y="55.648304"
     style="font-size:12px;font-style:normal;font-variant:normal;font-weight:normal;line-height:normal;text-anchor:start;fill:#333333;font-family:sans-serif"
     id="text3404" />
  <text
     x="53"
     y="54.81855"
     style="font-size:12px;font-style:normal;font-variant:normal;font-weight:normal;line-height:normal;text-anchor:start;fill:#333333;font-family:sans-serif"
     id="text3406" />
  <text
     x="53"
     y="43.82531"
     style="font-size:12px;font-style:normal;font-variant:normal;font-weight:normal;line-height:normal;text-anchor:start;fill:#333333;font-family:sans-serif"
     id="text3408">neck_shoulder_pain_3 - moderately</text>
  <text
     x="53"
     y="41.215736"
     style="font-size:12px;font-style:normal;font-variant:normal;font-weight:normal;line-height:normal;text-anchor:start;fill:#333333;font-family:sans-serif"
     id="text3410" />
  <text
     x="53"
     y="40.526615"
     style="font-size:12px;font-style:normal;font-variant:normal;font-weight:normal;line-height:normal;text-anchor:start;fill:#333333;font-family:sans-serif"
     id="text3412" />
  <text
     x="53"
     y="40.030933"
     style="font-size:12px;font-style:normal;font-variant:normal;font-weight:normal;line-height:normal;text-anchor:start;fill:#333333;font-family:sans-serif"
     id="text3414" />
  <text
     x="53"
     y="37.066322"
     style="font-size:12px;font-style:normal;font-variant:normal;font-weight:normal;line-height:normal;text-anchor:start;fill:#333333;font-family:sans-serif"
     id="text3416" />
  <text
     x="53"
     y="36.67281"
     style="font-size:12px;font-style:normal;font-variant:normal;font-weight:normal;line-height:normal;text-anchor:start;fill:#333333;font-family:sans-serif"
     id="text3418" />
  <text
     x="53"
     y="34.956909"
     style="font-size:12px;font-style:normal;font-variant:normal;font-weight:normal;line-height:normal;text-anchor:start;fill:#333333;font-family:sans-serif"
     id="text3420" />
  <text
     x="53"
     y="32.282692"
     style="font-size:12px;font-style:normal;font-variant:normal;font-weight:normal;line-height:normal;text-anchor:start;fill:#333333;font-family:sans-serif"
     id="text3422" />
  <text
     x="150.08978"
     y="32.231171"
     style="font-size:12px;font-style:normal;font-variant:normal;font-weight:normal;line-height:normal;text-anchor:start;fill:#333333;font-family:sans-serif"
     id="text3424">back_pain_induced_social_problems_2 - hardly</text>
  <text
     x="53"
     y="31.949741"
     style="font-size:12px;font-style:normal;font-variant:normal;font-weight:normal;line-height:normal;text-anchor:start;fill:#333333;font-family:sans-serif"
     id="text3426" />
  <g
     transform="translate(593.5,7.5)"
     id="g3431">
    <rect
       class="background"
       width="72"
       height="76"
       style="fill:none"
       id="rect3433"
       x="0"
       y="0" />
    <g
       id="g208"
       class="type-text">
      <text
         x="3"
         y="3"
         dy="0"
         style="font-size:11px;font-style:normal;font-variant:normal;font-weight:bold;line-height:normal;text-anchor:start;fill:#000000;font-family:sans-serif"
         id="text3436">group</text>
    </g>
    <g
       id="g209"
       class="type-symbol">
      <path
         transform="translate(7.5,23)"
         d="M 0,3.9894228 A 3.9894228,3.9894228 0 1 1 0,-3.9894228 3.9894228,3.9894228 0 1 1 0,3.9894228 z"
         style="fill:#1f77b4;stroke:#888888;stroke-width:1px"
         id="path3439"
         inkscape:connector-curvature="0" />
      <path
         transform="translate(7.5,38)"
         d="M 0,3.9894228 A 3.9894228,3.9894228 0 1 1 0,-3.9894228 3.9894228,3.9894228 0 1 1 0,3.9894228 z"
         style="fill:#ff7f0e;stroke:#888888;stroke-width:1px"
         id="path3441"
         inkscape:connector-curvature="0" />
      <path
         transform="translate(7.5,53)"
         d="M 0,3.9894228 A 3.9894228,3.9894228 0 1 1 0,-3.9894228 3.9894228,3.9894228 0 1 1 0,3.9894228 z"
         style="fill:#2ca02c;stroke:#888888;stroke-width:1px"
         id="path3443"
         inkscape:connector-curvature="0" />
      <path
         transform="translate(7.5,68)"
         d="M 0,3.9894228 A 3.9894228,3.9894228 0 1 1 0,-3.9894228 3.9894228,3.9894228 0 1 1 0,3.9894228 z"
         style="fill:#d62728;stroke:#888888;stroke-width:1px"
         id="path3445"
         inkscape:connector-curvature="0" />
    </g>
    <g
       id="g210"
       class="type-text">
      <text
         x="16"
         y="23"
         dy="0"
         style="font-size:10px;font-style:normal;font-variant:normal;font-weight:normal;line-height:normal;text-anchor:start;fill:#000000;font-family:sans-serif"
         id="text3448">(17.7,24.7]</text>
      <text
         x="16"
         y="38"
         dy="0"
         style="font-size:10px;font-style:normal;font-variant:normal;font-weight:normal;line-height:normal;text-anchor:start;fill:#000000;font-family:sans-serif"
         id="text3450">(24.7,27.4]</text>
      <text
         x="16"
         y="53"
         dy="0"
         style="font-size:10px;font-style:normal;font-variant:normal;font-weight:normal;line-height:normal;text-anchor:start;fill:#000000;font-family:sans-serif"
         id="text3452">(27.4,30.5]</text>
      <text
         x="16"
         y="68"
         dy="0"
         style="font-size:10px;font-style:normal;font-variant:normal;font-weight:normal;line-height:normal;text-anchor:start;fill:#000000;font-family:sans-serif"
         id="text3454">(30.5,48]</text>
    </g>
  </g>
</svg>
