<svg class="marks" width="702" height="438" xmlns="http://www.w3.org/2000/svg"><g transform="translate(46,6)"><g id="g169" class="type-group"><g transform="translate(0,0)"><rect class="background" width="432" height="384" style="pointer-events: none; fill: none;"></rect><g id="g170" class="type-group"><g transform="translate(0,384)"><rect class="background" width="0" height="0" style="pointer-events: none; fill: none;"></rect><g id="g171" class="type-rule" style="pointer-events: none;"><line x1="55.46167373240488" y1="-384" x2="55.46167373240488" y2="0" style="fill: none; stroke: #d8d8d8; stroke-width: 1px; opacity: 1;"></line><line x1="117.40212626228241" y1="-384" x2="117.40212626228241" y2="0" style="fill: none; stroke: #d8d8d8; stroke-width: 1px; opacity: 1;"></line><line x1="164.9307071360871" y1="-384" x2="164.9307071360871" y2="0" style="fill: none; stroke: #d8d8d8; stroke-width: 1px; opacity: 1;"></line><line x1="204.99915428956209" y1="-384" x2="204.99915428956209" y2="0" style="fill: none; stroke: #d8d8d8; stroke-width: 1px; opacity: 1;"></line><line x1="240.30016488510432" y1="-384" x2="240.30016488510432" y2="0" style="fill: none; stroke: #d8d8d8; stroke-width: 1px; opacity: 1;"></line><line x1="272.2147179616432" y1="-384" x2="272.2147179616432" y2="0" style="fill: none; stroke: #d8d8d8; stroke-width: 1px; opacity: 1;"></line><line x1="301.5631784126421" y1="-384" x2="301.5631784126421" y2="0" style="fill: none; stroke: #d8d8d8; stroke-width: 1px; opacity: 1;"></line><line x1="328.88005934931715" y1="-384" x2="328.88005934931715" y2="0" style="fill: none; stroke: #d8d8d8; stroke-width: 1px; opacity: 1;"></line><line x1="354.5366348467193" y1="-384" x2="354.5366348467193" y2="0" style="fill: none; stroke: #d8d8d8; stroke-width: 1px; opacity: 1;"></line><line x1="378.8032272990093" y1="-384" x2="378.8032272990093" y2="0" style="fill: none; stroke: #d8d8d8; stroke-width: 1px; opacity: 1;"></line><line x1="401.88390827840385" y1="-384" x2="401.88390827840385" y2="0" style="fill: none; stroke: #d8d8d8; stroke-width: 1px; opacity: 1;"></line><line x1="423.9372210969266" y1="-384" x2="423.9372210969266" y2="0" style="fill: none; stroke: #d8d8d8; stroke-width: 1px; opacity: 1;"></line></g><g id="g172" class="type-rule" style="pointer-events: none;"><line x1="55.46167373240488" y1="0" x2="55.46167373240488" y2="6" style="fill: none; stroke: #000000; stroke-width: 1px; opacity: 1;"></line><line x1="117.40212626228241" y1="0" x2="117.40212626228241" y2="6" style="fill: none; stroke: #000000; stroke-width: 1px; opacity: 1;"></line><line x1="164.9307071360871" y1="0" x2="164.9307071360871" y2="6" style="fill: none; stroke: #000000; stroke-width: 1px; opacity: 1;"></line><line x1="204.99915428956209" y1="0" x2="204.99915428956209" y2="6" style="fill: none; stroke: #000000; stroke-width: 1px; opacity: 1;"></line><line x1="240.30016488510432" y1="0" x2="240.30016488510432" y2="6" style="fill: none; stroke: #000000; stroke-width: 1px; opacity: 1;"></line><line x1="272.2147179616432" y1="0" x2="272.2147179616432" y2="6" style="fill: none; stroke: #000000; stroke-width: 1px; opacity: 1;"></line><line x1="301.5631784126421" y1="0" x2="301.5631784126421" y2="6" style="fill: none; stroke: #000000; stroke-width: 1px; opacity: 1;"></line><line x1="328.88005934931715" y1="0" x2="328.88005934931715" y2="6" style="fill: none; stroke: #000000; stroke-width: 1px; opacity: 1;"></line><line x1="354.5366348467193" y1="0" x2="354.5366348467193" y2="6" style="fill: none; stroke: #000000; stroke-width: 1px; opacity: 1;"></line><line x1="378.8032272990093" y1="0" x2="378.8032272990093" y2="6" style="fill: none; stroke: #000000; stroke-width: 1px; opacity: 1;"></line><line x1="401.88390827840385" y1="0" x2="401.88390827840385" y2="6" style="fill: none; stroke: #000000; stroke-width: 1px; opacity: 1;"></line><line x1="423.9372210969266" y1="0" x2="423.9372210969266" y2="6" style="fill: none; stroke: #000000; stroke-width: 1px; opacity: 1;"></line></g><g id="g173" class="type-rule" style="pointer-events: none;"></g><g id="g174" class="type-text"><text x="55.46167373240488" y="9" text-anchor="middle" dy=".9em" style="font-style: normal; font-variant: normal; font-weight: normal; font-size: 11px; line-height: normal; font-family: sans-serif; fill: #000000; opacity: 1;">5</text><text x="117.40212626228241" y="9" text-anchor="middle" dy=".9em" style="font-style: normal; font-variant: normal; font-weight: normal; font-size: 11px; line-height: normal; font-family: sans-serif; fill: #000000; opacity: 1;">10</text><text x="164.9307071360871" y="9" text-anchor="middle" dy=".9em" style="font-style: normal; font-variant: normal; font-weight: normal; font-size: 11px; line-height: normal; font-family: sans-serif; fill: #000000; opacity: 1;">15</text><text x="204.99915428956209" y="9" text-anchor="middle" dy=".9em" style="font-style: normal; font-variant: normal; font-weight: normal; font-size: 11px; line-height: normal; font-family: sans-serif; fill: #000000; opacity: 1;">20</text><text x="240.30016488510432" y="9" text-anchor="middle" dy=".9em" style="font-style: normal; font-variant: normal; font-weight: normal; font-size: 11px; line-height: normal; font-family: sans-serif; fill: #000000; opacity: 1;">25</text><text x="272.2147179616432" y="9" text-anchor="middle" dy=".9em" style="font-style: normal; font-variant: normal; font-weight: normal; font-size: 11px; line-height: normal; font-family: sans-serif; fill: #000000; opacity: 1;">30</text><text x="301.5631784126421" y="9" text-anchor="middle" dy=".9em" style="font-style: normal; font-variant: normal; font-weight: normal; font-size: 11px; line-height: normal; font-family: sans-serif; fill: #000000; opacity: 1;">35</text><text x="328.88005934931715" y="9" text-anchor="middle" dy=".9em" style="font-style: normal; font-variant: normal; font-weight: normal; font-size: 11px; line-height: normal; font-family: sans-serif; fill: #000000; opacity: 1;">40</text><text x="354.5366348467193" y="9" text-anchor="middle" dy=".9em" style="font-style: normal; font-variant: normal; font-weight: normal; font-size: 11px; line-height: normal; font-family: sans-serif; fill: #000000; opacity: 1;">45</text><text x="378.8032272990093" y="9" text-anchor="middle" dy=".9em" style="font-style: normal; font-variant: normal; font-weight: normal; font-size: 11px; line-height: normal; font-family: sans-serif; fill: #000000; opacity: 1;">50</text><text x="401.88390827840385" y="9" text-anchor="middle" dy=".9em" style="font-style: normal; font-variant: normal; font-weight: normal; font-size: 11px; line-height: normal; font-family: sans-serif; fill: #000000; opacity: 1;">55</text><text x="423.9372210969266" y="9" text-anchor="middle" dy=".9em" style="font-style: normal; font-variant: normal; font-weight: normal; font-size: 11px; line-height: normal; font-family: sans-serif; fill: #000000; opacity: 1;">60</text></g><g id="g175" class="type-path" style="pointer-events: none;"><path transform="translate(0.5,0.5)" d="M0,6V0H432V6" style="fill: none; stroke: #000000; stroke-width: 1px;"></path></g><g id="g176" class="type-text"><text x="216" y="35" text-anchor="middle" dy=".35em" style="font-weight: bold; font-style: normal; font-variant: normal; font-size: 11px; line-height: normal; font-family: sans-serif; fill: #000000;">sqrt(Tree Size)</text></g></g></g><g id="g177" class="type-group"><g transform="translate(0,0)"><rect class="background" width="0" height="0" style="pointer-events: none; fill: none;"></rect><g id="g178" class="type-rule" style="pointer-events: none;"><line x1="0" y1="380.13846514284575" x2="432" y2="380.13846514284575" style="fill: none; stroke: #d8d8d8; stroke-width: 1px; opacity: 1;"></line><line x1="0" y1="351.6152428460195" x2="432" y2="351.6152428460195" style="fill: none; stroke: #d8d8d8; stroke-width: 1px; opacity: 1;"></line><line x1="0" y1="323.0920205491932" x2="432" y2="323.0920205491932" style="fill: none; stroke: #d8d8d8; stroke-width: 1px; opacity: 1;"></line><line x1="0" y1="294.568798252367" x2="432" y2="294.568798252367" style="fill: none; stroke: #d8d8d8; stroke-width: 1px; opacity: 1;"></line><line x1="0" y1="266.0455759555407" x2="432" y2="266.0455759555407" style="fill: none; stroke: #d8d8d8; stroke-width: 1px; opacity: 1;"></line><line x1="0" y1="237.52235365871445" x2="432" y2="237.52235365871445" style="fill: none; stroke: #d8d8d8; stroke-width: 1px; opacity: 1;"></line><line x1="0" y1="208.99913136188823" x2="432" y2="208.99913136188823" style="fill: none; stroke: #d8d8d8; stroke-width: 1px; opacity: 1;"></line><line x1="0" y1="180.47590906506193" x2="432" y2="180.47590906506193" style="fill: none; stroke: #d8d8d8; stroke-width: 1px; opacity: 1;"></line><line x1="0" y1="151.95268676823565" x2="432" y2="151.95268676823565" style="fill: none; stroke: #d8d8d8; stroke-width: 1px; opacity: 1;"></line><line x1="0" y1="123.42946447140946" x2="432" y2="123.42946447140946" style="fill: none; stroke: #d8d8d8; stroke-width: 1px; opacity: 1;"></line><line x1="0" y1="94.90624217458321" x2="432" y2="94.90624217458321" style="fill: none; stroke: #d8d8d8; stroke-width: 1px; opacity: 1;"></line><line x1="0" y1="66.38301987775685" x2="432" y2="66.38301987775685" style="fill: none; stroke: #d8d8d8; stroke-width: 1px; opacity: 1;"></line><line x1="0" y1="37.85979758093066" x2="432" y2="37.85979758093066" style="fill: none; stroke: #d8d8d8; stroke-width: 1px; opacity: 1;"></line><line x1="0" y1="9.33657528410447" x2="432" y2="9.33657528410447" style="fill: none; stroke: #d8d8d8; stroke-width: 1px; opacity: 1;"></line></g><g id="g179" class="type-rule" style="pointer-events: none;"><line x1="-6" y1="380.13846514284575" x2="0" y2="380.13846514284575" style="fill: none; stroke: #000000; stroke-width: 1px; opacity: 1;"></line><line x1="-6" y1="351.6152428460195" x2="0" y2="351.6152428460195" style="fill: none; stroke: #000000; stroke-width: 1px; opacity: 1;"></line><line x1="-6" y1="323.0920205491932" x2="0" y2="323.0920205491932" style="fill: none; stroke: #000000; stroke-width: 1px; opacity: 1;"></line><line x1="-6" y1="294.568798252367" x2="0" y2="294.568798252367" style="fill: none; stroke: #000000; stroke-width: 1px; opacity: 1;"></line><line x1="-6" y1="266.0455759555407" x2="0" y2="266.0455759555407" style="fill: none; stroke: #000000; stroke-width: 1px; opacity: 1;"></line><line x1="-6" y1="237.52235365871445" x2="0" y2="237.52235365871445" style="fill: none; stroke: #000000; stroke-width: 1px; opacity: 1;"></line><line x1="-6" y1="208.99913136188823" x2="0" y2="208.99913136188823" style="fill: none; stroke: #000000; stroke-width: 1px; opacity: 1;"></line><line x1="-6" y1="180.47590906506193" x2="0" y2="180.47590906506193" style="fill: none; stroke: #000000; stroke-width: 1px; opacity: 1;"></line><line x1="-6" y1="151.95268676823565" x2="0" y2="151.95268676823565" style="fill: none; stroke: #000000; stroke-width: 1px; opacity: 1;"></line><line x1="-6" y1="123.42946447140946" x2="0" y2="123.42946447140946" style="fill: none; stroke: #000000; stroke-width: 1px; opacity: 1;"></line><line x1="-6" y1="94.90624217458321" x2="0" y2="94.90624217458321" style="fill: none; stroke: #000000; stroke-width: 1px; opacity: 1;"></line><line x1="-6" y1="66.38301987775685" x2="0" y2="66.38301987775685" style="fill: none; stroke: #000000; stroke-width: 1px; opacity: 1;"></line><line x1="-6" y1="37.85979758093066" x2="0" y2="37.85979758093066" style="fill: none; stroke: #000000; stroke-width: 1px; opacity: 1;"></line><line x1="-6" y1="9.33657528410447" x2="0" y2="9.33657528410447" style="fill: none; stroke: #000000; stroke-width: 1px; opacity: 1;"></line></g><g id="g180" class="type-rule" style="pointer-events: none;"></g><g id="g181" class="type-text"><text x="-9" y="380.13846514284575" text-anchor="end" dy=".35em" style="font-style: normal; font-variant: normal; font-weight: normal; font-size: 11px; line-height: normal; font-family: sans-serif; fill: #000000; opacity: 1;">0.24</text><text x="-9" y="351.6152428460195" text-anchor="end" dy=".35em" style="font-style: normal; font-variant: normal; font-weight: normal; font-size: 11px; line-height: normal; font-family: sans-serif; fill: #000000; opacity: 1;">0.26</text><text x="-9" y="323.0920205491932" text-anchor="end" dy=".35em" style="font-style: normal; font-variant: normal; font-weight: normal; font-size: 11px; line-height: normal; font-family: sans-serif; fill: #000000; opacity: 1;">0.28</text><text x="-9" y="294.568798252367" text-anchor="end" dy=".35em" style="font-style: normal; font-variant: normal; font-weight: normal; font-size: 11px; line-height: normal; font-family: sans-serif; fill: #000000; opacity: 1;">0.30</text><text x="-9" y="266.0455759555407" text-anchor="end" dy=".35em" style="font-style: normal; font-variant: normal; font-weight: normal; font-size: 11px; line-height: normal; font-family: sans-serif; fill: #000000; opacity: 1;">0.32</text><text x="-9" y="237.52235365871445" text-anchor="end" dy=".35em" style="font-style: normal; font-variant: normal; font-weight: normal; font-size: 11px; line-height: normal; font-family: sans-serif; fill: #000000; opacity: 1;">0.34</text><text x="-9" y="208.99913136188823" text-anchor="end" dy=".35em" style="font-style: normal; font-variant: normal; font-weight: normal; font-size: 11px; line-height: normal; font-family: sans-serif; fill: #000000; opacity: 1;">0.36</text><text x="-9" y="180.47590906506193" text-anchor="end" dy=".35em" style="font-style: normal; font-variant: normal; font-weight: normal; font-size: 11px; line-height: normal; font-family: sans-serif; fill: #000000; opacity: 1;">0.38</text><text x="-9" y="151.95268676823565" text-anchor="end" dy=".35em" style="font-style: normal; font-variant: normal; font-weight: normal; font-size: 11px; line-height: normal; font-family: sans-serif; fill: #000000; opacity: 1;">0.40</text><text x="-9" y="123.42946447140946" text-anchor="end" dy=".35em" style="font-style: normal; font-variant: normal; font-weight: normal; font-size: 11px; line-height: normal; font-family: sans-serif; fill: #000000; opacity: 1;">0.42</text><text x="-9" y="94.90624217458321" text-anchor="end" dy=".35em" style="font-style: normal; font-variant: normal; font-weight: normal; font-size: 11px; line-height: normal; font-family: sans-serif; fill: #000000; opacity: 1;">0.44</text><text x="-9" y="66.38301987775685" text-anchor="end" dy=".35em" style="font-style: normal; font-variant: normal; font-weight: normal; font-size: 11px; line-height: normal; font-family: sans-serif; fill: #000000; opacity: 1;">0.46</text><text x="-9" y="37.85979758093066" text-anchor="end" dy=".35em" style="font-style: normal; font-variant: normal; font-weight: normal; font-size: 11px; line-height: normal; font-family: sans-serif; fill: #000000; opacity: 1;">0.48</text><text x="-9" y="9.33657528410447" text-anchor="end" dy=".35em" style="font-style: normal; font-variant: normal; font-weight: normal; font-size: 11px; line-height: normal; font-family: sans-serif; fill: #000000; opacity: 1;">0.50</text></g><g id="g182" class="type-path" style="pointer-events: none;"><path transform="translate(0.5,0.5)" d="M-6,0H0V384H-6" style="fill: none; stroke: #000000; stroke-width: 1px;"></path></g><g id="g183" class="type-text"><text x="-35" y="192" text-anchor="middle" transform="rotate(-90 -35,192)" dy=".35em" style="font-weight: bold; font-style: normal; font-variant: normal; font-size: 11px; line-height: normal; font-family: sans-serif; fill: #000000;">Error Rate</text></g></g></g><g id="g184" class="type-symbol"><path transform="translate(155.64825807682755,366.5454545454548)" d="M0,2.9757750982203213A2.9757750982203213,2.9757750982203213 0 1,1 0,-2.9757750982203213A2.9757750982203213,2.9757750982203213 0 1,1 0,2.9757750982203213Z" style="fill: #2ca02c; stroke: #ffffff; stroke-width: 1px;"></path><path transform="translate(172.92497054313299,351.6147910387184)" d="M0,3.007773599920948A3.007773599920948,3.007773599920948 0 1,1 0,-3.007773599920948A3.007773599920948,3.007773599920948 0 1,1 0,3.007773599920948Z" style="fill: #d62728; stroke: #ffffff; stroke-width: 1px;"></path><path transform="translate(358.9938288881291,288.012203556301)" d="M0,5.641895835477563A5.641895835477563,5.641895835477563 0 1,1 0,-5.641895835477563A5.641895835477563,5.641895835477563 0 1,1 0,5.641895835477563Z" style="fill: #1f77b4; stroke: #ffffff; stroke-width: 1px;"></path><path transform="translate(39.174581859190326,274.8072886228352)" d="M0,5.641895835477563A5.641895835477563,5.641895835477563 0 1,1 0,-5.641895835477563A5.641895835477563,5.641895835477563 0 1,1 0,5.641895835477563Z" style="fill: #d62728; stroke: #ffffff; stroke-width: 1px;"></path><path transform="translate(172.92497054313299,272.6415707749205)" d="M0,3.015720175460537A3.015720175460537,3.015720175460537 0 1,1 0,-3.015720175460537A3.015720175460537,3.015720175460537 0 1,1 0,3.015720175460537Z" style="fill: #ff7f0e; stroke: #ffffff; stroke-width: 1px;"></path><path transform="translate(0,261.72052625127674)" d="M0,5.641895835477563A5.641895835477563,5.641895835477563 0 1,1 0,-5.641895835477563A5.641895835477563,5.641895835477563 0 1,1 0,5.641895835477563Z" style="fill: #1f77b4; stroke: #ffffff; stroke-width: 1px;"></path><path transform="translate(82.35932628321761,236.45968642922037)" d="M0,5.641895835477563A5.641895835477563,5.641895835477563 0 1,1 0,-5.641895835477563A5.641895835477563,5.641895835477563 0 1,1 0,5.641895835477563Z" style="fill: #2ca02c; stroke: #ffffff; stroke-width: 1px;"></path><path transform="translate(94.57580682475232,224.51509611691648)" d="M0,5.633405392991209A5.633405392991209,5.633405392991209 0 1,1 0,-5.633405392991209A5.633405392991209,5.633405392991209 0 1,1 0,5.633405392991209Z" style="fill: #d62728; stroke: #ffffff; stroke-width: 1px;"></path><path transform="translate(39.174581859190326,215.74394296354745)" d="M0,3.4523428170273416A3.4523428170273416,3.4523428170273416 0 1,1 0,-3.4523428170273416A3.4523428170273416,3.4523428170273416 0 1,1 0,3.4523428170273416Z" style="fill: #ff7f0e; stroke: #ffffff; stroke-width: 1px;"></path><path transform="translate(328.38005934931715,209.4629773409987)" d="M0,5.641895835477563A5.641895835477563,5.641895835477563 0 1,1 0,-5.641895835477563A5.641895835477563,5.641895835477563 0 1,1 0,5.641895835477563Z" style="fill: #2ca02c; stroke: #ffffff; stroke-width: 1px;"></path><path transform="translate(301.0631784126421,207.8060465274562)" d="M0,5.641895835477563A5.641895835477563,5.641895835477563 0 1,1 0,-5.641895835477563A5.641895835477563,5.641895835477563 0 1,1 0,5.641895835477563Z" style="fill: #ff7f0e; stroke: #ffffff; stroke-width: 1px;"></path><path transform="translate(0,200.86029866482355)" d="M0,2.927121546058222A2.927121546058222,2.927121546058222 0 1,1 0,-2.927121546058222A2.927121546058222,2.927121546058222 0 1,1 0,2.927121546058222Z" style="fill: #1f77b4; stroke: #ffffff; stroke-width: 1px;"></path><path transform="translate(0,178.61766038426066)" d="M0,3.554808454861527A3.554808454861527,3.554808454861527 0 1,1 0,-3.554808454861527A3.554808454861527,3.554808454861527 0 1,1 0,3.554808454861527Z" style="fill: #ff7f0e; stroke: #ffffff; stroke-width: 1px;"></path><path transform="translate(21.255427541584716,177.01112968653877)" d="M0,2.688454647756862A2.688454647756862,2.688454647756862 0 1,1 0,-2.688454647756862A2.688454647756862,2.688454647756862 0 1,1 0,2.688454647756862Z" style="fill: #2ca02c; stroke: #ffffff; stroke-width: 1px;"></path><path transform="translate(54.96167373240488,159.04653166544222)" d="M0,5.641895835477563A5.641895835477563,5.641895835477563 0 1,1 0,-5.641895835477563A5.641895835477563,5.641895835477563 0 1,1 0,5.641895835477563Z" style="fill: #ff7f0e; stroke: #ffffff; stroke-width: 1px;"></path><path transform="translate(0,150.2698517203814)" d="M0,4.489058746952456A4.489058746952456,4.489058746952456 0 1,1 0,-4.489058746952456A4.489058746952456,4.489058746952456 0 1,1 0,4.489058746952456Z" style="fill: #1f77b4; stroke: #ffffff; stroke-width: 1px;"></path><path transform="translate(0,141.05359530585065)" d="M0,2.951548574950651A2.951548574950651,2.951548574950651 0 1,1 0,-2.951548574950651A2.951548574950651,2.951548574950651 0 1,1 0,2.951548574950651Z" style="fill: #d62728; stroke: #ffffff; stroke-width: 1px;"></path><path transform="translate(301.0631784126421,135.8689740352816)" d="M0,5.641895835477563A5.641895835477563,5.641895835477563 0 1,1 0,-5.641895835477563A5.641895835477563,5.641895835477563 0 1,1 0,5.641895835477563Z" style="fill: #d62728; stroke: #ffffff; stroke-width: 1px;"></path><path transform="translate(0,134.67432071127902)" d="M0,2.5231325220201604A2.5231325220201604,2.5231325220201604 0 1,1 0,-2.5231325220201604A2.5231325220201604,2.5231325220201604 0 1,1 0,2.5231325220201604Z" style="fill: #ff7f0e; stroke: #ffffff; stroke-width: 1px;"></path><path transform="translate(306.67535922707566,124.50389899414154)" d="M0,5.641895835477563A5.641895835477563,5.641895835477563 0 1,1 0,-5.641895835477563A5.641895835477563,5.641895835477563 0 1,1 0,5.641895835477563Z" style="fill: #ff7f0e; stroke: #ffffff; stroke-width: 1px;"></path><path transform="translate(373.55055356904694,123.19647063694975)" d="M0,5.633405392991209A5.633405392991209,5.633405392991209 0 1,1 0,-5.633405392991209A5.633405392991209,5.633405392991209 0 1,1 0,5.633405392991209Z" style="fill: #2ca02c; stroke: #ffffff; stroke-width: 1px;"></path><path transform="translate(259.29445939118756,113.67290075364821)" d="M0,5.641895835477563A5.641895835477563,5.641895835477563 0 1,1 0,-5.641895835477563A5.641895835477563,5.641895835477563 0 1,1 0,5.641895835477563Z" style="fill: #2ca02c; stroke: #ffffff; stroke-width: 1px;"></path><path transform="translate(283.727420474257,105.30163319271327)" d="M0,5.641895835477563A5.641895835477563,5.641895835477563 0 1,1 0,-5.641895835477563A5.641895835477563,5.641895835477563 0 1,1 0,5.641895835477563Z" style="fill: #2ca02c; stroke: #ffffff; stroke-width: 1px;"></path><path transform="translate(283.727420474257,102.65425973039959)" d="M0,5.6376522125864375A5.6376522125864375,5.6376522125864375 0 1,1 0,-5.6376522125864375A5.6376522125864375,5.6376522125864375 0 1,1 0,5.6376522125864375Z" style="fill: #1f77b4; stroke: #ffffff; stroke-width: 1px;"></path><path transform="translate(252.91789627425885,102.35667093888964)" d="M0,5.641895835477563A5.641895835477563,5.641895835477563 0 1,1 0,-5.641895835477563A5.641895835477563,5.641895835477563 0 1,1 0,5.641895835477563Z" style="fill: #2ca02c; stroke: #ffffff; stroke-width: 1px;"></path><path transform="translate(396.85450093711887,87.94537450608323)" d="M0,5.629155369456782A5.629155369456782,5.629155369456782 0 1,1 0,-5.629155369456782A5.629155369456782,5.629155369456782 0 1,1 0,5.629155369456782Z" style="fill: #2ca02c; stroke: #ffffff; stroke-width: 1px;"></path><path transform="translate(295.3702343417131,78.0780632300436)" d="M0,5.641895835477563A5.641895835477563,5.641895835477563 0 1,1 0,-5.641895835477563A5.641895835477563,5.641895835477563 0 1,1 0,5.641895835477563Z" style="fill: #2ca02c; stroke: #ffffff; stroke-width: 1px;"></path><path transform="translate(312.2101195250023,76.46300666826568)" d="M0,5.616386002456489A5.616386002456489,5.616386002456489 0 1,1 0,-5.616386002456489A5.616386002456489,5.616386002456489 0 1,1 0,5.616386002456489Z" style="fill: #1f77b4; stroke: #ffffff; stroke-width: 1px;"></path><path transform="translate(0,76.40974895000505)" d="M0,5.582191553700273A5.582191553700273,5.582191553700273 0 1,1 0,-5.582191553700273A5.582191553700273,5.582191553700273 0 1,1 0,5.582191553700273Z" style="fill: #ff7f0e; stroke: #ffffff; stroke-width: 1px;"></path><path transform="translate(289.5929365721075,73.82486125006102)" d="M0,5.633405392991209A5.633405392991209,5.633405392991209 0 1,1 0,-5.633405392991209A5.633405392991209,5.633405392991209 0 1,1 0,5.633405392991209Z" style="fill: #d62728; stroke: #ffffff; stroke-width: 1px;"></path><path transform="translate(155.64825807682755,72.63753947338762)" d="M0,3.9864221094912136A3.9864221094912136,3.9864221094912136 0 1,1 0,-3.9864221094912136A3.9864221094912136,3.9864221094912136 0 1,1 0,3.9864221094912136Z" style="fill: #d62728; stroke: #ffffff; stroke-width: 1px;"></path><path transform="translate(383.0086072133297,71.13280336299084)" d="M0,5.624902134720728A5.624902134720728,5.624902134720728 0 1,1 0,-5.624902134720728A5.624902134720728,5.624902134720728 0 1,1 0,5.624902134720728Z" style="fill: #ff7f0e; stroke: #ffffff; stroke-width: 1px;"></path><path transform="translate(259.29445939118756,69.7398867006786)" d="M0,5.6376522125864375A5.6376522125864375,5.6376522125864375 0 1,1 0,-5.6376522125864375A5.6376522125864375,5.6376522125864375 0 1,1 0,5.6376522125864375Z" style="fill: #d62728; stroke: #ffffff; stroke-width: 1px;"></path><path transform="translate(246.42211410026925,68.37849961414616)" d="M0,5.633405392991209A5.633405392991209,5.633405392991209 0 1,1 0,-5.633405392991209A5.633405392991209,5.633405392991209 0 1,1 0,5.633405392991209Z" style="fill: #d62728; stroke: #ffffff; stroke-width: 1px;"></path><path transform="translate(312.2101195250023,62.128457109642625)" d="M0,5.5693145087441165A5.5693145087441165,5.5693145087441165 0 1,1 0,-5.5693145087441165A5.5693145087441165,5.5693145087441165 0 1,1 0,5.5693145087441165Z" style="fill: #1f77b4; stroke: #ffffff; stroke-width: 1px;"></path><path transform="translate(189.1516136495046,23.58887066251532)" d="M0,5.633405392991209A5.633405392991209,5.633405392991209 0 1,1 0,-5.633405392991209A5.633405392991209,5.633405392991209 0 1,1 0,5.633405392991209Z" style="fill: #2ca02c; stroke: #ffffff; stroke-width: 1px;"></path><path transform="translate(181.15768318090403,22.692467706022057)" d="M0,4.331689062356536A4.331689062356536,4.331689062356536 0 1,1 0,-4.331689062356536A4.331689062356536,4.331689062356536 0 1,1 0,4.331689062356536Z" style="fill: #2ca02c; stroke: #ffffff; stroke-width: 1px;"></path><path transform="translate(343.95416887347363,20.44811197519465)" d="M0,5.5693145087441165A5.5693145087441165,5.5693145087441165 0 1,1 0,-5.5693145087441165A5.5693145087441165,5.5693145087441165 0 1,1 0,5.5693145087441165Z" style="fill: #1f77b4; stroke: #ffffff; stroke-width: 1px;"></path><path transform="translate(333.6343709493564,19.337389399357505)" d="M0,5.5693145087441165A5.5693145087441165,5.5693145087441165 0 1,1 0,-5.5693145087441165A5.5693145087441165,5.5693145087441165 0 1,1 0,5.5693145087441165Z" style="fill: #1f77b4; stroke: #ffffff; stroke-width: 1px;"></path><path transform="translate(432,17.454545454545155)" d="M0,5.552098657635189A5.552098657635189,5.552098657635189 0 1,1 0,-5.552098657635189A5.552098657635189,5.552098657635189 0 1,1 0,5.552098657635189Z" style="fill: #ff7f0e; stroke: #ffffff; stroke-width: 1px;"></path></g><g id="g185" class="type-text"><text x="162.64825807682755" y="369.5454545454548" text-anchor="start" style="font-style: normal; font-variant: normal; font-weight: normal; font-size: 12px; line-height: normal; font-family: sans-serif; fill: #333333;">age_started_smoking</text><text x="179.92497054313299" y="354.6147910387184" text-anchor="start" style="font-style: normal; font-variant: normal; font-weight: normal; font-size: 12px; line-height: normal; font-family: sans-serif; fill: #333333;">age_started_smoking</text><text x="365.9938288881291" y="291.012203556301" text-anchor="start" style="font-style: normal; font-variant: normal; font-weight: normal; font-size: 12px; line-height: normal; font-family: sans-serif; fill: #333333;">size</text><text x="46.174581859190326" y="277.8072886228352" text-anchor="start" style="font-style: normal; font-variant: normal; font-weight: normal; font-size: 12px; line-height: normal; font-family: sans-serif; fill: #333333;">Gender</text><text x="179.92497054313299" y="275.6415707749205" text-anchor="start" style="font-style: normal; font-variant: normal; font-weight: normal; font-size: 12px; line-height: normal; font-family: sans-serif; fill: #333333;">age_started_smoking</text><text x="7" y="264.72052625127674" text-anchor="start" style="font-style: normal; font-variant: normal; font-weight: normal; font-size: 12px; line-height: normal; font-family: sans-serif; fill: #333333;">Gender</text><text x="89.35932628321761" y="239.45968642922037" text-anchor="start" style="font-style: normal; font-variant: normal; font-weight: normal; font-size: 12px; line-height: normal; font-family: sans-serif; fill: #333333;">Gender</text><text x="101.57580682475232" y="227.51509611691648" text-anchor="start" style="font-style: normal; font-variant: normal; font-weight: normal; font-size: 12px; line-height: normal; font-family: sans-serif; fill: #333333;">pain_last_7_days</text><text x="46.174581859190326" y="218.74394296354745" text-anchor="start" style="font-style: normal; font-variant: normal; font-weight: normal; font-size: 12px; line-height: normal; font-family: sans-serif; fill: #333333;">high blood pressure_medication</text><text x="335.38005934931715" y="212.4629773409987" text-anchor="start" style="font-style: normal; font-variant: normal; font-weight: normal; font-size: 12px; line-height: normal; font-family: sans-serif; fill: #333333;">size</text><text x="308.0631784126421" y="210.8060465274562" text-anchor="start" style="font-style: normal; font-variant: normal; font-weight: normal; font-size: 12px; line-height: normal; font-family: sans-serif; fill: #333333;"></text><text x="7" y="203.86029866482355" text-anchor="start" style="font-style: normal; font-variant: normal; font-weight: normal; font-size: 12px; line-height: normal; font-family: sans-serif; fill: #333333;">high blood pressure_medication</text><text x="7" y="181.61766038426066" text-anchor="start" style="font-style: normal; font-variant: normal; font-weight: normal; font-size: 12px; line-height: normal; font-family: sans-serif; fill: #333333;">living_with_partner</text><text x="28.255427541584716" y="180.01112968653877" text-anchor="start" style="font-style: normal; font-variant: normal; font-weight: normal; font-size: 12px; line-height: normal; font-family: sans-serif; fill: #333333;"></text><text x="61.96167373240488" y="162.04653166544222" text-anchor="start" style="font-style: normal; font-variant: normal; font-weight: normal; font-size: 12px; line-height: normal; font-family: sans-serif; fill: #333333;">Gender</text><text x="7" y="153.2698517203814" text-anchor="start" style="font-style: normal; font-variant: normal; font-weight: normal; font-size: 12px; line-height: normal; font-family: sans-serif; fill: #333333;">already_menstrual_period</text><text x="7" y="144.05359530585065" text-anchor="start" style="font-style: normal; font-variant: normal; font-weight: normal; font-size: 12px; line-height: normal; font-family: sans-serif; fill: #333333;"></text><text x="308.0631784126421" y="138.8689740352816" text-anchor="start" style="font-style: normal; font-variant: normal; font-weight: normal; font-size: 12px; line-height: normal; font-family: sans-serif; fill: #333333;">Age</text><text x="7" y="137.67432071127902" text-anchor="start" style="font-style: normal; font-variant: normal; font-weight: normal; font-size: 12px; line-height: normal; font-family: sans-serif; fill: #333333;">thyroid_nodules</text><text x="313.67535922707566" y="127.50389899414154" text-anchor="start" style="font-style: normal; font-variant: normal; font-weight: normal; font-size: 12px; line-height: normal; font-family: sans-serif; fill: #333333;"></text><text x="380.55055356904694" y="126.19647063694975" text-anchor="start" style="font-style: normal; font-variant: normal; font-weight: normal; font-size: 12px; line-height: normal; font-family: sans-serif; fill: #333333;">frequency_of_alcohol_last_year</text><text x="266.29445939118756" y="116.67290075364821" text-anchor="start" style="font-style: normal; font-variant: normal; font-weight: normal; font-size: 12px; line-height: normal; font-family: sans-serif; fill: #333333;">weight</text><text x="290.727420474257" y="108.30163319271327" text-anchor="start" style="font-style: normal; font-variant: normal; font-weight: normal; font-size: 12px; line-height: normal; font-family: sans-serif; fill: #333333;"></text><text x="290.727420474257" y="105.65425973039959" text-anchor="start" style="font-style: normal; font-variant: normal; font-weight: normal; font-size: 12px; line-height: normal; font-family: sans-serif; fill: #333333;"></text><text x="259.91789627425885" y="105.35667093888964" text-anchor="start" style="font-style: normal; font-variant: normal; font-weight: normal; font-size: 12px; line-height: normal; font-family: sans-serif; fill: #333333;"></text><text x="403.85450093711887" y="90.94537450608323" text-anchor="start" style="font-style: normal; font-variant: normal; font-weight: normal; font-size: 12px; line-height: normal; font-family: sans-serif; fill: #333333;">nutrition_cake</text><text x="302.3702343417131" y="81.0780632300436" text-anchor="start" style="font-style: normal; font-variant: normal; font-weight: normal; font-size: 12px; line-height: normal; font-family: sans-serif; fill: #333333;">LIP_S</text><text x="319.2101195250023" y="79.46300666826568" text-anchor="start" style="font-style: normal; font-variant: normal; font-weight: normal; font-size: 12px; line-height: normal; font-family: sans-serif; fill: #333333;"></text><text x="7" y="79.40974895000505" text-anchor="start" style="font-style: normal; font-variant: normal; font-weight: normal; font-size: 12px; line-height: normal; font-family: sans-serif; fill: #333333;">Increased_blood_lipid</text><text x="296.5929365721075" y="76.82486125006102" text-anchor="start" style="font-style: normal; font-variant: normal; font-weight: normal; font-size: 12px; line-height: normal; font-family: sans-serif; fill: #333333;"></text><text x="162.64825807682755" y="75.63753947338762" text-anchor="start" style="font-style: normal; font-variant: normal; font-weight: normal; font-size: 12px; line-height: normal; font-family: sans-serif; fill: #333333;">pain_legs</text><text x="390.0086072133297" y="74.13280336299084" text-anchor="start" style="font-style: normal; font-variant: normal; font-weight: normal; font-size: 12px; line-height: normal; font-family: sans-serif; fill: #333333;">nutrition_confectionery products </text><text x="266.29445939118756" y="72.7398867006786" text-anchor="start" style="font-style: normal; font-variant: normal; font-weight: normal; font-size: 12px; line-height: normal; font-family: sans-serif; fill: #333333;"></text><text x="253.42211410026925" y="71.37849961414616" text-anchor="start" style="font-style: normal; font-variant: normal; font-weight: normal; font-size: 12px; line-height: normal; font-family: sans-serif; fill: #333333;"></text><text x="319.2101195250023" y="65.12845710964262" text-anchor="start" style="font-style: normal; font-variant: normal; font-weight: normal; font-size: 12px; line-height: normal; font-family: sans-serif; fill: #333333;">nutrition_Muesli</text><text x="196.1516136495046" y="26.58887066251532" text-anchor="start" style="font-style: normal; font-variant: normal; font-weight: normal; font-size: 12px; line-height: normal; font-family: sans-serif; fill: #333333;">abdominal_pain</text><text x="188.15768318090403" y="25.692467706022057" text-anchor="start" style="font-style: normal; font-variant: normal; font-weight: normal; font-size: 12px; line-height: normal; font-family: sans-serif; fill: #333333;"></text><text x="350.95416887347363" y="23.44811197519465" text-anchor="start" style="font-style: normal; font-variant: normal; font-weight: normal; font-size: 12px; line-height: normal; font-family: sans-serif; fill: #333333;">nutrition_cake</text><text x="340.6343709493564" y="22.337389399357505" text-anchor="start" style="font-style: normal; font-variant: normal; font-weight: normal; font-size: 12px; line-height: normal; font-family: sans-serif; fill: #333333;"></text><text x="439" y="20.454545454545155" text-anchor="start" style="font-style: normal; font-variant: normal; font-weight: normal; font-size: 12px; line-height: normal; font-family: sans-serif; fill: #333333;">income</text></g><g id="g186" class="type-group"><g transform="translate(578.5086072133297,0.5)"><rect class="background" width="72" height="76" style="pointer-events: none; fill: none;"></rect><g id="g187" class="type-text" style="pointer-events: none;"><text x="3" y="3" text-anchor="start" dy=".9em" style="font-weight: bold; font-style: normal; font-variant: normal; font-size: 11px; line-height: normal; font-family: sans-serif; fill: #000000; opacity: 1;">group</text></g><g id="g188" class="type-symbol" style="pointer-events: none;"><path transform="translate(7.5,23)" d="M0,3.989422804014327A3.989422804014327,3.989422804014327 0 1,1 0,-3.989422804014327A3.989422804014327,3.989422804014327 0 1,1 0,3.989422804014327Z" style="fill: #1f77b4; stroke: #888888; stroke-width: 1px; opacity: 1;"></path><path transform="translate(7.5,38)" d="M0,3.989422804014327A3.989422804014327,3.989422804014327 0 1,1 0,-3.989422804014327A3.989422804014327,3.989422804014327 0 1,1 0,3.989422804014327Z" style="fill: #ff7f0e; stroke: #888888; stroke-width: 1px; opacity: 1;"></path><path transform="translate(7.5,53)" d="M0,3.989422804014327A3.989422804014327,3.989422804014327 0 1,1 0,-3.989422804014327A3.989422804014327,3.989422804014327 0 1,1 0,3.989422804014327Z" style="fill: #2ca02c; stroke: #888888; stroke-width: 1px; opacity: 1;"></path><path transform="translate(7.5,68)" d="M0,3.989422804014327A3.989422804014327,3.989422804014327 0 1,1 0,-3.989422804014327A3.989422804014327,3.989422804014327 0 1,1 0,3.989422804014327Z" style="fill: #d62728; stroke: #888888; stroke-width: 1px; opacity: 1;"></path></g><g id="g189" class="type-text" style="pointer-events: none;"><text x="16" y="23" text-anchor="start" dy=".35em" style="font-style: normal; font-variant: normal; font-weight: normal; font-size: 10px; line-height: normal; font-family: sans-serif; fill: #000000; opacity: 1;">(17.7,24.7]</text><text x="16" y="38" text-anchor="start" dy=".35em" style="font-style: normal; font-variant: normal; font-weight: normal; font-size: 10px; line-height: normal; font-family: sans-serif; fill: #000000; opacity: 1;">(24.7,27.4]</text><text x="16" y="53" text-anchor="start" dy=".35em" style="font-style: normal; font-variant: normal; font-weight: normal; font-size: 10px; line-height: normal; font-family: sans-serif; fill: #000000; opacity: 1;">(27.4,30.5]</text><text x="16" y="68" text-anchor="start" dy=".35em" style="font-style: normal; font-variant: normal; font-weight: normal; font-size: 10px; line-height: normal; font-family: sans-serif; fill: #000000; opacity: 1;">(30.5,48]</text></g></g></g></g></g></g></svg>