<svg class="marks" width="714" height="438" xmlns="http://www.w3.org/2000/svg"><g transform="translate(46,6)"><g id="g127" class="type-group"><g transform="translate(0,0)"><rect class="background" width="432" height="384" style="pointer-events: none; fill: none;"></rect><g id="g128" class="type-group"><g transform="translate(0,384)"><rect class="background" width="0" height="0" style="pointer-events: none; fill: none;"></rect><g id="g129" class="type-rule" style="pointer-events: none;"><line x1="64.06152554331626" y1="-384" x2="64.06152554331626" y2="0" style="fill: none; stroke: rgb(216, 216, 216); stroke-width: 1px; opacity: 1;"></line><line x1="135.69379924027146" y1="-384" x2="135.69379924027146" y2="0" style="fill: none; stroke: rgb(216, 216, 216); stroke-width: 1px; opacity: 1;"></line><line x1="190.6591760582406" y1="-384" x2="190.6591760582406" y2="0" style="fill: none; stroke: rgb(216, 216, 216); stroke-width: 1px; opacity: 1;"></line><line x1="236.99713220612705" y1="-384" x2="236.99713220612705" y2="0" style="fill: none; stroke: rgb(216, 216, 216); stroke-width: 1px; opacity: 1;"></line><line x1="277.82169110871587" y1="-384" x2="277.82169110871587" y2="0" style="fill: none; stroke: rgb(216, 216, 216); stroke-width: 1px; opacity: 1;"></line><line x1="314.7299135630467" y1="-384" x2="314.7299135630467" y2="0" style="fill: none; stroke: rgb(216, 216, 216); stroke-width: 1px; opacity: 1;"></line><line x1="348.6705269383874" y1="-384" x2="348.6705269383874" y2="0" style="fill: none; stroke: rgb(216, 216, 216); stroke-width: 1px; opacity: 1;"></line><line x1="380.2616796000374" y1="-384" x2="380.2616796000374" y2="0" style="fill: none; stroke: rgb(216, 216, 216); stroke-width: 1px; opacity: 1;"></line><line x1="409.93273886893775" y1="-384" x2="409.93273886893775" y2="0" style="fill: none; stroke: rgb(216, 216, 216); stroke-width: 1px; opacity: 1;"></line></g><g id="g130" class="type-rule" style="pointer-events: none;"><line x1="64.06152554331626" y1="0" x2="64.06152554331626" y2="6" style="fill: none; stroke: rgb(0, 0, 0); stroke-width: 1px; opacity: 1;"></line><line x1="135.69379924027146" y1="0" x2="135.69379924027146" y2="6" style="fill: none; stroke: rgb(0, 0, 0); stroke-width: 1px; opacity: 1;"></line><line x1="190.6591760582406" y1="0" x2="190.6591760582406" y2="6" style="fill: none; stroke: rgb(0, 0, 0); stroke-width: 1px; opacity: 1;"></line><line x1="236.99713220612705" y1="0" x2="236.99713220612705" y2="6" style="fill: none; stroke: rgb(0, 0, 0); stroke-width: 1px; opacity: 1;"></line><line x1="277.82169110871587" y1="0" x2="277.82169110871587" y2="6" style="fill: none; stroke: rgb(0, 0, 0); stroke-width: 1px; opacity: 1;"></line><line x1="314.7299135630467" y1="0" x2="314.7299135630467" y2="6" style="fill: none; stroke: rgb(0, 0, 0); stroke-width: 1px; opacity: 1;"></line><line x1="348.6705269383874" y1="0" x2="348.6705269383874" y2="6" style="fill: none; stroke: rgb(0, 0, 0); stroke-width: 1px; opacity: 1;"></line><line x1="380.2616796000374" y1="0" x2="380.2616796000374" y2="6" style="fill: none; stroke: rgb(0, 0, 0); stroke-width: 1px; opacity: 1;"></line><line x1="409.93273886893775" y1="0" x2="409.93273886893775" y2="6" style="fill: none; stroke: rgb(0, 0, 0); stroke-width: 1px; opacity: 1;"></line></g><g id="g131" class="type-rule" style="pointer-events: none;"></g><g id="g132" class="type-text"><text x="64.06152554331626" y="9" text-anchor="middle" dy=".9em" style="font-style: normal; font-variant: normal; font-weight: normal; font-size: 11px; line-height: normal; font-family: sans-serif; fill: rgb(0, 0, 0); opacity: 1;">5</text><text x="135.69379924027146" y="9" text-anchor="middle" dy=".9em" style="font-style: normal; font-variant: normal; font-weight: normal; font-size: 11px; line-height: normal; font-family: sans-serif; fill: rgb(0, 0, 0); opacity: 1;">10</text><text x="190.6591760582406" y="9" text-anchor="middle" dy=".9em" style="font-style: normal; font-variant: normal; font-weight: normal; font-size: 11px; line-height: normal; font-family: sans-serif; fill: rgb(0, 0, 0); opacity: 1;">15</text><text x="236.99713220612705" y="9" text-anchor="middle" dy=".9em" style="font-style: normal; font-variant: normal; font-weight: normal; font-size: 11px; line-height: normal; font-family: sans-serif; fill: rgb(0, 0, 0); opacity: 1;">20</text><text x="277.82169110871587" y="9" text-anchor="middle" dy=".9em" style="font-style: normal; font-variant: normal; font-weight: normal; font-size: 11px; line-height: normal; font-family: sans-serif; fill: rgb(0, 0, 0); opacity: 1;">25</text><text x="314.7299135630467" y="9" text-anchor="middle" dy=".9em" style="font-style: normal; font-variant: normal; font-weight: normal; font-size: 11px; line-height: normal; font-family: sans-serif; fill: rgb(0, 0, 0); opacity: 1;">30</text><text x="348.6705269383874" y="9" text-anchor="middle" dy=".9em" style="font-style: normal; font-variant: normal; font-weight: normal; font-size: 11px; line-height: normal; font-family: sans-serif; fill: rgb(0, 0, 0); opacity: 1;">35</text><text x="380.2616796000374" y="9" text-anchor="middle" dy=".9em" style="font-style: normal; font-variant: normal; font-weight: normal; font-size: 11px; line-height: normal; font-family: sans-serif; fill: rgb(0, 0, 0); opacity: 1;">40</text><text x="409.93273886893775" y="9" text-anchor="middle" dy=".9em" style="font-style: normal; font-variant: normal; font-weight: normal; font-size: 11px; line-height: normal; font-family: sans-serif; fill: rgb(0, 0, 0); opacity: 1;">45</text></g><g id="g133" class="type-path" style="pointer-events: none;"><path transform="translate(0.5,0.5)" d="M0,6V0H432V6" style="fill: none; stroke: rgb(0, 0, 0); stroke-width: 1px;"></path></g><g id="g134" class="type-text"><text x="216" y="35" text-anchor="middle" dy=".35em" style="font-weight: bold; font-style: normal; font-variant: normal; font-size: 11px; line-height: normal; font-family: sans-serif; fill: rgb(0, 0, 0);">sqrt(Tree Size)</text></g></g></g><g id="g135" class="type-group"><g transform="translate(0,0)"><rect class="background" width="0" height="0" style="pointer-events: none; fill: none;"></rect><g id="g136" class="type-rule" style="pointer-events: none;"><line x1="0" y1="365.3259233338762" x2="432" y2="365.3259233338762" style="fill: none; stroke: rgb(216, 216, 216); stroke-width: 1px; opacity: 1;"></line><line x1="0" y1="307.29298221374074" x2="432" y2="307.29298221374074" style="fill: none; stroke: rgb(216, 216, 216); stroke-width: 1px; opacity: 1;"></line><line x1="0" y1="249.26004109360542" x2="432" y2="249.26004109360542" style="fill: none; stroke: rgb(216, 216, 216); stroke-width: 1px; opacity: 1;"></line><line x1="0" y1="191.22709997347" x2="432" y2="191.22709997347" style="fill: none; stroke: rgb(216, 216, 216); stroke-width: 1px; opacity: 1;"></line><line x1="0" y1="133.1941588533346" x2="432" y2="133.1941588533346" style="fill: none; stroke: rgb(216, 216, 216); stroke-width: 1px; opacity: 1;"></line><line x1="0" y1="75.16121773319924" x2="432" y2="75.16121773319924" style="fill: none; stroke: rgb(216, 216, 216); stroke-width: 1px; opacity: 1;"></line><line x1="0" y1="17.128276613063804" x2="432" y2="17.128276613063804" style="fill: none; stroke: rgb(216, 216, 216); stroke-width: 1px; opacity: 1;"></line></g><g id="g137" class="type-rule" style="pointer-events: none;"><line x1="-6" y1="365.3259233338762" x2="0" y2="365.3259233338762" style="fill: none; stroke: rgb(0, 0, 0); stroke-width: 1px; opacity: 1;"></line><line x1="-6" y1="307.29298221374074" x2="0" y2="307.29298221374074" style="fill: none; stroke: rgb(0, 0, 0); stroke-width: 1px; opacity: 1;"></line><line x1="-6" y1="249.26004109360542" x2="0" y2="249.26004109360542" style="fill: none; stroke: rgb(0, 0, 0); stroke-width: 1px; opacity: 1;"></line><line x1="-6" y1="191.22709997347" x2="0" y2="191.22709997347" style="fill: none; stroke: rgb(0, 0, 0); stroke-width: 1px; opacity: 1;"></line><line x1="-6" y1="133.1941588533346" x2="0" y2="133.1941588533346" style="fill: none; stroke: rgb(0, 0, 0); stroke-width: 1px; opacity: 1;"></line><line x1="-6" y1="75.16121773319924" x2="0" y2="75.16121773319924" style="fill: none; stroke: rgb(0, 0, 0); stroke-width: 1px; opacity: 1;"></line><line x1="-6" y1="17.128276613063804" x2="0" y2="17.128276613063804" style="fill: none; stroke: rgb(0, 0, 0); stroke-width: 1px; opacity: 1;"></line></g><g id="g138" class="type-rule" style="pointer-events: none;"></g><g id="g139" class="type-text"><text x="-9" y="365.3259233338762" text-anchor="end" dy=".35em" style="font-style: normal; font-variant: normal; font-weight: normal; font-size: 11px; line-height: normal; font-family: sans-serif; fill: rgb(0, 0, 0); opacity: 1;">0.20</text><text x="-9" y="307.29298221374074" text-anchor="end" dy=".35em" style="font-style: normal; font-variant: normal; font-weight: normal; font-size: 11px; line-height: normal; font-family: sans-serif; fill: rgb(0, 0, 0); opacity: 1;">0.25</text><text x="-9" y="249.26004109360542" text-anchor="end" dy=".35em" style="font-style: normal; font-variant: normal; font-weight: normal; font-size: 11px; line-height: normal; font-family: sans-serif; fill: rgb(0, 0, 0); opacity: 1;">0.30</text><text x="-9" y="191.22709997347" text-anchor="end" dy=".35em" style="font-style: normal; font-variant: normal; font-weight: normal; font-size: 11px; line-height: normal; font-family: sans-serif; fill: rgb(0, 0, 0); opacity: 1;">0.35</text><text x="-9" y="133.1941588533346" text-anchor="end" dy=".35em" style="font-style: normal; font-variant: normal; font-weight: normal; font-size: 11px; line-height: normal; font-family: sans-serif; fill: rgb(0, 0, 0); opacity: 1;">0.40</text><text x="-9" y="75.16121773319924" text-anchor="end" dy=".35em" style="font-style: normal; font-variant: normal; font-weight: normal; font-size: 11px; line-height: normal; font-family: sans-serif; fill: rgb(0, 0, 0); opacity: 1;">0.45</text><text x="-9" y="17.128276613063804" text-anchor="end" dy=".35em" style="font-style: normal; font-variant: normal; font-weight: normal; font-size: 11px; line-height: normal; font-family: sans-serif; fill: rgb(0, 0, 0); opacity: 1;">0.50</text></g><g id="g140" class="type-path" style="pointer-events: none;"><path transform="translate(0.5,0.5)" d="M-6,0H0V384H-6" style="fill: none; stroke: rgb(0, 0, 0); stroke-width: 1px;"></path></g><g id="g141" class="type-text"><text x="-35" y="192" text-anchor="middle" transform="rotate(-90 -35,192)" dy=".35em" style="font-weight: bold; font-style: normal; font-variant: normal; font-size: 11px; line-height: normal; font-family: sans-serif; fill: rgb(0, 0, 0);">Error Rate</text></g></g></g><g id="g142" class="type-symbol"><path transform="translate(269.50884994075403,366.54545454545416)" d="M0,2.900623742769698A2.900623742769698,2.900623742769698 0 1,1 0,-2.900623742769698A2.900623742769698,2.900623742769698 0 1,1 0,2.900623742769698Z" style="fill: rgb(31, 119, 180); stroke: rgb(255, 255, 255); stroke-width: 1px;"></path><path transform="translate(199.98253666307383,345.1550353655932)" d="M0,2.531571115886184A2.531571115886184,2.531571115886184 0 1,1 0,-2.531571115886184A2.531571115886184,2.531571115886184 0 1,1 0,2.531571115886184Z" style="fill: rgb(44, 160, 44); stroke: rgb(255, 255, 255); stroke-width: 1px;"></path><path transform="translate(218.7481622389889,241.74663323953155)" d="M0,2.92988676599846A2.92988676599846,2.92988676599846 0 1,1 0,-2.92988676599846A2.92988676599846,2.92988676599846 0 1,1 0,2.92988676599846Z" style="fill: rgb(255, 127, 14); stroke: rgb(255, 255, 255); stroke-width: 1px;"></path><path transform="translate(348.1705269383874,199.3625544216141)" d="M0,5.013403815131428A5.013403815131428,5.013403815131428 0 1,1 0,-5.013403815131428A5.013403815131428,5.013403815131428 0 1,1 0,5.013403815131428Z" style="fill: rgb(44, 160, 44); stroke: rgb(255, 255, 255); stroke-width: 1px;"></path><path transform="translate(45.30422777178967,184.1203749832485)" d="M0,3.350943316531044A3.350943316531044,3.350943316531044 0 1,1 0,-3.350943316531044A3.350943316531044,3.350943316531044 0 1,1 0,3.350943316531044Z" style="fill: rgb(31, 119, 180); stroke: rgb(255, 255, 255); stroke-width: 1px;"></path><path transform="translate(432,177.3781085712626)" d="M0,5.449610909295156A5.449610909295156,5.449610909295156 0 1,1 0,-5.449610909295156A5.449610909295156,5.449610909295156 0 1,1 0,5.449610909295156Z" style="fill: rgb(255, 127, 14); stroke: rgb(255, 255, 255); stroke-width: 1px;"></path><path transform="translate(426.4472985375794,166.72195758881026)" d="M0,5.453523049719529A5.453523049719529,5.453523049719529 0 1,1 0,-5.453523049719529A5.453523049719529,5.453523049719529 0 1,1 0,5.453523049719529Z" style="fill: rgb(255, 127, 14); stroke: rgb(255, 255, 255); stroke-width: 1px;"></path><path transform="translate(158.53660870904247,161.27830196891193)" d="M0,3.037112992345527A3.037112992345527,3.037112992345527 0 1,1 0,-3.037112992345527A3.037112992345527,3.037112992345527 0 1,1 0,3.037112992345527Z" style="fill: rgb(214, 39, 40); stroke: rgb(255, 255, 255); stroke-width: 1px;"></path><path transform="translate(367.37648552300186,150.11299269605308)" d="M0,5.009147953740332A5.009147953740332,5.009147953740332 0 1,1 0,-5.009147953740332A5.009147953740332,5.009147953740332 0 1,1 0,5.009147953740332Z" style="fill: rgb(44, 160, 44); stroke: rgb(255, 255, 255); stroke-width: 1px;"></path><path transform="translate(261.5314737572668,148.66792035158673)" d="M0,3.8541485901874055A3.8541485901874055,3.8541485901874055 0 1,1 0,-3.8541485901874055A3.8541485901874055,3.8541485901874055 0 1,1 0,3.8541485901874055Z" style="fill: rgb(44, 160, 44); stroke: rgb(255, 255, 255); stroke-width: 1px;"></path><path transform="translate(158.53660870904247,141.37023217731917)" d="M0,2.749641117464455A2.749641117464455,2.749641117464455 0 1,1 0,-2.749641117464455A2.749641117464455,2.749641117464455 0 1,1 0,2.749641117464455Z" style="fill: rgb(44, 160, 44); stroke: rgb(255, 255, 255); stroke-width: 1px;"></path><path transform="translate(403.6358326795886,130.7539124003348)" d="M0,5.641895835477563A5.641895835477563,5.641895835477563 0 1,1 0,-5.641895835477563A5.641895835477563,5.641895835477563 0 1,1 0,5.641895835477563Z" style="fill: rgb(31, 119, 180); stroke: rgb(255, 255, 255); stroke-width: 1px;"></path><path transform="translate(367.37648552300186,117.78875161782133)" d="M0,5.3429004391479005A5.3429004391479005,5.3429004391479005 0 1,1 0,-5.3429004391479005A5.3429004391479005,5.3429004391479005 0 1,1 0,5.3429004391479005Z" style="fill: rgb(214, 39, 40); stroke: rgb(255, 255, 255); stroke-width: 1px;"></path><path transform="translate(328.1222433584834,115.15602524826602)" d="M0,5.298809734308202A5.298809734308202,5.298809734308202 0 1,1 0,-5.298809734308202A5.298809734308202,5.298809734308202 0 1,1 0,5.298809734308202Z" style="fill: rgb(214, 39, 40); stroke: rgb(255, 255, 255); stroke-width: 1px;"></path><path transform="translate(373.60878359136484,113.89810025263063)" d="M0,5.453523049719529A5.453523049719529,5.453523049719529 0 1,1 0,-5.453523049719529A5.453523049719529,5.453523049719529 0 1,1 0,5.453523049719529Z" style="fill: rgb(255, 127, 14); stroke: rgb(255, 255, 255); stroke-width: 1px;"></path><path transform="translate(199.98253666307383,104.25955890020703)" d="M0,4.38237716870775A4.38237716870775,4.38237716870775 0 1,1 0,-4.38237716870775A4.38237716870775,4.38237716870775 0 1,1 0,4.38237716870775Z" style="fill: rgb(255, 127, 14); stroke: rgb(255, 255, 255); stroke-width: 1px;"></path><path transform="translate(0,97.87439418125342)" d="M0,2.5231325220201604A2.5231325220201604,2.5231325220201604 0 1,1 0,-2.5231325220201604A2.5231325220201604,2.5231325220201604 0 1,1 0,2.5231325220201604Z" style="fill: rgb(44, 160, 44); stroke: rgb(255, 255, 255); stroke-width: 1px;"></path><path transform="translate(348.1705269383874,94.72719712736989)" d="M0,5.641895835477563A5.641895835477563,5.641895835477563 0 1,1 0,-5.641895835477563A5.641895835477563,5.641895835477563 0 1,1 0,5.641895835477563Z" style="fill: rgb(31, 119, 180); stroke: rgb(255, 255, 255); stroke-width: 1px;"></path><path transform="translate(0,93.49647055289284)" d="M0,2.885880959931036A2.885880959931036,2.885880959931036 0 1,1 0,-2.885880959931036A2.885880959931036,2.885880959931036 0 1,1 0,2.885880959931036Z" style="fill: rgb(255, 127, 14); stroke: rgb(255, 255, 255); stroke-width: 1px;"></path><path transform="translate(0,87.4411869209016)" d="M0,3.312535820775926A3.312535820775926,3.312535820775926 0 1,1 0,-3.312535820775926A3.312535820775926,3.312535820775926 0 1,1 0,3.312535820775926Z" style="fill: rgb(214, 39, 40); stroke: rgb(255, 255, 255); stroke-width: 1px;"></path><path transform="translate(135.19379924027146,84.74767557278989)" d="M0,3.3699829204232317A3.3699829204232317,3.3699829204232317 0 1,1 0,-3.3699829204232317A3.3699829204232317,3.3699829204232317 0 1,1 0,3.3699829204232317Z" style="fill: rgb(214, 39, 40); stroke: rgb(255, 255, 255); stroke-width: 1px;"></path><path transform="translate(321.23210685435845,84.37753428520489)" d="M0,5.44569595842399A5.44569595842399,5.44569595842399 0 1,1 0,-5.44569595842399A5.44569595842399,5.44569595842399 0 1,1 0,5.44569595842399Z" style="fill: rgb(255, 127, 14); stroke: rgb(255, 255, 255); stroke-width: 1px;"></path><path transform="translate(321.23210685435845,83.67321875628886)" d="M0,5.449610909295156A5.449610909295156,5.449610909295156 0 1,1 0,-5.449610909295156A5.449610909295156,5.449610909295156 0 1,1 0,5.449610909295156Z" style="fill: rgb(255, 127, 14); stroke: rgb(255, 255, 255); stroke-width: 1px;"></path><path transform="translate(236.49713220612705,78.52837674623783)" d="M0,4.07994536507618A4.07994536507618,4.07994536507618 0 1,1 0,-4.07994536507618A4.07994536507618,4.07994536507618 0 1,1 0,4.07994536507618Z" style="fill: rgb(214, 39, 40); stroke: rgb(255, 255, 255); stroke-width: 1px;"></path><path transform="translate(385.8381332139587,72.3502739452664)" d="M0,4.987814177261812A4.987814177261812,4.987814177261812 0 1,1 0,-4.987814177261812A4.987814177261812,4.987814177261812 0 1,1 0,4.987814177261812Z" style="fill: rgb(44, 160, 44); stroke: rgb(255, 255, 255); stroke-width: 1px;"></path><path transform="translate(24.581263794773996,66.01801373658361)" d="M0,5.3429004391479005A5.3429004391479005,5.3429004391479005 0 1,1 0,-5.3429004391479005A5.3429004391479005,5.3429004391479005 0 1,1 0,5.3429004391479005Z" style="fill: rgb(214, 39, 40); stroke: rgb(255, 255, 255); stroke-width: 1px;"></path><path transform="translate(354.660845554358,61.5368017015266)" d="M0,5.00488847341752A5.00488847341752,5.00488847341752 0 1,1 0,-5.00488847341752A5.00488847341752,5.00488847341752 0 1,1 0,5.00488847341752Z" style="fill: rgb(44, 160, 44); stroke: rgb(255, 255, 255); stroke-width: 1px;"></path><path transform="translate(321.23210685435845,61.40003995311554)" d="M0,5.638114403527625A5.638114403527625,5.638114403527625 0 1,1 0,-5.638114403527625A5.638114403527625,5.638114403527625 0 1,1 0,5.638114403527625Z" style="fill: rgb(31, 119, 180); stroke: rgb(255, 255, 255); stroke-width: 1px;"></path><path transform="translate(385.8381332139587,60.83875806518569)" d="M0,4.987814177261812A4.987814177261812,4.987814177261812 0 1,1 0,-4.987814177261812A4.987814177261812,4.987814177261812 0 1,1 0,4.987814177261812Z" style="fill: rgb(44, 160, 44); stroke: rgb(255, 255, 255); stroke-width: 1px;"></path><path transform="translate(361.0616296674041,57.76504779026732)" d="M0,5.437857601056556A5.437857601056556,5.437857601056556 0 1,1 0,-5.437857601056556A5.437857601056556,5.437857601056556 0 1,1 0,5.437857601056556Z" style="fill: rgb(255, 127, 14); stroke: rgb(255, 255, 255); stroke-width: 1px;"></path><path transform="translate(236.49713220612705,56.782318544715395)" d="M0,4.987814177261812A4.987814177261812,4.987814177261812 0 1,1 0,-4.987814177261812A4.987814177261812,4.987814177261812 0 1,1 0,4.987814177261812Z" style="fill: rgb(44, 160, 44); stroke: rgb(255, 255, 255); stroke-width: 1px;"></path><path transform="translate(391.8409246768293,54.08326229670388)" d="M0,5.449610909295156A5.449610909295156,5.449610909295156 0 1,1 0,-5.449610909295156A5.449610909295156,5.449610909295156 0 1,1 0,5.449610909295156Z" style="fill: rgb(255, 127, 14); stroke: rgb(255, 255, 255); stroke-width: 1px;"></path><path transform="translate(420.83644884689846,52.528952320771566)" d="M0,5.615372336772089A5.615372336772089,5.615372336772089 0 1,1 0,-5.615372336772089A5.615372336772089,5.615372336772089 0 1,1 0,5.615372336772089Z" style="fill: rgb(31, 119, 180); stroke: rgb(255, 255, 255); stroke-width: 1px;"></path><path transform="translate(284.9797765636006,50.77886028378339)" d="M0,5.009147953740332A5.009147953740332,5.009147953740332 0 1,1 0,-5.009147953740332A5.009147953740332,5.009147953740332 0 1,1 0,5.009147953740332Z" style="fill: rgb(44, 160, 44); stroke: rgb(255, 255, 255); stroke-width: 1px;"></path><path transform="translate(269.50884994075403,50.31863402336205)" d="M0,5.013403815131428A5.013403815131428,5.013403815131428 0 1,1 0,-5.013403815131428A5.013403815131428,5.013403815131428 0 1,1 0,5.013403815131428Z" style="fill: rgb(44, 160, 44); stroke: rgb(255, 255, 255); stroke-width: 1px;"></path><path transform="translate(314.2299135630467,42.89505874952533)" d="M0,5.453523049719529A5.453523049719529,5.453523049719529 0 1,1 0,-5.453523049719529A5.453523049719529,5.453523049719529 0 1,1 0,5.453523049719529Z" style="fill: rgb(255, 127, 14); stroke: rgb(255, 255, 255); stroke-width: 1px;"></path><path transform="translate(403.6358326795886,29.5873190838833)" d="M0,5.298809734308202A5.298809734308202,5.298809734308202 0 1,1 0,-5.298809734308202A5.298809734308202,5.298809734308202 0 1,1 0,5.298809734308202Z" style="fill: rgb(214, 39, 40); stroke: rgb(255, 255, 255); stroke-width: 1px;"></path><path transform="translate(420.83644884689846,20.948505424456243)" d="M0,5.298809734308202A5.298809734308202,5.298809734308202 0 1,1 0,-5.298809734308202A5.298809734308202,5.298809734308202 0 1,1 0,5.298809734308202Z" style="fill: rgb(214, 39, 40); stroke: rgb(255, 255, 255); stroke-width: 1px;"></path><path transform="translate(307.1100116147172,17.95742899499419)" d="M0,5.00488847341752A5.00488847341752,5.00488847341752 0 1,1 0,-5.00488847341752A5.00488847341752,5.00488847341752 0 1,1 0,5.00488847341752Z" style="fill: rgb(44, 160, 44); stroke: rgb(255, 255, 255); stroke-width: 1px;"></path><path transform="translate(299.8662574228743,17.523687762162012)" d="M0,5.350877898520357A5.350877898520357,5.350877898520357 0 1,1 0,-5.350877898520357A5.350877898520357,5.350877898520357 0 1,1 0,5.350877898520357Z" style="fill: rgb(214, 39, 40); stroke: rgb(255, 255, 255); stroke-width: 1px;"></path><path transform="translate(354.660845554358,17.454545454545894)" d="M0,4.983536462772247A4.983536462772247,4.983536462772247 0 1,1 0,-4.983536462772247A4.983536462772247,4.983536462772247 0 1,1 0,4.983536462772247Z" style="fill: rgb(44, 160, 44); stroke: rgb(255, 255, 255); stroke-width: 1px;"></path></g><g id="g143" class="type-text"><text x="276.50884994075403" y="369.54545454545416" text-anchor="start" style="font-style: normal; font-variant: normal; font-weight: normal; font-size: 12px; line-height: normal; font-family: sans-serif; fill: rgb(51, 51, 51);">age-started-smoking</text><text x="206.98253666307383" y="348.1550353655932" text-anchor="start" style="font-style: normal; font-variant: normal; font-weight: normal; font-size: 12px; line-height: normal; font-family: sans-serif; fill: rgb(51, 51, 51);">age-menstrual-period</text><text x="225.7481622389889" y="244.74663323953155" text-anchor="start" style="font-style: normal; font-variant: normal; font-weight: normal; font-size: 12px; line-height: normal; font-family: sans-serif; fill: rgb(51, 51, 51);">age-started-smoking</text><text x="355.1705269383874" y="202.3625544216141" text-anchor="start" style="font-style: normal; font-variant: normal; font-weight: normal; font-size: 12px; line-height: normal; font-family: sans-serif; fill: rgb(51, 51, 51);">Age</text><text x="52.30422777178967" y="187.1203749832485" text-anchor="start" style="font-style: normal; font-variant: normal; font-weight: normal; font-size: 12px; line-height: normal; font-family: sans-serif; fill: rgb(51, 51, 51);">Hyperthyroidism</text><text x="439" y="180.3781085712626" text-anchor="start" style="font-style: normal; font-variant: normal; font-weight: normal; font-size: 12px; line-height: normal; font-family: sans-serif; fill: rgb(51, 51, 51);">ALAT_S</text><text x="433.4472985375794" y="169.72195758881026" text-anchor="start" style="font-style: normal; font-variant: normal; font-weight: normal; font-size: 12px; line-height: normal; font-family: sans-serif; fill: rgb(51, 51, 51);"></text><text x="165.53660870904247" y="164.27830196891193" text-anchor="start" style="font-style: normal; font-variant: normal; font-weight: normal; font-size: 12px; line-height: normal; font-family: sans-serif; fill: rgb(51, 51, 51);">age-started-smoking</text><text x="374.37648552300186" y="153.11299269605308" text-anchor="start" style="font-style: normal; font-variant: normal; font-weight: normal; font-size: 12px; line-height: normal; font-family: sans-serif; fill: rgb(51, 51, 51);">GGT_S</text><text x="268.5314737572668" y="151.66792035158673" text-anchor="start" style="font-style: normal; font-variant: normal; font-weight: normal; font-size: 12px; line-height: normal; font-family: sans-serif; fill: rgb(51, 51, 51);">radiating-backpain</text><text x="165.53660870904247" y="144.37023217731917" text-anchor="start" style="font-style: normal; font-variant: normal; font-weight: normal; font-size: 12px; line-height: normal; font-family: sans-serif; fill: rgb(51, 51, 51);">age-started-smoking</text><text x="410.6358326795886" y="133.7539124003348" text-anchor="start" style="font-style: normal; font-variant: normal; font-weight: normal; font-size: 12px; line-height: normal; font-family: sans-serif; fill: rgb(51, 51, 51);">ALAT_S</text><text x="374.37648552300186" y="120.78875161782133" text-anchor="start" style="font-style: normal; font-variant: normal; font-weight: normal; font-size: 12px; line-height: normal; font-family: sans-serif; fill: rgb(51, 51, 51);"></text><text x="335.1222433584834" y="118.15602524826602" text-anchor="start" style="font-style: normal; font-variant: normal; font-weight: normal; font-size: 12px; line-height: normal; font-family: sans-serif; fill: rgb(51, 51, 51);">nutrition-rice</text><text x="380.60878359136484" y="116.89810025263063" text-anchor="start" style="font-style: normal; font-variant: normal; font-weight: normal; font-size: 12px; line-height: normal; font-family: sans-serif; fill: rgb(51, 51, 51);"></text><text x="206.98253666307383" y="107.25955890020703" text-anchor="start" style="font-style: normal; font-variant: normal; font-weight: normal; font-size: 12px; line-height: normal; font-family: sans-serif; fill: rgb(51, 51, 51);">impairment-by-backpain-3-month</text><text x="7" y="100.87439418125342" text-anchor="start" style="font-style: normal; font-variant: normal; font-weight: normal; font-size: 12px; line-height: normal; font-family: sans-serif; fill: rgb(51, 51, 51);">already-menstrual-period</text><text x="355.1705269383874" y="97.72719712736989" text-anchor="start" style="font-style: normal; font-variant: normal; font-weight: normal; font-size: 12px; line-height: normal; font-family: sans-serif; fill: rgb(51, 51, 51);">cholesterol</text><text x="7" y="96.49647055289284" text-anchor="start" style="font-style: normal; font-variant: normal; font-weight: normal; font-size: 12px; line-height: normal; font-family: sans-serif; fill: rgb(51, 51, 51);"></text><text x="7" y="90.4411869209016" text-anchor="start" style="font-style: normal; font-variant: normal; font-weight: normal; font-size: 12px; line-height: normal; font-family: sans-serif; fill: rgb(51, 51, 51);"></text><text x="142.19379924027146" y="87.74767557278989" text-anchor="start" style="font-style: normal; font-variant: normal; font-weight: normal; font-size: 12px; line-height: normal; font-family: sans-serif; fill: rgb(51, 51, 51);">pain-legs</text><text x="328.23210685435845" y="87.37753428520489" text-anchor="start" style="font-style: normal; font-variant: normal; font-weight: normal; font-size: 12px; line-height: normal; font-family: sans-serif; fill: rgb(51, 51, 51);"></text><text x="328.23210685435845" y="86.67321875628886" text-anchor="start" style="font-style: normal; font-variant: normal; font-weight: normal; font-size: 12px; line-height: normal; font-family: sans-serif; fill: rgb(51, 51, 51);"></text><text x="243.49713220612705" y="81.52837674623783" text-anchor="start" style="font-style: normal; font-variant: normal; font-weight: normal; font-size: 12px; line-height: normal; font-family: sans-serif; fill: rgb(51, 51, 51);">radiating-backpain</text><text x="392.8381332139587" y="75.3502739452664" text-anchor="start" style="font-style: normal; font-variant: normal; font-weight: normal; font-size: 12px; line-height: normal; font-family: sans-serif; fill: rgb(51, 51, 51);">nutrition-fish</text><text x="31.581263794773996" y="69.01801373658361" text-anchor="start" style="font-style: normal; font-variant: normal; font-weight: normal; font-size: 12px; line-height: normal; font-family: sans-serif; fill: rgb(51, 51, 51);">uropathy</text><text x="361.660845554358" y="64.5368017015266" text-anchor="start" style="font-style: normal; font-variant: normal; font-weight: normal; font-size: 12px; line-height: normal; font-family: sans-serif; fill: rgb(51, 51, 51);"></text><text x="328.23210685435845" y="64.40003995311554" text-anchor="start" style="font-style: normal; font-variant: normal; font-weight: normal; font-size: 12px; line-height: normal; font-family: sans-serif; fill: rgb(51, 51, 51);">Sport_Winter</text><text x="392.8381332139587" y="63.83875806518569" text-anchor="start" style="font-style: normal; font-variant: normal; font-weight: normal; font-size: 12px; line-height: normal; font-family: sans-serif; fill: rgb(51, 51, 51);"></text><text x="368.0616296674041" y="60.76504779026732" text-anchor="start" style="font-style: normal; font-variant: normal; font-weight: normal; font-size: 12px; line-height: normal; font-family: sans-serif; fill: rgb(51, 51, 51);"></text><text x="243.49713220612705" y="59.782318544715395" text-anchor="start" style="font-style: normal; font-variant: normal; font-weight: normal; font-size: 12px; line-height: normal; font-family: sans-serif; fill: rgb(51, 51, 51);">nutrition-sausage</text><text x="398.8409246768293" y="57.08326229670388" text-anchor="start" style="font-style: normal; font-variant: normal; font-weight: normal; font-size: 12px; line-height: normal; font-family: sans-serif; fill: rgb(51, 51, 51);">frequency-of-alcohol-last-year</text><text x="427.83644884689846" y="55.528952320771566" text-anchor="start" style="font-style: normal; font-variant: normal; font-weight: normal; font-size: 12px; line-height: normal; font-family: sans-serif; fill: rgb(51, 51, 51);"></text><text x="291.9797765636006" y="53.77886028378339" text-anchor="start" style="font-style: normal; font-variant: normal; font-weight: normal; font-size: 12px; line-height: normal; font-family: sans-serif; fill: rgb(51, 51, 51);"></text><text x="276.50884994075403" y="53.31863402336205" text-anchor="start" style="font-style: normal; font-variant: normal; font-weight: normal; font-size: 12px; line-height: normal; font-family: sans-serif; fill: rgb(51, 51, 51);"></text><text x="321.2299135630467" y="45.89505874952533" text-anchor="start" style="font-style: normal; font-variant: normal; font-weight: normal; font-size: 12px; line-height: normal; font-family: sans-serif; fill: rgb(51, 51, 51);">LIP_S</text><text x="410.6358326795886" y="32.5873190838833" text-anchor="start" style="font-style: normal; font-variant: normal; font-weight: normal; font-size: 12px; line-height: normal; font-family: sans-serif; fill: rgb(51, 51, 51);">nutrition-confectionery products </text><text x="427.83644884689846" y="23.948505424456243" text-anchor="start" style="font-style: normal; font-variant: normal; font-weight: normal; font-size: 12px; line-height: normal; font-family: sans-serif; fill: rgb(51, 51, 51);"></text><text x="314.1100116147172" y="20.95742899499419" text-anchor="start" style="font-style: normal; font-variant: normal; font-weight: normal; font-size: 12px; line-height: normal; font-family: sans-serif; fill: rgb(51, 51, 51);">marital-status</text><text x="306.8662574228743" y="20.523687762162012" text-anchor="start" style="font-style: normal; font-variant: normal; font-weight: normal; font-size: 12px; line-height: normal; font-family: sans-serif; fill: rgb(51, 51, 51);"></text><text x="361.660845554358" y="20.454545454545894" text-anchor="start" style="font-style: normal; font-variant: normal; font-weight: normal; font-size: 12px; line-height: normal; font-family: sans-serif; fill: rgb(51, 51, 51);"></text></g><g id="g144" class="type-group"><g transform="translate(596.1358326795886,0.5)"><rect class="background" width="66" height="76" style="pointer-events: none; fill: none;"></rect><g id="g145" class="type-text" style="pointer-events: none;"><text x="3" y="3" text-anchor="start" dy=".9em" style="font-weight: bold; font-style: normal; font-variant: normal; font-size: 11px; line-height: normal; font-family: sans-serif; fill: rgb(0, 0, 0); opacity: 1;">group</text></g><g id="g146" class="type-symbol" style="pointer-events: none;"><path transform="translate(7.5,23)" d="M0,3.989422804014327A3.989422804014327,3.989422804014327 0 1,1 0,-3.989422804014327A3.989422804014327,3.989422804014327 0 1,1 0,3.989422804014327Z" style="fill: rgb(31, 119, 180); stroke: rgb(136, 136, 136); stroke-width: 1px; opacity: 1;"></path><path transform="translate(7.5,38)" d="M0,3.989422804014327A3.989422804014327,3.989422804014327 0 1,1 0,-3.989422804014327A3.989422804014327,3.989422804014327 0 1,1 0,3.989422804014327Z" style="fill: rgb(255, 127, 14); stroke: rgb(136, 136, 136); stroke-width: 1px; opacity: 1;"></path><path transform="translate(7.5,53)" d="M0,3.989422804014327A3.989422804014327,3.989422804014327 0 1,1 0,-3.989422804014327A3.989422804014327,3.989422804014327 0 1,1 0,3.989422804014327Z" style="fill: rgb(44, 160, 44); stroke: rgb(136, 136, 136); stroke-width: 1px; opacity: 1;"></path><path transform="translate(7.5,68)" d="M0,3.989422804014327A3.989422804014327,3.989422804014327 0 1,1 0,-3.989422804014327A3.989422804014327,3.989422804014327 0 1,1 0,3.989422804014327Z" style="fill: rgb(214, 39, 40); stroke: rgb(136, 136, 136); stroke-width: 1px; opacity: 1;"></path></g><g id="g147" class="type-text" style="pointer-events: none;"><text x="16" y="23" text-anchor="start" dy=".35em" style="font-style: normal; font-variant: normal; font-weight: normal; font-size: 10px; line-height: normal; font-family: sans-serif; fill: rgb(0, 0, 0); opacity: 1;">(139,164]</text><text x="16" y="38" text-anchor="start" dy=".35em" style="font-style: normal; font-variant: normal; font-weight: normal; font-size: 10px; line-height: normal; font-family: sans-serif; fill: rgb(0, 0, 0); opacity: 1;">(164,171]</text><text x="16" y="53" text-anchor="start" dy=".35em" style="font-style: normal; font-variant: normal; font-weight: normal; font-size: 10px; line-height: normal; font-family: sans-serif; fill: rgb(0, 0, 0); opacity: 1;">(171,177]</text><text x="16" y="68" text-anchor="start" dy=".35em" style="font-style: normal; font-variant: normal; font-weight: normal; font-size: 10px; line-height: normal; font-family: sans-serif; fill: rgb(0, 0, 0); opacity: 1;">(177,202]</text></g></g></g></g></g></g></svg>